<svg xmlns="http://www.w3.org/2000/svg" xmlns:xlink="http://www.w3.org/1999/xlink" viewBox="0 0 53.82 40.63"><defs><style>.cls-1{isolation:isolate;}.cls-2{opacity:0.1;fill:url(#linear-gradient);}.cls-18,.cls-2,.cls-7{mix-blend-mode:multiply;}.cls-3{fill:url(#Áåçûìÿííûé_ãðàäèåíò_2);}.cls-4{fill:#4f4f4f;}.cls-5{fill:url(#Áåçûìÿííûé_ãðàäèåíò_3);}.cls-6{fill:#303030;}.cls-7{fill:#d8d8d8;}.cls-8{fill:#c2c2c2;}.cls-9{fill:url(#Áåçûìÿííûé_ãðàäèåíò_9);}.cls-10{fill:url(#Áåçûìÿííûé_ãðàäèåíò_8);}.cls-11{fill:url(#Áåçûìÿííûé_ãðàäèåíò_7);}.cls-12{fill:#121212;}.cls-13{fill:url(#Áåçûìÿííûé_ãðàäèåíò_7-2);}.cls-14{fill:url(#Áåçûìÿííûé_ãðàäèåíò_7-3);}.cls-15{fill:#aaa;}.cls-16{fill:#9c9c9c;}.cls-17{fill:url(#Áåçûìÿííûé_ãðàäèåíò_7-4);}.cls-18,.cls-23{fill:#ebebeb;}.cls-19{fill:#b6b6b6;}.cls-20{fill:url(#Áåçûìÿííûé_ãðàäèåíò_6);}.cls-21{fill:url(#Áåçûìÿííûé_ãðàäèåíò_6-2);}.cls-22{fill:url(#Áåçûìÿííûé_ãðàäèåíò_5);}.cls-24{fill:url(#Áåçûìÿííûé_ãðàäèåíò_6-3);}.cls-25{fill:url(#Áåçûìÿííûé_ãðàäèåíò_5-2);}.cls-26{fill:#cdcdcd;}.cls-27{fill:#a5a5a5;}.cls-28{fill:url(#Áåçûìÿííûé_ãðàäèåíò_4);}.cls-29{fill:#dbdbdb;}.cls-30{fill:url(#Áåçûìÿííûé_ãðàäèåíò_3-2);}.cls-31{fill:url(#Áåçûìÿííûé_ãðàäèåíò_2-2);}</style><linearGradient id="linear-gradient" x1="19.93" y1="12.65" x2="32.45" y2="34.34" gradientUnits="userSpaceOnUse"><stop offset="0" stop-color="#fff"/><stop offset="0.37" stop-color="#959595"/><stop offset="0.68" stop-color="#454545"/><stop offset="0.89" stop-color="#131313"/><stop offset="1"/></linearGradient><linearGradient id="Áåçûìÿííûé_ãðàäèåíò_2" x1="-6680.42" y1="17.48" x2="-6680.18" y2="17.9" gradientTransform="matrix(-1, 0, 0, 1, -6643.19, 0)" gradientUnits="userSpaceOnUse"><stop offset="0.13"/><stop offset="0.13" stop-color="#303030"/><stop offset="0.47" stop-color="#303030"/><stop offset="0.48"/><stop offset="0.77"/><stop offset="0.77"/></linearGradient><linearGradient id="Áåçûìÿííûé_ãðàäèåíò_3" x1="-6680.7" y1="17.68" x2="-6680.49" y2="18.04" gradientTransform="matrix(-1, 0, 0, 1, -6643.19, 0)" gradientUnits="userSpaceOnUse"><stop offset="0.13"/><stop offset="0.13" stop-color="#0f0f0f"/><stop offset="0.47" stop-color="#0f0f0f"/><stop offset="0.48"/><stop offset="0.77"/><stop offset="0.77"/></linearGradient><linearGradient id="Áåçûìÿííûé_ãðàäèåíò_9" x1="-6685.96" y1="18.59" x2="-6686.35" y2="19.11" gradientTransform="matrix(-1, 0, 0, 1, -6643.19, 0)" gradientUnits="userSpaceOnUse"><stop offset="0.13" stop-color="#8f8f8f"/><stop offset="0.13" stop-color="#aaa"/><stop offset="0.47" stop-color="#aaa"/><stop offset="0.48" stop-color="#8f8f8f"/><stop offset="0.77" stop-color="#8f8f8f"/><stop offset="0.77" stop-color="#7f7f7f"/></linearGradient><linearGradient id="Áåçûìÿííûé_ãðàäèåíò_8" x1="-6687.45" y1="11.95" x2="-6686.89" y2="12.25" gradientTransform="matrix(-1, 0, 0, 1, -6643.19, 0)" gradientUnits="userSpaceOnUse"><stop offset="0.13" stop-color="#9a9a9a"/><stop offset="0.13" stop-color="#b3b3b3"/><stop offset="0.47" stop-color="#b3b3b3"/><stop offset="0.48" stop-color="#9a9a9a"/><stop offset="0.77" stop-color="#9a9a9a"/><stop offset="0.77" stop-color="#8b8b8b"/></linearGradient><linearGradient id="Áåçûìÿííûé_ãðàäèåíò_7" x1="33.69" y1="19.47" x2="33.32" y2="20.43" gradientUnits="userSpaceOnUse"><stop offset="0.13" stop-color="#aaa"/><stop offset="0.13" stop-color="#c2c2c2"/><stop offset="0.47" stop-color="#c2c2c2"/><stop offset="0.48" stop-color="#aaa"/><stop offset="0.77" stop-color="#aaa"/><stop offset="0.77" stop-color="#9c9c9c"/></linearGradient><linearGradient id="Áåçûìÿííûé_ãðàäèåíò_7-2" x1="-6688.05" y1="12.16" x2="-6687.49" y2="12.51" gradientTransform="matrix(-1, 0, 0, 1, -6643.19, 0)" xlink:href="#Áåçûìÿííûé_ãðàäèåíò_7"/><linearGradient id="Áåçûìÿííûé_ãðàäèåíò_7-3" x1="-6686.96" y1="19.31" x2="-6687.35" y2="19.83" gradientTransform="matrix(-1, 0, 0, 1, -6643.19, 0)" xlink:href="#Áåçûìÿííûé_ãðàäèåíò_7"/><linearGradient id="Áåçûìÿííûé_ãðàäèåíò_7-4" x1="-6677.39" y1="11.23" x2="-6678.04" y2="12.28" gradientTransform="matrix(-1, 0, 0, 1, -6643.19, 0)" xlink:href="#Áåçûìÿííûé_ãðàäèåíò_7"/><linearGradient id="Áåçûìÿííûé_ãðàäèåíò_6" x1="-6668.63" y1="25.23" x2="-6667.73" y2="24.97" gradientTransform="matrix(-1, 0, 0, 1, -6643.19, 0)" gradientUnits="userSpaceOnUse"><stop offset="0.23" stop-color="#9c9c9c"/><stop offset="0.23" stop-color="#aaa"/><stop offset="0.52" stop-color="#aaa"/><stop offset="0.53" stop-color="#c2c2c2"/><stop offset="0.87" stop-color="#c2c2c2"/><stop offset="0.87" stop-color="#aaa"/></linearGradient><linearGradient id="Áåçûìÿííûé_ãðàäèåíò_6-2" x1="-6669.65" y1="26.1" x2="-6668.79" y2="25.85" xlink:href="#Áåçûìÿííûé_ãðàäèåíò_6"/><linearGradient id="Áåçûìÿííûé_ãðàäèåíò_5" x1="-6671.15" y1="19.38" x2="-6669.32" y2="19.38" gradientTransform="matrix(-1, 0, 0, 1, -6643.19, 0)" gradientUnits="userSpaceOnUse"><stop offset="0.23" stop-color="#4f4f4f"/><stop offset="0.23" stop-color="#6a6a6a"/><stop offset="0.52" stop-color="#6a6a6a"/><stop offset="0.53" stop-color="#8d8d8d"/><stop offset="0.87" stop-color="#8d8d8d"/><stop offset="0.87" stop-color="#6a6a6a"/></linearGradient><linearGradient id="Áåçûìÿííûé_ãðàäèåíò_6-3" x1="-6671.64" y1="15.47" x2="-6670.2" y2="15.19" xlink:href="#Áåçûìÿííûé_ãðàäèåíò_6"/><linearGradient id="Áåçûìÿííûé_ãðàäèåíò_5-2" x1="-6672.67" y1="11.37" x2="-6670.84" y2="11.37" xlink:href="#Áåçûìÿííûé_ãðàäèåíò_5"/><linearGradient id="Áåçûìÿííûé_ãðàäèåíò_4" x1="-6671.96" y1="8.88" x2="-6671.12" y2="10.55" gradientTransform="matrix(-1, 0, 0, 1, -6643.19, 0)" gradientUnits="userSpaceOnUse"><stop offset="0.13" stop-color="#d8d8d8"/><stop offset="0.13" stop-color="#f0f0f0"/><stop offset="0.47" stop-color="#f0f0f0"/><stop offset="0.48" stop-color="#d8d8d8"/><stop offset="0.77" stop-color="#d8d8d8"/><stop offset="0.77" stop-color="#cdcdcd"/></linearGradient><linearGradient id="Áåçûìÿííûé_ãðàäèåíò_3-2" x1="-6684.03" y1="26.9" x2="-6683.83" y2="27.26" xlink:href="#Áåçûìÿííûé_ãðàäèåíò_3"/><linearGradient id="Áåçûìÿííûé_ãðàäèåíò_2-2" x1="-6684.32" y1="27.02" x2="-6684.09" y2="27.44" xlink:href="#Áåçûìÿííûé_ãðàäèåíò_2"/></defs><g class="cls-1"><g id="Layer_2" data-name="Layer 2"><g id="Capa_1" data-name="Capa 1"><path class="cls-2" d="M47,16.2a15.82,15.82,0,0,0-6.88-1.45,16.1,16.1,0,0,0-2,.11,16.29,16.29,0,0,0-2.47.55,8.71,8.71,0,0,0-2.39,1.07,8.11,8.11,0,0,0-1.45,1.16,3.79,3.79,0,0,0-.49.63c0,.05-.32.62-.33.62L23.69,18l-1.33-1.6c.55-.19,1.14-.37,1.74-.55.2-.06.41-.11.58-.18,1.38-.52,1.05-1.37-.07-1.79a4.36,4.36,0,0,0-1.09-.26h-.05a13.62,13.62,0,0,0-6.35,1.08c-.63.32-1,.69-.78,1s.59.36.6.6a.94.94,0,0,1-.33.73c-.26.25-.54.58-.35.83a.68.68,0,0,0,.12.12,1.59,1.59,0,0,0,.6.2,4.38,4.38,0,0,0,1.2,0,5.12,5.12,0,0,0,2.49-1.11h0l1,1.17-.14,0-.05,0-12.18,8L7.46,24.8c.13-.09.15-.16.06-.22h0l.16,0a1.49,1.49,0,0,0,.62-.11c.4-.19.42-.53,0-.77a1.75,1.75,0,0,0-1-.19l-6.43.38H.77A1.3,1.3,0,0,0,.31,24a.56.56,0,0,0-.17.11l-.06.05a.34.34,0,0,0-.07.15c0,.15,0,.32.27.45h0a1.57,1.57,0,0,0,.9.19h0l2.6-.15.06,0,.1,0s0,0,.06,0l.16.05h0a.1.1,0,0,0,0,.1l.32.17a.85.85,0,0,0,.41.09l4.5,3.77c-.12.09-.13.16-.06.21l.13.07a.54.54,0,0,0-.2.14c-.07.06,0,.13,0,.19a.82.82,0,0,0,.09.19.52.52,0,0,0,.33.23.67.67,0,0,0,.37,0l.14,0,.56.62a9.13,9.13,0,0,0-1.17.59C6,33.49,6.62,37,11,39.17a15.11,15.11,0,0,0,5.2,1.39c.5,0,1,.07,1.47.07a14.57,14.57,0,0,0,3.54-.36,10.14,10.14,0,0,0,2.93-1.16c3.63-2.22,3-5.77-1.43-7.9a15.8,15.8,0,0,0-6.87-1.45q-.8,0-1.56.06l-.22-.19c.35-.11.21-.23.08-.34a1.6,1.6,0,0,0-.72-.37l-.14,0a4.18,4.18,0,0,0-.66-.07.05.05,0,0,0,0,0l-.21-.12-.08-.05a1.69,1.69,0,0,0-.39-.05l-.31-.27,20.31-2.41a2.24,2.24,0,0,0,.81.47l.36.12a5.17,5.17,0,0,0,1.11.14l.21.11h.33l.22-.1.25.07.33,0,.29-.15.2,0,.33,0-.29,0,.29,0,.14-.15.24-.08.07,0,.32,0v-.09l.21-.08a1.79,1.79,0,0,0,.68-.4,1.29,1.29,0,0,0,.16-.17c.31.05.64.1,1,.13a15.87,15.87,0,0,0,3.65,0,14.33,14.33,0,0,0,2.66-.35,10,10,0,0,0,2.93-1.16C52.06,21.88,51.42,18.33,47,16.2ZM25,23.88h-.45l1-.05Zm-1.1.24h0ZM23.29,24a.91.91,0,0,1,.28-.09h0l-.29.17-.15.09a0,0,0,0,1,0,0,1.54,1.54,0,0,1-.28.09Zm1.75.15a2.65,2.65,0,0,1,.4,0h0l-1,.05Q24.74,24.21,25,24.19Zm1.42-.41h0l-.08,0Zm.23-.15h0l.46-.05.07,0-.07,0-.46.05ZM44,24.77,41.11,22l.41-.49,0,0,4.55,2.19a6.76,6.76,0,0,1-.65.46A8.39,8.39,0,0,1,44,24.77Zm-4.43-1.45-.81,1-.23.27-.63-.2.45-1L40,22.07l.14.53Zm.7-.34L40.79,25a14,14,0,0,1-1.93-.37l.15-.18.83-1ZM35.2,16.43l.09-.05,3.29,3.21a2,2,0,0,0-.39.13h-.08L33.8,17.64l0,0,4.16,2-1.16-.13-3.46-1.1s0,0,0,.05l3.23,1-.45-.05-3-.35A4.1,4.1,0,0,1,35.2,16.43Zm2.16,7.75.82-.65-.37.82ZM44,16.67h0L40.8,19.46a2.38,2.38,0,0,0-.57.15l-.13,0,1.71-3.71A12.1,12.1,0,0,1,44,16.67Zm-1.22,3.74a.12.12,0,0,1,.08.09h-.21l0-.05a.1.1,0,0,1,.06-.05Zm0,.33-.25,0a.34.34,0,0,0,.14-.18h.22l0,.09A.83.83,0,0,1,42.78,20.74Zm-.3.24-.4-.07.1,0a1.26,1.26,0,0,0,.31-.14l.27,0a1.08,1.08,0,0,1-.2.16Zm-7.4,1.95L35,22.85l0,0,1.43-.73-.49.39Zm7.09-3.28.17.06c.09,0,.12.1.08.15l-.09,0-.18-.07a1.14,1.14,0,0,0-.25-.06Zm-3.89,1h0l-.18,0,0-.07Zm0,.05-.08.07,0-.05Zm1.64.4s0,0,0,0L40,21h.08l-.16.13ZM38,20.93l-.22.17L34.3,22.26l0,0,3.31-1.11-.88.7-.13.1L35,22.83a6,6,0,0,1-1.05-1l4-.91Zm3.68-1.41a2.47,2.47,0,0,1,.47.11l-.31.1a1.93,1.93,0,0,0-.48,0h-.15l.43-.22Zm-4,1,0,.05-4.35.28,0,0,4.34-.28.07.09-4.2.59a.05.05,0,0,0,0,0l4.2-.59.11.1-4,.9a0,0,0,0,0,0,0,3.85,3.85,0,0,1-.7-1.32l4,0Zm2,.79-.58.46.21-.46Zm2.24-.26a.05.05,0,0,1,0-.05l.07-.08,0,0h0l.43.07-.26.1-.16,0A.17.17,0,0,1,41.89,21.09Zm-.4-1.58-.46.24a.24.24,0,0,1-.16-.08.09.09,0,0,1,0-.11l.1,0,.18,0h.3Zm-1.84.1.3.06-.06.14,0,0a1.15,1.15,0,0,0-.32,0l0-.21Zm-6.21.33-.36,0v0l1,.08.77.12,2.14.31-3.79,0a3.45,3.45,0,0,1-.11-.54Zm3.1,3.88-.57-.3.75-.6-.72.61.07,0,2.28-1.94,0,0,.59-.28.2,0-.27.59ZM42.88,21a1.12,1.12,0,0,0,.2-.17l4.49.39a3.41,3.41,0,0,1-.15.69L42.74,21Zm.37-.69L47.44,20a5,5,0,0,1,.12.53l-4.31,0A.41.41,0,0,0,43.25,20.28Zm0,0a1.19,1.19,0,0,0-.12-.22l4.09-.57a3.38,3.38,0,0,1,.22.52ZM43.09,20a1.07,1.07,0,0,0-.22-.2l4-.9a4.87,4.87,0,0,1,.32.52Zm-.27-.22a.69.69,0,0,0-.17-.1l-.23-.1,3.91-1.32a5.93,5.93,0,0,1,.53.61Zm-.47-.22a2.71,2.71,0,0,0-.58-.12l3.73-1.89a6.8,6.8,0,0,1,.8.68Zm-.68-.13c-.11,0-.22,0-.32,0a2.75,2.75,0,0,0-.41,0l3.19-2.72a10.22,10.22,0,0,1,1.32.78ZM40,19.56a2.41,2.41,0,0,0-.54,0L38.39,15.4a13.16,13.16,0,0,1,3.32.43Zm-.62,0,.06.21h-.31l-.19,0a.1.1,0,0,1-.06,0,.07.07,0,0,1,0-.1l.1,0,.17,0h.19ZM34.75,26h-.08a.85.85,0,0,1-.23,0,1.31,1.31,0,0,1-.41-.13.82.82,0,0,1-.23-.13,0,0,0,0,1,0,0l.83-.1.18.35S34.79,26,34.75,26Zm5.36-4,.09-.08.42-.33.21.2-.42.5-.17.21Zm.58-.46.37-.3h.09l.09,0-.07.09-.29.35Zm5.45,2.05-4.56-2.2.11-.13h.21l5,1.58A4.6,4.6,0,0,1,46.14,23.59Zm.79-.81L42,21.23a2.5,2.5,0,0,0,.64-.17l4.72.86A3.47,3.47,0,0,1,46.93,22.78Zm.64-1.63-4.46-.38a.63.63,0,0,0,.13-.24l4.32,0A2.92,2.92,0,0,1,47.57,21.15ZM38.29,15.4l1.07,4.11h0a3.82,3.82,0,0,0-.68.06l-3.3-3.23a8.14,8.14,0,0,1,2.21-.86,2.47,2.47,0,0,1,.29-.06Zm-4.58,8.15-.27.16-8.8-5.05,6.45.76C30.87,20.86,31.74,22.34,33.71,23.55Zm.42,2.67a2.22,2.22,0,0,1-.66-.26l0,0a.85.85,0,0,0,.22.09,3,3,0,0,0,.91.16c.07,0,.14,0,.14.08s0,0,0,0A3.56,3.56,0,0,1,34.13,26.22Zm1.28-.34-.17-.39h0l.18,0h0l0,0,.26,0,.1-.07H36a.3.3,0,0,1,.15.06s0,0,0,.08l-.08.13a.38.38,0,0,1-.11.11.85.85,0,0,1-.33.16l-.1,0A.1.1,0,0,1,35.41,25.88Zm.38.3s0-.08.06-.1A1.6,1.6,0,0,0,36.2,26a1.81,1.81,0,0,0,.38-.26,1,1,0,0,1-.32.28,1.94,1.94,0,0,1-.46.2A0,0,0,0,0,35.79,26.18Zm5.32-1.11-.21,0-.56-2.17.38-.46.34-.41,2.85,2.79c-.28.09-.56.17-.85.24l-.37.07A9.42,9.42,0,0,1,41.11,25.07ZM32.66,26l0,.07-.2-.11Zm.61.3h0ZM18.54,35.75l-.26,0a.43.43,0,0,0,.13-.14l.11-.05h.13l0,.09A.75.75,0,0,1,18.54,35.75Zm-.31.24-.39-.07.1,0a.83.83,0,0,0,.3-.14l.27,0a.83.83,0,0,1-.2.16Zm-4,0L14.12,36l.18-.06.13.06-.16.09Zm-.36-.3.18,0,.08.07-.19,0Zm-.11-.3v0l.19,0v.08h-.19A.43.43,0,0,0,13.77,35.43Zm2.46.44.06,0,.14,0a.13.13,0,0,1,.05.06l-.05,0Zm-2.42-.64.1,0s.06,0,.06.08v0h-.2v-.06S13.79,35.25,13.81,35.23Zm.16.28a.14.14,0,0,0,0,.07H13.8s0-.05,0-.08Zm0,.1,0,.06-.18,0a.25.25,0,0,1,0-.07Zm.18.2.08,0-.19.06L14,35.85Zm1.76.18L16,36l.2.09-.14.06L15.88,36Zm2.63-.48.05,0a.05.05,0,0,1,0,0Zm-4.18.59h0l-.06,0,.16-.08s0,.09,0,.12h0Zm1.27.1,0-.09a.08.08,0,0,1,0,0,.08.08,0,0,1,.06,0l.06,0,.17.16,0,0-.16,0A.16.16,0,0,1,15.66,36.2Zm2-.09a.08.08,0,0,1,0-.13l.06,0h0l.42.07-.26.1-.16,0Zm-1.57-1.52v0h0l-.13-.15.18-.39.32.36.08.1A3,3,0,0,0,16.07,34.59Zm0-.66-.18.39-.9-1h0l-.1-.12-.24-.9,1,1.14Zm-4.76-2.67c.47.54,1,1.14,1.46,1.68l-1.63-1.59Zm-.24.14,2.32,2.26.05.06c.38.44.64.75.68.78a.45.45,0,0,1,.1.14h0l-.29.11-4.36-2.1,0,0,4.33,2.09-.06,0-.15.1L9.06,33.47s0,0,0,.05L13.59,35a.75.75,0,0,0-.14.17l-4.61-.84a.08.08,0,0,0,0,0l4.61.84a.58.58,0,0,0,0,.14l-4.56-.39s0,0,0,0l4.55.39a.48.48,0,0,0,0,.12l-4.46,0c-.4-1.43.25-2.91,2-4Zm2.35,4.11a.76.76,0,0,0,0,.11L9.1,35.9v0l4.34-.28a.86.86,0,0,1,.07.1l-4.2.59,0,0,4.21-.59.1.1-4,.91h0a4,4,0,0,1-.7-1.32Zm.29.4.12.1-3.75,1.26,0,0L13.86,36l.14.08.06,0L10.7,37.85a6.34,6.34,0,0,1-1-1Zm-2.94,2,3.38-1.71.3.1-2.67,2.27.06,0,2.7-2.29.42.07-1.38,3a12.63,12.63,0,0,1-1.2-.5,8.81,8.81,0,0,1-1.64-1ZM15,36.36a2.34,2.34,0,0,0,.46,0h.08l1,3.7a13.29,13.29,0,0,1-2.9-.66Zm1.62,3.7-1-3.72.37-.05,3.67,3.57a8.34,8.34,0,0,1-2.87.23Zm3.16-.23,0,0c-.14-.07-.27-.27-.39-.38l-.71-.69L17,37.11l-.87-.84.27-.09a2.64,2.64,0,0,0,.49.08l5.22,2.52.09,0-5.16-2.49a3.2,3.2,0,0,0,.44,0h.15L23.07,38l.08,0-5.36-1.7a2.14,2.14,0,0,0,.65-.17l5.44,1,.06,0L18.5,36l.13-.06a1.16,1.16,0,0,0,.2-.16l5.11.43,0,0-5.12-.44a.62.62,0,0,0,.14-.23l5.05,0,0,0-5.06,0a.41.41,0,0,0,0-.22L24,35v0l-5,.32a.6.6,0,0,0-.12-.22l4.83-.68,0,0L18.85,35a1,1,0,0,0-.22-.19l4.7-1.06,0,0-4.7,1.06-.17-.1V34.5l4.23-1.42-.08,0-4.15,1.4v0l-.25-.3,3.56-1.81h-.09l-3.51,1.78-.43-.48,2.51-2.14h-.1l-2.45,2.08-.34-.38-.52-.6.86-1.88h-.11l-.83,1.8c-.72-.82-1.49-1.69-2-2.2a13.06,13.06,0,0,1,6.39,1.24A9.35,9.35,0,0,1,23,32.7a4.58,4.58,0,0,1,1.59,2.37,3,3,0,0,1-.46,2.4,4.51,4.51,0,0,1-1,1.07,7.83,7.83,0,0,1-.72.57,4.21,4.21,0,0,1-1.42.45C20.78,39.6,19.83,39.85,19.82,39.83ZM14.48,32.1l.24.91c-.7-.79-1.51-1.71-2.07-2.33l.48-.14Zm-1.93-2-.33.09L12,30l-.28-.26h0s0,0,0-.05l-.06-.1s-.06-.13.15-.08a.36.36,0,0,1,.11.06,1.8,1.8,0,0,1,.2.18c.07.06.11.11.36.12h0c.05.07.12.14.2.23Zm-2.21-2.89,12.47-8.16L32,24.36a1.24,1.24,0,0,0-.28.19l0,0-.95-.19a21.35,21.35,0,0,1-2.37-.55.85.85,0,0,0-.38-.12,1.21,1.21,0,0,0-.34.05l-.17,0-.26,0a.25.25,0,0,0-.12,0h0l.38,0,.07,0,.14-.09h0l-.34-.16h0l-1.08.05-.47,0-2,.1h-.05l-.37,0a2.23,2.23,0,0,0-.62.18l-.53.32-.17.11h0c-.06.05-.07.08,0,.11h0l.34.16h0a1.1,1.1,0,0,0,.42,0l3.59-.19.21-.13h0l-.21-.1.14-.08h.06l.63,0h0l.1,0h.31a15.29,15.29,0,0,1,2.07.44l1.89.48a1.66,1.66,0,0,0,.06.16l0,.11L10.92,27.71ZM37.67,25.6a.6.6,0,0,1-.14.13l-.1-.14.32-.17h.06Z"/><path d="M34.71,16.71v.36h0c0,.07,0,.14.15.2l1.67,1,.21-.12h0V17.9l.42-.24.19-.11.24.08.06,0,.14-.08h0v-.36l-.2.11-.24-.08-.06,0v.07l0-.23-.22-.13-.86-.49-.11.18c-.06,0,0-.07-.07-.08l0-.18a.62.62,0,0,0-.67,0l-.42.25-.18.08.12.25Zm1.24.11-.19.06v.06l-.35-.08-.17.11.15.18L35,16.91l.1-.05h0l.44-.25a.3.3,0,0,1,.19,0h0a.38.38,0,0,1,.15.05h0C36,16.68,36,16.77,36,16.82Zm1.18.49-.25.15c-.15,0-.22-.15-.36-.23l0,.1c.07-.07,0-.13-.06-.14s-.24-.11-.27-.2l0,0c0-.09,0-.09.09-.15h0l0,0,.46.27h0l.42.23Zm-.7.5-.83-.53a1.07,1.07,0,0,1,.25,0h0a1.08,1.08,0,0,1,.3.11.63.63,0,0,1,.17.14h0A.27.27,0,0,1,36.43,17.81Z"/><path d="M34.71,16.71h0a.26.26,0,0,0,.14.19h0l.08,0,.38.22h0l.19.11.92.53.1.06.21-.12-.14-.14.28-.16h0l.25-.15.15-.09.07,0,.24.08.2-.11-.5-.29-.23-.13-.92-.54h0a.68.68,0,0,0-.2-.07.57.57,0,0,0-.41.05l-.51.29-.15.09h0A.19.19,0,0,0,34.71,16.71ZM36,16.46l0,0-.16.09h0l-.28.16-.15.08h0a.3.3,0,0,1-.19,0,.27.27,0,0,1-.12,0l0,0h0c-.11-.06-.12-.14,0-.2h0l.18-.11.44-.25a.32.32,0,0,1,.2,0,.38.38,0,0,1,.15.05h0C36,16.32,36,16.41,36,16.46Zm1.32.58a.65.65,0,0,1-.21.06h-.18l-.18,0a1.33,1.33,0,0,1-.28-.1l0,0a.84.84,0,0,1-.17-.13.42.42,0,0,1-.08-.12.17.17,0,0,1,0-.14.15.15,0,0,1,.08-.1l0,0,.47.28.42.24Zm-.85.29a.2.2,0,0,1,0,.13.19.19,0,0,1-.09.11h0l-.45-.26-.39-.23L35.3,17a.52.52,0,0,1,.2-.06h.26l.09,0a1,1,0,0,1,.29.11h0a.94.94,0,0,1,.18.14.37.37,0,0,1,.07.12Z"/><path class="cls-3" d="M37.41,17.57l-.3-.16h0s-.06,0-.1,0a.41.41,0,0,0-.16.31.16.16,0,0,0,.06.13l.3.16v0h0a.38.38,0,0,0,.16-.31.19.19,0,0,0,0-.08Z"/><path class="cls-4" d="M37.45,17.69a.38.38,0,0,1-.16.31c-.09.05-.16,0-.16-.12a.38.38,0,0,1,.16-.31C37.38,17.52,37.45,17.57,37.45,17.69Z"/><path class="cls-5" d="M37.66,17.76l-.26-.14h0a.08.08,0,0,0-.08,0,.31.31,0,0,0-.14.26.14.14,0,0,0,0,.12l.26.14v0h0a.33.33,0,0,0,.14-.27s0,0,0-.06Z"/><path class="cls-6" d="M37.7,17.86a.33.33,0,0,1-.14.27c-.08,0-.14,0-.14-.11a.31.31,0,0,1,.14-.26C37.64,17.71,37.7,17.76,37.7,17.86Z"/><path class="cls-7" d="M38.88,21.39a3.44,3.44,0,0,1,.15.55,1,1,0,0,1,0,.48.22.22,0,0,1,0,.11.14.14,0,0,1-.15,0,.28.28,0,0,1-.1-.12,3.24,3.24,0,0,1-.27-.67c-.21-.74-.42-1.49-.62-2.24a4.91,4.91,0,0,0-.49-1.36c0-.06-.11-.12-.1-.2a.11.11,0,0,1,0-.07.35.35,0,0,1,.18-.16.22.22,0,0,1,.22.05c.07.08,0,.2.06.3a8.34,8.34,0,0,0,.51,1.63,9.88,9.88,0,0,1,.39,1C38.74,20.94,38.81,21.16,38.88,21.39Z"/><path class="cls-8" d="M39,21.41a4.94,4.94,0,0,1,.15.55,1,1,0,0,1,0,.49.19.19,0,0,1,0,.1.14.14,0,0,1-.15,0,.26.26,0,0,1-.11-.12,3.21,3.21,0,0,1-.26-.67L38,19.53a5.23,5.23,0,0,0-.48-1.36c0-.06-.12-.13-.11-.2l0-.07a.46.46,0,0,1,.18-.16.21.21,0,0,1,.23,0c.07.08,0,.2.06.3a8.65,8.65,0,0,0,.51,1.64c.15.33.27.68.39,1Z"/><polygon class="cls-9" points="39.21 21.23 39.61 21.77 44.53 18.15 46.76 16.52 46.36 15.97 44.12 17.62 39.21 21.23"/><path d="M44.12,17.62a.65.65,0,0,1,.41.53l2.22-1.63L46.36,16Z"/><polygon class="cls-10" points="41.35 7.76 44.82 14.4 46.06 16.77 46.64 16.42 45.42 14.09 41.92 7.41 41.35 7.76"/><path d="M44.82,14.4l1.24,2.38.58-.36-1.22-2.33A.63.63,0,0,1,44.82,14.4Z"/><polygon class="cls-11" points="39.39 22.83 39.74 21.76 27.62 17.06 27.27 18.13 39.39 22.83"/><path d="M40.54,20c0,2.59.85,4.41,2.21,5.2l.67.4.07-.08a4.53,4.53,0,0,0,3.5-.65c3.56-2.05,6.44-7.57,6.44-12.32,0-2.07-.42-3.58-1.34-4.54l-.15-.11a4.27,4.27,0,0,0-4.33-.54,4.57,4.57,0,0,0-.62.32C43.42,9.7,40.54,15.22,40.54,20Zm1.27.1c0-4.48,2.71-9.7,6-11.63.77-.44,1-.77,1.69-.77,1.87,0,3.09,1.9,3.09,4.85,0,4.49-2.72,9.71-6,11.64a4.43,4.43,0,0,1-2.17.66,2.54,2.54,0,0,1-2.15-1.16C41.66,22.79,41.81,21.62,41.81,20.07Z"/><path class="cls-12" d="M41.11,20.23A6.4,6.4,0,0,0,41.87,24,2.58,2.58,0,0,0,44,25.27a4.58,4.58,0,0,0,2.25-.69c3.46-2,6.29-7.43,6.29-12.09,0-3.07-1.27-5-3.22-5-.69,0-1.17.6-2,1.06C43.9,10.5,41.11,15.57,41.11,20.23Zm.52,0c0-4.33,2.69-9.54,5.88-11.38a3.8,3.8,0,0,1,1.83-.58c1.45,0,2.39,1.66,2.39,4.22,0,4.32-2.69,9.53-5.88,11.37a3.75,3.75,0,0,1-1.83.59,1.81,1.81,0,0,1-1.56-.86A5.91,5.91,0,0,1,41.63,20.23Z"/><path d="M40.92,20.29c0,4.75,2.89,6.94,6.45,4.88s6.45-7.58,6.45-12.32S50.93,5.91,47.37,8,40.92,15.54,40.92,20.29Zm.8,0c0-4.49,2.71-9.7,6.05-11.63a4.24,4.24,0,0,1,2.15-.59c1.88,0,3.1,1.83,3.1,4.78,0,4.48-2.71,9.7-6.05,11.63a4.38,4.38,0,0,1-2.16.67A2.51,2.51,0,0,1,42.66,24,6.37,6.37,0,0,1,41.72,20.29Z"/><path class="cls-12" d="M41.64,20.56a6.71,6.71,0,0,0,1,3.84,2.64,2.64,0,0,0,2.24,1.2,4.58,4.58,0,0,0,2.25-.69c3.46-2,6.29-7.43,6.29-12.09,0-3.07-1.27-5.05-3.22-5.05a4.54,4.54,0,0,0-2.24.7C44.46,10.47,41.64,15.89,41.64,20.56Zm.59.07c-.37-4.31,2.7-10,5.89-11.84a4.28,4.28,0,0,1,2-.52c1.45,0,2.4,2,2.4,4.55,0,4.32-2.69,9.53-5.88,11.37a3.72,3.72,0,0,1-1.83.59A2.07,2.07,0,0,1,43.12,24,6.18,6.18,0,0,1,42.23,20.63Z"/><path d="M41.51,20.46a6.65,6.65,0,0,0,1,3.83,2.62,2.62,0,0,0,2.24,1.21A4.52,4.52,0,0,0,47,24.81c3.47-2,6.29-7.43,6.29-12.09,0-3.07-1.26-5.05-3.21-5.05a4.58,4.58,0,0,0-2.25.69C44.34,10.37,41.51,15.79,41.51,20.46Zm.83,0c0-4.33,2.69-9.54,5.88-11.38a3.8,3.8,0,0,1,1.83-.58c1.45,0,2.39,1.65,2.39,4.22,0,4.32-2.69,9.53-5.88,11.37a3.73,3.73,0,0,1-1.83.58,1.79,1.79,0,0,1-1.56-.86A5.85,5.85,0,0,1,42.34,20.46Z"/><path d="M45.43,17c0,.59.27.93.65.91a.83.83,0,0,0,.42-.08,2.16,2.16,0,0,0,.73-.79,2.63,2.63,0,0,0,.35-1.23c0-.77-.54-1.13-1.12-.79A2.49,2.49,0,0,0,45.43,17Zm1.73-1.16a.42.42,0,0,0-.27-.41l-.1,0c-.06,0-.08-.12,0-.22a.4.4,0,0,1,.11-.14.09.09,0,0,1,.07,0l.09,0a.49.49,0,0,1,.29.24.85.85,0,0,1,.11.34l0,.18a.34.34,0,0,1-.1.26s0,0,0,0-.12,0-.13-.08Zm-1.22,1.79a.29.29,0,0,1,.11-.18h.19a.77.77,0,0,0,.51-.33l.1-.13c.06-.07.13-.09.16,0h0A.19.19,0,0,1,47,17a.37.37,0,0,1-.07.2l-.1.12a1.54,1.54,0,0,1-.41.37.63.63,0,0,1-.31.1H46a0,0,0,0,1,0,0A.18.18,0,0,1,45.94,17.62Zm-.37-.5v-.2a1.84,1.84,0,0,1,.1-.56,3.17,3.17,0,0,1,.21-.41L46,15.7c.05-.09.06-.18.11-.13a.12.12,0,0,1,0,.09.33.33,0,0,1,0,.16L46,16a1.53,1.53,0,0,0-.23.73v.15a.32.32,0,0,1-.14.25C45.55,17.18,45.57,17.21,45.57,17.12Z"/><path d="M46.57,15.07a2.49,2.49,0,0,0-1,2c0,.77.46,1.12,1,.79a2.47,2.47,0,0,0,1-2C47.61,15.09,47.15,14.73,46.57,15.07ZM45.86,17a.31.31,0,0,1-.13.25c-.07,0-.13,0-.13-.1h0v-.16a1.86,1.86,0,0,1,.11-.6,3.55,3.55,0,0,1,.21-.44l.12-.19c.05-.09.13-.13.18-.08a.12.12,0,0,1,0,.09.33.33,0,0,1,0,.16l-.12.19a1.6,1.6,0,0,0-.23.74Zm1.22.3-.1.12a1.54,1.54,0,0,1-.41.37.63.63,0,0,1-.31.1h-.14c-.07,0-.1-.07-.07-.18a.27.27,0,0,1,.12-.18h.18a.77.77,0,0,0,.51-.33L47,17c.06-.08.14-.09.17,0a.19.19,0,0,1,0,.07A.4.4,0,0,1,47.08,17.26Zm.37-1.13h0c-.07,0-.12,0-.13-.07l0-.18a.42.42,0,0,0-.27-.41l-.1,0c-.06,0-.08-.12,0-.22A.33.33,0,0,1,47,15.1s.05,0,.07,0l.1,0a.5.5,0,0,1,.28.24.85.85,0,0,1,.11.34l0,.18A.32.32,0,0,1,47.45,16.13Z"/><path d="M46.52,10.42v13.3h.06V10.36Z"/><path d="M44.55,24.54h.05l1.88-7.74,0-.16v0h0v0h0v0h0l0-.1L48.37,9,48.3,9l-1.72,7.11,0,.2v.14h0v0h0v.07l0,.06v0l-.06.26Z"/><path d="M43.06,23.66l0,.06,3.26-6.67.12-.24,0-.09v0l0,0v0h0l0,0h0v0l0-.05.08-.16L50.49,8.6l-.05,0-3.86,7.9h0l0,0h0l0,0h0l0,0,0,.06,0,.08Z"/><path d="M46.34,16.77,42.41,21.6s0,.06,0,.08l4-4.93,0,0,.06-.06h0l0,0h.05l0,0h0l0,0,.07-.08,5-6.13-.05,0-4.92,6-.15.19h0l0,0h-.07l0,0h0l0,0Z"/><path d="M42.36,19.86l4-3.09.11-.08,0,0,0,0h.09l.06,0,.12-.09,5.3-4.11,0-.05-5.35,4.15-.06,0-.07.06,0,0h-.12l-.09.07-4,3.09Z"/><polygon points="42.52 18.46 46.35 16.69 46.44 16.64 46.46 16.64 46.51 16.62 46.51 16.62 46.51 16.61 46.52 16.61 46.52 16.61 46.52 16.61 46.53 16.61 46.53 16.6 46.54 16.6 46.56 16.59 46.56 16.59 46.56 16.59 46.57 16.59 46.58 16.58 46.58 16.58 46.59 16.58 46.59 16.58 46.59 16.58 46.59 16.58 46.62 16.56 46.63 16.56 46.78 16.49 51.99 14.08 51.97 14.03 46.79 16.42 46.64 16.49 46.63 16.5 46.58 16.52 46.56 16.53 46.56 16.53 46.55 16.53 46.55 16.53 46.55 16.54 46.55 16.54 46.54 16.54 46.54 16.54 46.53 16.54 46.53 16.54 46.52 16.55 46.52 16.55 46.51 16.55 46.51 16.55 46.49 16.56 46.49 16.56 46.48 16.57 46.48 16.57 46.47 16.57 46.45 16.58 46.38 16.61 46.31 16.64 42.53 18.39 42.52 18.46"/><path d="M42.74,17.38l3.57-.73.13,0h.26l5-1,0,0-4.91,1-.11,0H46.4l-.2,0-3.44.71S42.75,17.36,42.74,17.38Z"/><path d="M43,16.52l3.22.09h.67l4.54.12v-.06l-4.72-.13h-.34L43,16.47S43,16.5,43,16.52Z"/><path d="M43.25,15.75l3.11.8,0,0h.25l.1,0L51,17.76l0-.05-4.19-1.08-.21-.06h-.19l0,0-.14,0-3-.77A.43.43,0,0,0,43.25,15.75Z"/><path d="M43.53,15l2.75,1.43.15.09h.15l0,0,0,0,.11.06,3.87,2,0-.05-3.9-2.05-.07,0-.07,0h-.12l0,0-.11-.05L43.55,15A.14.14,0,0,0,43.53,15Z"/><path d="M43.85,14.3l2.5,2.15.07.06,0,0h0l0,0h.06l0,0h0l.05,0,.09.08,3.4,2.92,0,0-3.4-2.92-.11-.1h0l0,0h-.07l0,0h0l-.1-.09-2.5-2.15Z"/><path d="M44.26,13.51l2.12,2.89.08.1v0h.07l0,0,0,0h0l.09.13,2.81,3.82,0,0-2.81-3.83-.07-.1,0-.05,0,0h0v0h0l0,0,0,0v0l-.06-.08-2.14-2.92Z"/><path d="M44.81,12.59l1.62,3.78,0,.12v0h0v0h0v0l0,.05,0,.07,2.15,5,.05,0-2.13-5,0-.12,0,0v0h0v0h0v0h0l0-.06v0l0-.12-1.62-3.77Z"/><path d="M45.6,11.46l.86,4.84,0,.15v0h0v0h0v0h0v.06l0,.25,1.05,5.9h.06l-1.08-6.06,0-.1v-.05h0v0h0v0h0v0h0v0h0l0-.14V16.3l-.87-4.9Z"/><path class="cls-4" d="M47.74,16.59l-.92-.53,0,0h0a.23.23,0,0,0-.21,0,.81.81,0,0,0-.35.66.3.3,0,0,0,.13.29l.93.53v-.07l.07,0a.82.82,0,0,0,.34-.66.88.88,0,0,0,0-.17Z"/><path d="M47.84,16.86a.83.83,0,0,1-.34.66c-.2.11-.35,0-.35-.26a.82.82,0,0,1,.35-.67C47.69,16.48,47.84,16.6,47.84,16.86Z"/><path d="M46.34,17.55c0,.58.28.93.66.91a1.11,1.11,0,0,0,.42-.08,2.11,2.11,0,0,0,.73-.8,2.63,2.63,0,0,0,.35-1.23c0-.77-.54-1.12-1.12-.79A2.5,2.5,0,0,0,46.34,17.55Zm1.74-1.17a.42.42,0,0,0-.28-.4l-.09,0c-.06,0-.08-.11,0-.21a.37.37,0,0,1,.11-.15h.07l.09,0a.47.47,0,0,1,.29.23,1.13,1.13,0,0,1,.11.34l0,.19a.34.34,0,0,1-.11.26h0c-.06,0-.11,0-.12-.07Zm-1.23,1.8A.3.3,0,0,1,47,18L47,18h.14a.77.77,0,0,0,.51-.33l.1-.13c0-.07.13-.09.16,0v0a.15.15,0,0,1,0,.07.35.35,0,0,1-.06.19l-.1.13a1.54,1.54,0,0,1-.41.37.75.75,0,0,1-.31.1h-.14l0,0A.16.16,0,0,1,46.85,18.18Zm-.36-.5v-.21a1.62,1.62,0,0,1,.1-.56,1.77,1.77,0,0,1,.21-.41l.13-.24c0-.09.06-.18.1-.13a.12.12,0,0,1,0,.09.32.32,0,0,1,0,.16l-.12.19a1.6,1.6,0,0,0-.23.74v.15a.33.33,0,0,1-.14.24C46.46,17.74,46.49,17.77,46.49,17.68Z"/><path d="M47.49,15.62a2.5,2.5,0,0,0-1,2c0,.76.47,1.11,1,.78a2.47,2.47,0,0,0,1-2C48.53,15.64,48.07,15.29,47.49,15.62Zm-.71,1.9a.35.35,0,0,1-.14.24c-.07,0-.12,0-.12-.1h0V17.5a2.2,2.2,0,0,1,.12-.6,1.78,1.78,0,0,1,.21-.44l.11-.2c.06-.09.14-.12.19-.08a.16.16,0,0,1,0,.1.32.32,0,0,1,0,.16l-.12.19a1.6,1.6,0,0,0-.23.74Zm1.22.29-.1.13a1.74,1.74,0,0,1-.41.37.75.75,0,0,1-.31.1H47c-.07,0-.1-.08-.08-.18a.28.28,0,0,1,.13-.18l0,0h.14a.77.77,0,0,0,.51-.33l.1-.12c.06-.09.14-.1.17,0a.14.14,0,0,1,0,.07A.37.37,0,0,1,48,17.81Zm.36-1.12h0c-.06,0-.11,0-.12-.07l0-.19a.43.43,0,0,0-.27-.4l-.1,0c-.06,0-.08-.11,0-.21a.27.27,0,0,1,.11-.14.1.1,0,0,1,.07,0l.09,0a.47.47,0,0,1,.29.23.91.91,0,0,1,.11.34l0,.19A.34.34,0,0,1,48.36,16.69Z"/><polygon class="cls-13" points="41.27 7.62 45.39 14.26 47.33 17.39 47.9 17.04 45.92 13.85 41.85 7.26 41.27 7.62"/><polygon class="cls-14" points="40.21 21.96 40.61 22.5 45.53 18.88 47.75 17.24 47.35 16.7 45.12 18.34 40.21 21.96"/><path d="M45.12,18.34a.66.66,0,0,1,.41.53l2.22-1.63-.39-.54Z"/><path d="M45.39,14.26l1.94,3.13L47.9,17l-2-3.19a.48.48,0,0,1-.29.36A.74.74,0,0,1,45.39,14.26Z"/><path class="cls-15" d="M40.08,22.32,41.9,7.69l1.19-4L42,3.39,40.79,7.48v.07L39,22.25a.57.57,0,0,0,.53.6h0A.56.56,0,0,0,40.08,22.32Z"/><path class="cls-16" d="M39.82,22.32,41.64,7.69l1.19-4L42,3.46l0-.07,1.08.32-1.19,4L40.08,22.32a.56.56,0,0,1-.59.53l-.1,0A.55.55,0,0,0,39.82,22.32Z"/><path class="cls-8" d="M40.78,7.55V7.48L42,3.39l.4.12-1.19,4v.07L39.4,22.25a.56.56,0,0,0,.34.55.53.53,0,0,1-.25.05.57.57,0,0,1-.53-.6Z"/><path class="cls-17" d="M27.56,15.34l13.2-8.18,0,0h0a.29.29,0,0,1,.25,0,1,1,0,0,1,.41.79.35.35,0,0,1-.16.34L28.1,16.47v-.08l-.08,0a1,1,0,0,1-.41-.78.56.56,0,0,1,0-.2Z"/><path class="cls-4" d="M38.73,25a1,1,0,0,1-.52-.14,1.72,1.72,0,0,1-.77-1.5c-.11-1.87,1.32-3,2.87-3.89A28.18,28.18,0,0,1,45,17.3c.87-.31,1.79-.59,2.48-.79l.09.29c-.68.2-1.6.48-2.46.79a27.21,27.21,0,0,0-4.67,2.11c-1.47.86-2.82,1.9-2.72,3.6a1.43,1.43,0,0,0,.61,1.26,1.26,1.26,0,0,0,1.2-.17l7.7-7.06.21.23-7.75,7.1A2.31,2.31,0,0,1,38.73,25Z"/><path d="M37.73,23.7l-.1.42.15.09v0l.09,0,0,.48.15.08v-.14l.14,0,.07.32.16.08,0-.14.2-.1.16.22.16.08-.11-.13.25-.22.27.13.22-.41.3,0L40,24l.29-.14.11-.46.32-.28,0-.41.26-.32-.1-.39.21-.42-.2-.23.16-.44.18,0L41,20.82l-.16,0h0l-.16,0,0-.35.17-.05-.16-.09-.18.06h0l-.14,0,0-.23.13-.1L40.37,20l-.27.2h0l-.07.05L40,20.1,40,20l-.16-.08-.31.38-.12-.09h0l-.15-.09-.25.44h-.31l-.15.47-.34.17-.06.44-.31.31,0,.38-.26.37.1.34-.19.45ZM39,21a.21.21,0,0,1-.06.17,1.2,1.2,0,0,0-.24.26,2.8,2.8,0,0,0-.42.76.14.14,0,0,1-.11.11s-.05-.07,0-.13a3,3,0,0,1,.33-.68,2.53,2.53,0,0,1,.43-.52C39,21,39,21,39,21Zm0,1.36-.53.1s-.06,0-.07-.07a.35.35,0,0,1,0-.13c0-.07.05-.15.08-.23l.09-.19a1.43,1.43,0,0,1,.25-.33.6.6,0,0,1,.19-.17c.06,0,.11,0,.11.08l0,.74C39.18,22.28,39.12,22.38,39.05,22.39Zm.15.53c0-.1.12-.14.16-.09l.33.39s0,.08,0,.13a.63.63,0,0,1-.07.12l-.15.17-.14.12a.61.61,0,0,1-.28.12c-.06,0-.14,0-.18,0s0-.06,0-.15Zm.29-1.77.15,0h.13a.3.3,0,0,1,.21.13.32.32,0,0,1,.1.17.24.24,0,0,1-.06.21l-.53.52c-.07.06-.13,0-.13-.05l0-.73a.22.22,0,0,1,.06-.15A.13.13,0,0,1,39.49,21.15Zm.56-.52a.6.6,0,0,1,.32.29s0,.11,0,.16-.09.07-.11,0a.56.56,0,0,0-.16-.18.61.61,0,0,0-.5-.07s-.07,0-.06-.09a.18.18,0,0,1,.09-.15A.69.69,0,0,1,40.05,20.63ZM40.2,23a2.83,2.83,0,0,0,.16-.36,2.8,2.8,0,0,0,.06-.85.17.17,0,0,1,.07-.16s.08,0,.09,0a2.32,2.32,0,0,1,0,.68,2.9,2.9,0,0,1-.24.7c0,.06-.08.09-.11.07S40.17,23,40.2,23Zm-.66-.44a.23.23,0,0,1,.05-.24,4.46,4.46,0,0,0,.57-.49s0-.1.05-.08,0,.05,0,.09,0,.14,0,.21a1.28,1.28,0,0,1,0,.19,1.48,1.48,0,0,1-.12.41,1,1,0,0,1-.13.28c0,.06-.11.1-.15.05Zm-.78,1.75c0-.07.07-.12.11-.12a.79.79,0,0,0,.25,0,1.61,1.61,0,0,0,.56-.42c0-.05.09-.05.11,0a.17.17,0,0,1,0,.17,1.84,1.84,0,0,1-.48.41.9.9,0,0,1-.47.14S38.74,24.33,38.76,24.27Zm-.33-.63-.07-.12a.84.84,0,0,1-.06-.33,2.64,2.64,0,0,1,0-.28c0-.08.07-.16.13-.17l.52,0c.07,0,.09.08.05.17l-.31.79a.18.18,0,0,1-.1.11s0,0-.07,0Zm-.4.12a2,2,0,0,1-.06-.61.21.21,0,0,1,.1-.15s.07,0,.07.08a1.19,1.19,0,0,0,0,.33,1,1,0,0,0,.24.55.15.15,0,0,1,0,.16c0,.06-.09.09-.12.06A.82.82,0,0,1,38,23.76Z"/><path d="M37.78,24.21l.25.11,0,.47.3-.1.08.31.31-.15.17.21.3-.27.26.13.22-.4.3,0,.17-.5.29-.14.11-.46.33-.29,0-.4.27-.32L41,22.06l.22-.43L41,21.4l.19-.5-.33,0,0-.48-.32.11,0-.42-.34.24L40,20l-.32.39-.26-.19-.24.44h-.32l-.15.47-.33.17-.06.44-.32.31,0,.38-.26.37.11.33-.19.45.18.21Zm.35-1a.15.15,0,0,1,.09-.14s.08,0,.07.08a1.79,1.79,0,0,0,0,.33,1,1,0,0,0,.25.55s0,.1,0,.16-.08.08-.11.06a.91.91,0,0,1-.25-.43,1.72,1.72,0,0,1,0-.61Zm2.32-.14c0,.06-.09.1-.12.08a.13.13,0,0,1,0-.16,2.2,2.2,0,0,0,.13-.36,2.36,2.36,0,0,0,.11-.81.19.19,0,0,1,.07-.16s.09,0,.09,0a2.35,2.35,0,0,1,0,.68A3.29,3.29,0,0,1,40.45,23.09Zm-1.32-1.8a2.89,2.89,0,0,0-.24.25,3,3,0,0,0-.41.77c0,.06-.08.11-.12.1s0-.06,0-.13a3,3,0,0,1,.33-.67,2.08,2.08,0,0,1,.44-.52s.09,0,.09,0A.22.22,0,0,1,39.13,21.29ZM38.48,23c0-.09.07-.16.13-.17l.52-.06c.06,0,.09.08,0,.18l-.32.79a.2.2,0,0,1-.09.11.08.08,0,0,1-.08,0l-.1-.1-.08-.12a1.16,1.16,0,0,1,0-.34A.84.84,0,0,1,38.48,23Zm.15-.62.08-.23.1-.2a1.57,1.57,0,0,1,.24-.32c.06-.06.13-.15.19-.17s.11,0,.11.07v.75a.22.22,0,0,1-.13.2l-.53.09s-.07,0-.07-.06A.2.2,0,0,1,38.63,22.38Zm.72.63c0-.1.12-.14.16-.1l.34.4s0,.07,0,.13a.29.29,0,0,1-.07.12l-.15.16a.86.86,0,0,1-.14.13.66.66,0,0,1-.28.11s-.13,0-.18,0-.06-.09,0-.18Zm.92-1.19a.1.1,0,0,1,.1,0,.15.15,0,0,1,0,.1,1.27,1.27,0,0,1,0,.2.67.67,0,0,1,0,.2,2.28,2.28,0,0,1-.11.41,1.38,1.38,0,0,1-.14.27c0,.07-.11.11-.14.06l-.32-.43a.23.23,0,0,1,.05-.23Zm-.1-.11-.53.52c-.06.06-.13,0-.13-.05v-.73a.27.27,0,0,1,0-.15.18.18,0,0,1,.09-.07l.16,0h.13a.31.31,0,0,1,.2.14.36.36,0,0,1,.11.17A.26.26,0,0,1,40.17,21.71Zm.36-.71a.18.18,0,0,1,0,.17s-.09.06-.11,0a.66.66,0,0,0-.16-.17.63.63,0,0,0-.51-.08s-.07,0-.06-.09a.2.2,0,0,1,.09-.14.69.69,0,0,1,.45,0A.6.6,0,0,1,40.53,21Zm-.62,2.92a1.86,1.86,0,0,1-.48.42,1,1,0,0,1-.47.14c-.05,0-.06-.06,0-.12s.06-.12.1-.12a.74.74,0,0,0,.25,0,1.68,1.68,0,0,0,.57-.42c0-.05.09-.06.11,0A.17.17,0,0,1,39.91,23.92Z"/><path class="cls-7" d="M39.43,23.5a3.69,3.69,0,0,1-.11-.56,1.16,1.16,0,0,1,0-.49.27.27,0,0,1,.06-.1.14.14,0,0,1,.15,0,.26.26,0,0,1,.1.13,3.18,3.18,0,0,1,.22.68c.17.75.33,1.51.49,2.27a5.54,5.54,0,0,0,.4,1.39c0,.06.12.12.1.2a.16.16,0,0,1,0,.07.38.38,0,0,1-.18.15.22.22,0,0,1-.22-.06c-.07-.08,0-.2,0-.31a9,9,0,0,0-.41-1.66c-.13-.34-.23-.69-.33-1Z"/><path class="cls-8" d="M39.51,23.53a3.73,3.73,0,0,1-.12-.56,1,1,0,0,1,0-.49.21.21,0,0,1,.06-.1.14.14,0,0,1,.15,0,.45.45,0,0,1,.1.13,3.61,3.61,0,0,1,.22.68c.17.75.33,1.51.49,2.27a5.15,5.15,0,0,0,.4,1.39c0,.06.11.12.09.2a.15.15,0,0,1,0,.07.47.47,0,0,1-.19.15.23.23,0,0,1-.22-.06.52.52,0,0,1,0-.31A8.25,8.25,0,0,0,40,25.25c-.12-.34-.23-.69-.32-1S39.57,23.75,39.51,23.53Z"/><path class="cls-18" d="M39.69,22.38l-.1-.06h0s-.07,0-.12,0a.5.5,0,0,0-.21.4c0,.09,0,.15.08.17l.1.06v0l0,0a.49.49,0,0,0,.21-.39.3.3,0,0,0,0-.1Z"/><path class="cls-19" d="M39.75,22.54a.52.52,0,0,1-.2.4c-.12.06-.21,0-.21-.16a.47.47,0,0,1,.21-.39C39.66,22.32,39.75,22.39,39.75,22.54Z"/><path d="M39,5.43a.81.81,0,0,0,.51.41c.81.23,1.36-.45,2-.76A8.19,8.19,0,0,1,44,4.45a2.7,2.7,0,0,0,.41-.07A2.58,2.58,0,0,0,46,1.73,1.65,1.65,0,0,0,45.72,1h0l0,0C45-.19,43.2-.18,42.09.32a2.35,2.35,0,0,0-1.22,1.24c-.15.37-.07.74-.27,1.09a3.62,3.62,0,0,1-.78,1A2.7,2.7,0,0,0,39,4.71a.54.54,0,0,0-.05.22A.81.81,0,0,0,39,5.43Z"/><path d="M40.84,2.86a2.86,2.86,0,0,1-.57.68c-.27.25-1,.53-.75,1a.71.71,0,0,0,.57.37.93.93,0,0,0,.23,0,2.09,2.09,0,0,0,1-.47,7.1,7.1,0,0,1,1.22-.87c.74-.43,1.7-.47,2.36-1.07a1.2,1.2,0,0,0,.38-1,1.16,1.16,0,0,0-.86-1A2.6,2.6,0,0,0,42.87.33a2.36,2.36,0,0,0-1.64,1.2c-.12.29-.12.63-.22.94A1.71,1.71,0,0,1,40.84,2.86Z"/><path d="M27.44,15.66a1,1,0,0,0,.41.78c.23.13.42,0,.42-.31a1,1,0,0,0-.42-.79C27.63,15.21,27.44,15.35,27.44,15.66Z"/><path class="cls-20" d="M22.92,29.45a3.06,3.06,0,0,0,.67-1.15c.05-.25,2.31-8.13,2.48-8.89,0,0,0,0,.06,0a1.46,1.46,0,0,0,.46.15h.06a.55.55,0,0,0,.28,0s-.15.73-.15.76c-.05.21-.09.42-.14.64-.11.51-2.27,8.1-2.27,8.1-.08.15-.17.29-.26.43s-.33.54-.51.79a2.23,2.23,0,0,1-.19.24.29.29,0,0,1-.18.13.5.5,0,0,1-.35-.09.41.41,0,0,1-.13-.1.38.38,0,0,1-.09-.13.43.43,0,0,1,0-.35A1.4,1.4,0,0,1,22.92,29.45Z"/><path d="M22.66,30.34a.3.3,0,0,0,.09.13.32.32,0,0,0,.13.1.45.45,0,0,0,.35.09c.08,0,.12-.07.17-.13a2.23,2.23,0,0,0,.19-.24c.19-.26.35-.52.52-.78s.17-.3.26-.44L25,26.84a1,1,0,0,1-.94-.2l-.48,1.67a2.8,2.8,0,0,1-.67,1.15,1.52,1.52,0,0,0-.29.53A.4.4,0,0,0,22.66,30.34Z"/><path d="M17.25,33.63c0,2.59.86,4.41,2.21,5.2l.68.4.07-.08a4.52,4.52,0,0,0,3.49-.65c3.56-2,6.45-7.57,6.45-12.32a6.47,6.47,0,0,0-1.36-4.56L27.91,21a4.12,4.12,0,0,0-4.21.34C20.14,23.36,17.25,28.88,17.25,33.63Zm1.27.1c0-4.48,2.72-9.7,6.05-11.63.77-.44,1-.77,1.69-.77,1.88,0,3.09,1.9,3.09,4.85,0,4.49-2.71,9.71-6.05,11.64a4.36,4.36,0,0,1-2.16.66A2.53,2.53,0,0,1,19,37.32C18.37,36.45,18.52,35.28,18.52,33.73Z"/><path class="cls-12" d="M17.82,33.89a6.37,6.37,0,0,0,.76,3.73,2.59,2.59,0,0,0,2.15,1.31,4.54,4.54,0,0,0,2.24-.7c3.47-2,6.29-7.42,6.29-12.09,0-3.06-1.26-5-3.21-5-.69,0-1.17.59-2,1C20.61,24.15,17.82,29.22,17.82,33.89Zm.52,0c0-4.32,2.69-9.53,5.88-11.37a3.72,3.72,0,0,1,1.83-.59c1.45,0,2.39,1.66,2.39,4.22,0,4.33-2.69,9.54-5.88,11.37a3.75,3.75,0,0,1-1.83.59,1.81,1.81,0,0,1-1.56-.86A5.89,5.89,0,0,1,18.34,33.88Z"/><path d="M17.63,34c0,4.74,2.89,6.93,6.45,4.87s6.45-7.57,6.45-12.32-2.89-6.93-6.45-4.88S17.63,29.2,17.63,34Zm.8,0c0-4.49,2.71-9.71,6.05-11.64a4.22,4.22,0,0,1,2.15-.59c1.88,0,3.1,1.83,3.1,4.78,0,4.49-2.71,9.7-6.05,11.63a4.38,4.38,0,0,1-2.16.67,2.51,2.51,0,0,1-2.15-1.17A6.34,6.34,0,0,1,18.43,34Z"/><path class="cls-12" d="M18.34,34.21a6.69,6.69,0,0,0,1,3.84,2.64,2.64,0,0,0,2.24,1.21,4.6,4.6,0,0,0,2.25-.7c3.46-2,6.29-7.42,6.29-12.09,0-3.06-1.27-5-3.22-5a4.58,4.58,0,0,0-2.25.69C21.17,24.12,18.34,29.55,18.34,34.21Zm.6.07c-.37-4.31,2.7-10,5.89-11.84a4.37,4.37,0,0,1,2-.52c1.44,0,2.4,2,2.4,4.55,0,4.33-2.69,9.54-5.88,11.38a3.8,3.8,0,0,1-1.83.58,2,2,0,0,1-1.73-.81A6.18,6.18,0,0,1,18.94,34.28Z"/><path d="M18.22,34.11a6.65,6.65,0,0,0,1,3.83,2.62,2.62,0,0,0,2.24,1.21,4.52,4.52,0,0,0,2.24-.69C27.15,36.46,30,31,30,26.37c0-3.07-1.26-5.05-3.21-5.05a4.5,4.5,0,0,0-2.25.7C21,24,18.22,29.44,18.22,34.11Zm.83,0c0-4.33,2.69-9.54,5.88-11.38a3.77,3.77,0,0,1,1.83-.58c1.45,0,2.38,1.66,2.38,4.22,0,4.32-2.68,9.53-5.87,11.37a3.73,3.73,0,0,1-1.83.58,1.79,1.79,0,0,1-1.56-.85A5.91,5.91,0,0,1,19.05,34.11Z"/><path d="M22.13,30.64c0,.59.28.93.66.91a.83.83,0,0,0,.42-.08,2,2,0,0,0,.73-.79,2.63,2.63,0,0,0,.35-1.23c0-.77-.54-1.12-1.12-.79A2.5,2.5,0,0,0,22.13,30.64Zm1.74-1.16a.41.41,0,0,0-.28-.4l-.09,0c-.06,0-.08-.11,0-.22a.4.4,0,0,1,.11-.14.09.09,0,0,1,.07,0l.09,0a.49.49,0,0,1,.29.24,1,1,0,0,1,.11.34l0,.18a.31.31,0,0,1-.11.26s0,0,0,0-.11,0-.12-.08Zm-1.23,1.8a.3.3,0,0,1,.12-.18l0,0H23a.77.77,0,0,0,.51-.33l.1-.13c.05-.07.13-.09.16,0h0a.19.19,0,0,1,0,.08.35.35,0,0,1-.06.19l-.1.13a1.49,1.49,0,0,1-.41.36.77.77,0,0,1-.31.11h-.14l0,0A.19.19,0,0,1,22.64,31.28Zm-.36-.51v-.2a1.58,1.58,0,0,1,.1-.56,1.77,1.77,0,0,1,.21-.41l.13-.25c.05-.09.06-.18.1-.13a.15.15,0,0,1,0,.09.33.33,0,0,1-.05.16l-.12.2a1.53,1.53,0,0,0-.23.73v.16a.32.32,0,0,1-.14.24C22.25,30.83,22.28,30.86,22.28,30.77Z"/><path d="M23.28,28.72a2.5,2.5,0,0,0-1,2c0,.77.47,1.12,1,.79a2.47,2.47,0,0,0,1-2C24.32,28.74,23.86,28.39,23.28,28.72Zm-.71,1.9a.32.32,0,0,1-.14.24c-.07,0-.12,0-.12-.1h0V30.6a2.27,2.27,0,0,1,.12-.61,2.53,2.53,0,0,1,.21-.44l.11-.19c.06-.09.14-.13.19-.08a.13.13,0,0,1,0,.09.32.32,0,0,1,0,.16l-.12.2a1.53,1.53,0,0,0-.23.73Zm1.22.29-.1.13a1.49,1.49,0,0,1-.41.36.77.77,0,0,1-.31.11h-.14c-.07,0-.1-.08-.07-.18a.24.24,0,0,1,.12-.18l0,0h.14a.77.77,0,0,0,.51-.33l.1-.13c.06-.08.14-.09.17,0a.19.19,0,0,1,0,.08A.37.37,0,0,1,23.79,30.91Zm.36-1.13,0,0c-.06,0-.11,0-.12-.08l0-.18a.41.41,0,0,0-.27-.4l-.1,0c-.06,0-.08-.11,0-.22a.4.4,0,0,1,.11-.14.09.09,0,0,1,.07,0l.09,0a.44.44,0,0,1,.29.23.85.85,0,0,1,.11.34l0,.18A.31.31,0,0,1,24.15,29.78Z"/><path d="M23.23,24.07V37.38h.06V24Z"/><path d="M21.26,38.19h0l1.87-7.73.05-.17v0h0v0h0v0l0-.1,1.79-7.38a.15.15,0,0,0-.07,0L23.29,29.8l-.05.2v.14h0v.07l0,.06v.05l-.06.25Z"/><path d="M19.77,37.31a.21.21,0,0,1,0,.06l3.26-6.67.11-.23.05-.1v0l0,0v0h0v0h0v0h0l0,0h0v0l0,0,.08-.17,3.76-7.69-.05,0-3.86,7.9h0v0h0l0,0h0l0,0,0,.06,0,.08Z"/><path d="M23.05,30.42l-3.93,4.84s0,.05,0,.07l4-4.93,0,0,.06-.07h0l0,0h0v0h0l0,0h0l0,0,.07-.08,5-6.13-.05,0-4.92,6.05-.15.19h0l0,0H23.2l0,0h0l0,0Z"/><path d="M19.07,33.51l4-3.09.11-.08,0,0,0,0h0l0,0h0l0,0h0l.06-.05.12-.08L28.8,26l0-.05-5.34,4.15-.06.05-.07.05,0,0h-.09l0,0h0l-.09.07-4,3.09Z"/><polygon points="19.23 32.11 23.06 30.34 23.15 30.3 23.17 30.29 23.21 30.27 23.22 30.27 23.22 30.27 23.23 30.26 23.23 30.26 23.23 30.26 23.24 30.26 23.24 30.26 23.25 30.25 23.27 30.25 23.27 30.25 23.27 30.24 23.28 30.24 23.29 30.24 23.29 30.23 23.3 30.23 23.3 30.23 23.3 30.23 23.3 30.23 23.33 30.21 23.33 30.21 23.49 30.14 28.7 27.73 28.67 27.68 23.5 30.08 23.35 30.14 23.34 30.15 23.29 30.17 23.27 30.18 23.27 30.18 23.26 30.18 23.26 30.18 23.26 30.19 23.26 30.19 23.25 30.19 23.25 30.19 23.24 30.19 23.24 30.2 23.23 30.2 23.23 30.2 23.22 30.2 23.21 30.21 23.2 30.21 23.2 30.21 23.19 30.22 23.18 30.22 23.17 30.23 23.16 30.23 23.09 30.27 23.02 30.3 19.24 32.05 19.23 32.11"/><path d="M19.45,31,23,30.3l.13,0h.26l5-1v-.06l-4.91,1-.11,0h-.27l-.2,0L19.47,31S19.46,31,19.45,31Z"/><path d="M19.69,30.18l3.22.08h.66l4.55.12v-.06l-4.71-.12h-.34l-3.36-.09S19.7,30.16,19.69,30.18Z"/><path d="M20,29.4l3.12.81h.29l.1,0,4.29,1.11,0-.06-4.2-1.08-.21-.05,0,0h-.15l-.05,0-.14,0-3-.78A.08.08,0,0,1,20,29.4Z"/><path d="M20.24,28.69,23,30.13l.15.08h0l0,0h.15l0,0,.11.06,3.86,2,0,0-3.9-2-.07,0-.07,0h-.15l-.11-.06-2.8-1.46A.08.08,0,0,0,20.24,28.69Z"/><path d="M20.56,28l2.5,2.14.07.06.05.05h.08v0h0l.05,0,.09.08,3.4,2.92,0,0-3.4-2.92-.11-.1h0l0,0h-.07l0,0h0l-.1-.09-2.5-2.15Z"/><path d="M21,27.16l2.12,2.89.08.11v0h.07l0,0,0,0v0l.09.12,2.81,3.82,0,0-2.81-3.83-.07-.1,0-.05,0,0h-.05l0,0,0,0v0L23.14,30,21,27.11Z"/><path d="M21.51,26.24,23.14,30l.05.12v0h0v0h0v0h0v0l0,.06,0,.06,2.16,5,.05,0-2.13-5-.05-.12,0,0v0h0v0h0l0-.07v0l0-.12-1.62-3.77Z"/><path d="M22.31,25.12,23.17,30l0,.15v0h0v0h0v0h0v.06l.05.26,1.05,5.89h.05l-1.08-6.06V30.3h0v0h0v0h0v0l0-.14V30l-.87-4.9A.18.18,0,0,0,22.31,25.12Z"/><path class="cls-4" d="M24.45,30.24l-.92-.53a.05.05,0,0,0,0,0h0a.23.23,0,0,0-.21,0,.85.85,0,0,0-.34.67.29.29,0,0,0,.13.28l.93.54v-.07l.08,0a.85.85,0,0,0,.34-.67.38.38,0,0,0,0-.16Z"/><path d="M24.55,30.51a.81.81,0,0,1-.35.66c-.19.11-.34,0-.34-.26a.82.82,0,0,1,.34-.66C24.4,30.14,24.55,30.25,24.55,30.51Z"/><path d="M23.05,31.2c0,.59.27.93.66.91a1,1,0,0,0,.42-.08,2.16,2.16,0,0,0,.73-.79A2.66,2.66,0,0,0,25.2,30c0-.76-.53-1.12-1.11-.79A2.5,2.5,0,0,0,23.05,31.2ZM24.79,30a.43.43,0,0,0-.28-.41l-.09,0c-.06,0-.08-.11,0-.21a.27.27,0,0,1,.11-.14.1.1,0,0,1,.07,0l.09,0a.45.45,0,0,1,.29.24,1,1,0,0,1,.11.33l0,.19a.33.33,0,0,1-.11.26h0c-.06,0-.11,0-.12-.07Zm-1.23,1.79a.3.3,0,0,1,.12-.18h.19a.79.79,0,0,0,.5-.33l.1-.13c.06-.08.13-.09.17,0s0,0,0,0a.15.15,0,0,1,0,.07.33.33,0,0,1-.06.19l-.1.13a1.54,1.54,0,0,1-.41.37.66.66,0,0,1-.31.1h-.14s0,0-.05,0A.15.15,0,0,1,23.56,31.83Zm-.36-.5v-.21a1.66,1.66,0,0,1,.1-.56,1.71,1.71,0,0,1,.21-.4l.13-.25c.05-.09.06-.18.1-.13a.12.12,0,0,1,0,.09.32.32,0,0,1,0,.16l-.12.19a1.6,1.6,0,0,0-.23.74v.15a.31.31,0,0,1-.14.24C23.17,31.39,23.2,31.42,23.2,31.33Z"/><path d="M24.2,29.27a2.5,2.5,0,0,0-1,2c0,.76.47,1.12,1,.78a2.47,2.47,0,0,0,1-2C25.24,29.29,24.78,28.94,24.2,29.27Zm-.71,1.9a.31.31,0,0,1-.14.24c-.07,0-.12,0-.12-.1h0v-.15a2.2,2.2,0,0,1,.12-.6,2,2,0,0,1,.21-.44l.11-.19c.06-.1.14-.13.18-.08a.12.12,0,0,1,0,.09.32.32,0,0,1,0,.16l-.12.19a1.6,1.6,0,0,0-.23.74Zm1.22.29-.1.13a1.54,1.54,0,0,1-.41.37.8.8,0,0,1-.31.1h-.14c-.07,0-.1-.08-.08-.18a.3.3,0,0,1,.12-.18H24a.81.81,0,0,0,.51-.34l.1-.12c.06-.08.14-.1.17,0a.15.15,0,0,1,0,.07A.33.33,0,0,1,24.71,31.46Zm.36-1.12h0c-.06,0-.11,0-.12-.07l0-.18a.43.43,0,0,0-.28-.41l-.09,0c-.06,0-.08-.11,0-.21a.23.23,0,0,1,.11-.14.1.1,0,0,1,.07,0l.09,0a.49.49,0,0,1,.29.24,1,1,0,0,1,.11.34l0,.18A.33.33,0,0,1,25.07,30.34Z"/><path class="cls-21" d="M23.76,31a.3.3,0,0,0,.09.13.41.41,0,0,0,.13.1.51.51,0,0,0,.35.1.36.36,0,0,0,.18-.14,2.23,2.23,0,0,0,.19-.24q.27-.39.51-.78l.26-.44s.28-1,.63-2.23c.65-2.28,1.57-5.54,1.64-5.87s.09-.43.14-.64a2.21,2.21,0,0,1,.05-.25.68.68,0,0,1-.28,0h-.06a1.77,1.77,0,0,1-.46-.15l-.06,0c-.12.55-1.25,4.43-1.91,6.72l-.48,1.67A2.87,2.87,0,0,1,24,30.07a1.4,1.4,0,0,0-.3.53A.43.43,0,0,0,23.76,31Z"/><path d="M23.76,31a.3.3,0,0,0,.09.13.41.41,0,0,0,.13.1.51.51,0,0,0,.35.1.36.36,0,0,0,.18-.14,2.23,2.23,0,0,0,.19-.24q.27-.39.51-.78l.26-.44s.28-1,.63-2.23a1,1,0,0,1-.94-.2l-.48,1.67A2.87,2.87,0,0,1,24,30.07a1.4,1.4,0,0,0-.3.53A.43.43,0,0,0,23.76,31Z"/><path class="cls-8" d="M24.79,30.44l-.41-.27,0,0h0a.24.24,0,0,0-.21,0,.84.84,0,0,0-.35.66.3.3,0,0,0,.13.29l.42.26v-.07l.07,0a.84.84,0,0,0,.35-.66.43.43,0,0,0,0-.17Z"/><path class="cls-4" d="M24.89,30.7a.82.82,0,0,1-.34.66c-.19.11-.35,0-.35-.26a.84.84,0,0,1,.35-.66C24.74,30.33,24.89,30.45,24.89,30.7Z"/><path class="cls-8" d="M28.18,19.89a1.91,1.91,0,0,1,0,.79c-.05.21-.1.44-.34.48a1,1,0,0,1-.41-.05l-.18-.05a.61.61,0,0,1-.29-.14.25.25,0,0,1-.08-.22,1.23,1.23,0,0,1,0-.19,2,2,0,0,0,.05-.24.27.27,0,0,0-.07-.26.4.4,0,0,0-.24-.05c-.1,0-.2.15-.25.23a.82.82,0,0,0-.09.19c0,.05,0,.11-.05.16a1.58,1.58,0,0,0-.38,0c-.1,0-.2,0-.3,0s-.24.08-.29,0,.05-.33.08-.4a1.56,1.56,0,0,1,1.1-1.27,1.46,1.46,0,0,1,1.7.85Z"/><path class="cls-22" d="M28,19.06l0,.35a.09.09,0,0,1,0,.07h0a.4.4,0,0,1-.22.3,1.44,1.44,0,0,1-1.28,0,.47.47,0,0,1-.31-.42l0-.36.11,0,.11-.08a1.44,1.44,0,0,1,1.28,0,.86.86,0,0,1,.23.17Z"/><path class="cls-23" d="M27.65,18.71a1.44,1.44,0,0,0-1.28,0c-.33.21-.29.54.09.73a1.41,1.41,0,0,0,1.28,0C28.07,19.23,28,18.9,27.65,18.71Z"/><path class="cls-24" d="M29.32,11.39l-1.51,7.67v.06h0a.34.34,0,0,1-.19.25,1.19,1.19,0,0,1-1.06,0c-.19-.09-.27-.22-.26-.34l1.51-7.69.09,0,.09-.08a1.22,1.22,0,0,1,1.07,0,.59.59,0,0,1,.19.14Z"/><path class="cls-18" d="M29.06,11.06a1.22,1.22,0,0,0-1.07,0c-.27.17-.24.45.08.61a1.18,1.18,0,0,0,1.07,0C29.41,11.49,29.38,11.22,29.06,11.06Z"/><path class="cls-25" d="M29.48,11.05l0,.35a.09.09,0,0,1,0,.07h0a.41.41,0,0,1-.22.3,1.44,1.44,0,0,1-1.28,0,.47.47,0,0,1-.31-.42l0-.36.11,0,.11-.09a1.44,1.44,0,0,1,1.28,0,.69.69,0,0,1,.23.17Z"/><path class="cls-26" d="M29.17,10.69a1.44,1.44,0,0,0-1.28,0c-.33.21-.29.54.09.73a1.44,1.44,0,0,0,1.28,0C29.59,11.21,29.55,10.89,29.17,10.69Z"/><path class="cls-27" d="M27.72,11c0,.23.19.42.51.51a1.44,1.44,0,0,0,.55,0l.15,0h0l.08,0a.54.54,0,0,0,.39-.47.41.41,0,0,0-.09-.25.76.76,0,0,0-.24-.18l-.17-.07h0l-.13,0h-.2a1.15,1.15,0,0,0-.33,0h0l-.18.07a.63.63,0,0,0-.24.18.41.41,0,0,0-.09.25Zm.3,0s0,0,0,0,0,0,0,0a.59.59,0,0,1,.26-.14,1.06,1.06,0,0,1,.47,0h.07a.61.61,0,0,1,.25.14l0,0a.08.08,0,0,1,0,0c0,.07-.08.14-.21.19l-.05,0h-.09a.71.71,0,0,1-.2,0,1.12,1.12,0,0,1-.27,0C28.12,11.13,28,11,28,11Z"/><path class="cls-26" d="M27.72,10.72c0,.22.19.42.51.51a1.67,1.67,0,0,0,.55,0l.15,0,0,0,.08,0a.55.55,0,0,0,.39-.47.33.33,0,0,0,0-.17.22.22,0,0,0-.05-.08.65.65,0,0,0-.24-.19l-.17-.06h0l-.13,0-.2,0a1.66,1.66,0,0,0-.33,0h0l-.18.06a.65.65,0,0,0-.24.19.22.22,0,0,0,0,.08A.33.33,0,0,0,27.72,10.72Zm.3,0v0l0,0a.51.51,0,0,1,.26-.14,1.05,1.05,0,0,1,.47,0l.07,0a.51.51,0,0,1,.25.14l0,0a.06.06,0,0,1,0,0c0,.06-.08.14-.21.19l-.05,0h0l-.07,0-.2,0a.77.77,0,0,1-.27,0C28.12,10.88,28,10.79,28,10.72Z"/><path class="cls-27" d="M27.72,10.55c0,.22.19.42.51.5a1.26,1.26,0,0,0,.55,0l.15,0h0L29,11a.53.53,0,0,0,.39-.46.33.33,0,0,0,0-.17.22.22,0,0,0-.05-.08.65.65,0,0,0-.24-.19.85.85,0,0,0-.17-.06h0l-.13,0-.2,0a1.66,1.66,0,0,0-.33,0h0a1,1,0,0,0-.18.06.65.65,0,0,0-.24.19.22.22,0,0,0,0,.08A.33.33,0,0,0,27.72,10.55Zm.3,0s0,0,0,0l0,0a.51.51,0,0,1,.26-.14,1.05,1.05,0,0,1,.47,0l.07,0a.51.51,0,0,1,.25.14l0,0a.06.06,0,0,1,0,0c0,.06-.08.14-.21.19h-.07l-.07,0-.2,0a1.1,1.1,0,0,1-.27,0C28.12,10.71,28,10.62,28,10.55Z"/><path class="cls-26" d="M27.72,10.35c0,.22.19.41.51.5a1.26,1.26,0,0,0,.55,0l.15,0h0l.08,0a.53.53,0,0,0,.39-.46.39.39,0,0,0,0-.18l-.05-.07a.65.65,0,0,0-.24-.19l-.17-.07h0l-.13,0h-.2a1.15,1.15,0,0,0-.33,0h0l-.18.07a.65.65,0,0,0-.24.19l0,.07A.39.39,0,0,0,27.72,10.35Zm.3,0s0,0,0,0l0,0a.44.44,0,0,1,.26-.14,1.05,1.05,0,0,1,.47,0l.07,0a.44.44,0,0,1,.25.14l0,0s0,0,0,0-.08.14-.21.18l-.05,0h0l-.07,0-.2,0a1.1,1.1,0,0,1-.27,0C28.12,10.51,28,10.41,28,10.35Z"/><path d="M24.61,7.26s0,.09,0,.13l0,.1a.25.25,0,0,0,0,.07v0s0,0,0,0a.36.36,0,0,0,0,.09v0a3.49,3.49,0,0,0,1.8,1.55.45.45,0,0,0,.34,0,1.31,1.31,0,0,0,.74-.3l-.45-.2a.46.46,0,0,0-.26-.36c-.55-.23-1.32-.7-1.39-1.31s.65-1.23,2-2.11h0l0,0,0,0a.47.47,0,0,0,.13-.34.83.83,0,0,0-.06-.21h0l0-.06a.46.46,0,0,0-.61-.09h0l-.07,0,0,0c-1.39.88-2.15,1.58-2.33,2.36A1.52,1.52,0,0,0,24.61,7.26Z"/><path d="M27.37,8.91l.25.11a.36.36,0,0,1-.11.1l-.08,0A.35.35,0,0,0,27.37,8.91Z"/><path d="M27.15,8.72A3.13,3.13,0,0,1,26,7.93a3.6,3.6,0,0,0,.89.53A.55.55,0,0,1,27.15,8.72Z"/><path d="M24.63,6.7c.18-.78.94-1.48,2.33-2.36l0,0,.07,0h0a.46.46,0,0,1,.61.09l0,.06h0s0,0,0,.06a.43.43,0,0,0-.41,0h0l-.07,0h0c-1.39.88-2.15,1.58-2.33,2.36a1.77,1.77,0,0,0,0,.56s0,.09,0,.13l0,.1a.19.19,0,0,0,0,.07v0s0,0,0,0A.36.36,0,0,0,25,8V8a2,2,0,0,0,.36.55,2.34,2.34,0,0,1-.62-.81v0a.36.36,0,0,1,0-.09s0,0,0,0v0a.25.25,0,0,1,0-.07l0-.1s0-.09,0-.13A1.52,1.52,0,0,1,24.63,6.7Z"/><path d="M26.66,9.32A1.28,1.28,0,0,0,27.4,9L27,8.82a.47.47,0,0,0-.27-.36c-.55-.23-1.32-.7-1.39-1.31S26,5.92,27.35,5h0l0,0s0,0,0,0a.43.43,0,0,0,.13-.34.42.42,0,0,0-.06-.21h0a.13.13,0,0,0,0-.06.41.41,0,0,0-.25-.15.47.47,0,0,1,.47.15l0,.06h0a.83.83,0,0,1,.06.21.47.47,0,0,1-.13.34l0,0,0,0h0c-1.39.88-2.12,1.47-2,2.11s.84,1.08,1.39,1.31a.46.46,0,0,1,.26.36l.45.2a1.31,1.31,0,0,1-.74.3.5.5,0,0,1-.27,0Z"/><path class="cls-28" d="M26.56,8.44a1,1,0,0,1,.15-.19l.08-.07a.59.59,0,0,1,.17-.1.42.42,0,0,1,.29,0l.05,0h0l3,1.67-.07.46L29.92,10a1.51,1.51,0,0,1-.46,1l.54.33-.46.15-3-1.67h0a.61.61,0,0,1-.21-.59h0A1.52,1.52,0,0,1,26.56,8.44Z"/><path class="cls-16" d="M30.05,9.79a1.38,1.38,0,0,0-.67,1.11c0,.48.19.75.53.61a1.39,1.39,0,0,0,.67-1.11C30.62,9.93,30.38,9.66,30.05,9.79Z"/><path class="cls-29" d="M29.91,10.58v0h0Z"/><path d="M29.71,10.7a.7.7,0,0,0,0,.29h0l.06.09,0,0,.09.07a7.2,7.2,0,0,0,1.3.49,6.89,6.89,0,0,0,.89.2,8.64,8.64,0,0,0,1,.07,6.78,6.78,0,0,0,3.78-1.16.1.1,0,0,0,0,0l0,0,0,0,0,0,0-.06,0,0a.19.19,0,0,0,0-.08h0a.5.5,0,0,0-.06-.4.53.53,0,0,0-.14-.12.43.43,0,0,0-.44,0l0,0-.21.12h0l-.22.13a1.51,1.51,0,0,1-.22.11.76.76,0,0,1-.18.09l-.25.11-.2.08,0,0-.39.12-.21.06-.13,0-.13,0-.35.05-.15,0h-.08a4.53,4.53,0,0,1-.52,0c-.22,0-.44,0-.65,0l-.22,0-.25,0-.35-.08h-.07l-.18-.06-.26-.08h0l-.26-.1-.28-.11-.23-.11a.48.48,0,0,0-.24-.06H30.1a.5.5,0,0,0-.28.14l0,.05A.48.48,0,0,0,29.71,10.7Z"/><path d="M29.74,10.81h0l.06.09,0,0,.09.07a7.93,7.93,0,0,0,1.3.5c.27.07.57.14.89.19a7,7,0,0,0,1,.08,6.86,6.86,0,0,0,3.78-1.16l0,0,0,0,0,0,0,0,0-.06,0,0a.29.29,0,0,0,0-.09h0a.09.09,0,0,1,0-.05.6.6,0,0,1,0,.23h0a.19.19,0,0,1,0,.08l0,0,0,.06,0,0,0,0,0,0a.1.1,0,0,1,0,0A6.78,6.78,0,0,1,33.15,12a8.64,8.64,0,0,1-1-.07,6.89,6.89,0,0,1-.89-.2,7.2,7.2,0,0,1-1.3-.49l-.09-.07,0,0L29.75,11h0a.7.7,0,0,1,0-.29v0Z"/><path d="M29.82,10.45c0,.1.13.13.21.17a3,3,0,0,0,.31.15c.37.15.74.32,1.12.44a6.51,6.51,0,0,0,1.4.24,5.75,5.75,0,0,0,1.7-.17,6.06,6.06,0,0,0,1.34-.51,4.06,4.06,0,0,0,.63-.38,1.09,1.09,0,0,0,.17-.13l.09-.06a.73.73,0,0,0,.09-.08.25.25,0,0,0,.06-.16.43.43,0,0,0-.44,0l0,0-.21.12h0l-.22.13-.15.08a.15.15,0,0,1-.07,0,.76.76,0,0,1-.18.09l-.25.11-.2.08,0,0-.39.12-.21.06-.13,0-.13,0-.35.05-.15,0h-.08a4.53,4.53,0,0,1-.52,0c-.22,0-.44,0-.65,0l-.22,0-.25,0-.35-.08h-.07l-.18-.06-.26-.08-.26-.1-.28-.11-.23-.11a.48.48,0,0,0-.24-.06H30.1A.5.5,0,0,0,29.82,10.45Z"/><path d="M27.05,4.28l.18.08a.71.71,0,0,1,.36.4.7.7,0,0,1,0,.25l0,0a.44.44,0,0,0,.14-.34.58.58,0,0,0-.07-.21h0a.44.44,0,0,0-.64-.15Z"/><path d="M36.47,10l.19.08a.63.63,0,0,1,.32.36.65.65,0,0,1,0,.31l0,0,0,0,0,0,0-.06,0,0,0-.08h0a.5.5,0,0,0-.06-.4.42.42,0,0,0-.58-.1Z"/><path class="cls-8" d="M47.84,16.63l-.17-.11,0,0h0a.24.24,0,0,0-.21,0,.82.82,0,0,0-.35.66c0,.14.05.25.13.28l.17.11v-.07l.08,0a.83.83,0,0,0,.34-.66.43.43,0,0,0,0-.17Z"/><path class="cls-4" d="M47.94,16.89a.82.82,0,0,1-.35.66c-.19.12-.34,0-.34-.26a.83.83,0,0,1,.34-.66C47.78,16.52,47.94,16.64,47.94,16.89Z"/><path class="cls-30" d="M41,27l-.25-.14h0a.1.1,0,0,0-.09,0,.31.31,0,0,0-.14.26.12.12,0,0,0,.06.12l.25.14v0h0a.33.33,0,0,0,.14-.27S41,27,41,27Z"/><path class="cls-6" d="M41,27.08a.35.35,0,0,1-.13.27c-.08,0-.14,0-.14-.11A.31.31,0,0,1,40.9,27C41,26.93,41,27,41,27.08Z"/><path class="cls-31" d="M41.31,27.11,41,27h0s-.06,0-.1,0a.38.38,0,0,0-.16.31.14.14,0,0,0,.06.13l.3.17v0h0a.38.38,0,0,0,.16-.31.19.19,0,0,0,0-.08Z"/><path class="cls-4" d="M41.36,27.23a.38.38,0,0,1-.16.31c-.09.05-.17,0-.17-.12a.39.39,0,0,1,.17-.31C41.29,27.06,41.36,27.12,41.36,27.23Z"/><polygon points="41.37 26.79 41.37 27.15 41.64 26.97 41.37 26.79"/><path d="M40.32,27.76l1.67,1a.69.69,0,0,0,.61,0l.69-.4a.2.2,0,0,0,.1-.13h0v0h0a.25.25,0,0,0-.14-.17h0l0,0,.08-.14L43,27.61l-.15-.1-1.16-.65-.13.17-.21.12.14.14-.38.06-.37.13.06.21-.06,0-.24-.09Zm2.21,0c-.11.06-.06.17-.23.15a.34.34,0,0,1-.22-.07L42,27.76a.66.66,0,0,1-.3-.26c0-.09,0-.09.07-.15l0,0,.47.27.37.16Zm-.37.69,0,0,.07,0,.08-.05.44-.25a.32.32,0,0,1,.2,0l.08,0,0,0h0c.11.06.12.15,0,.2l-.62.36a.37.37,0,0,1-.35,0h0C42.08,28.59,42.07,28.5,42.16,28.45Zm-1.32-.57a.37.37,0,0,1,.21-.06.85.85,0,0,1,.35,0,1.24,1.24,0,0,1,.32.12.61.61,0,0,1,.17.14.24.24,0,0,1,.08.25.19.19,0,0,1-.1.12Z"/><polygon points="41.99 28.36 41.99 28.72 40.32 27.75 40.32 27.4 41.99 28.36"/><path d="M42.26,28.39l.21,0,.27-.11.32-.22.15-.11.19-.13h0v.37h0a.2.2,0,0,1-.1.13l-.69.4a.69.69,0,0,1-.61,0v-.36l.19,0Z"/><path d="M40.32,27.4l.5.29.23.13.92.53h0a.48.48,0,0,0,.2.07.63.63,0,0,0,.41,0l.51-.29.15-.09,0,0a.2.2,0,0,0,.11-.15c0-.07,0-.14-.15-.2l-1.67-1-.21.12.14.14-.75.44-.24-.09Zm2.49.17a.52.52,0,0,1-.2.06,1.06,1.06,0,0,1-.35,0,.82.82,0,0,1-.32-.12.93.93,0,0,1-.18-.13.26.26,0,0,1-.08-.26.3.3,0,0,1,.11-.12Zm.36.38h0l-.18.1-.44.25a.32.32,0,0,1-.2,0,.37.37,0,0,1-.15,0h0c-.11-.07-.12-.16,0-.21l.19-.11.28-.16.15-.08h0a.37.37,0,0,1,.34,0h0C43.23,27.81,43.25,27.9,43.17,28ZM41,27.6l-.14-.08a.59.59,0,0,1,.38-.06,1.14,1.14,0,0,1,.47.13l0,0a.58.58,0,0,1,.25.24.21.21,0,0,1-.08.25h0l-.47-.27Z"/><path d="M39,5.43a.81.81,0,0,0,.51.41c.81.23,1.36-.45,2-.76A8.19,8.19,0,0,1,44,4.45a2.7,2.7,0,0,0,.41-.07A2.58,2.58,0,0,0,46,1.73,1.65,1.65,0,0,0,45.72,1a1.88,1.88,0,0,1,.13,1.17A1.53,1.53,0,0,1,45,3.23a3.39,3.39,0,0,1-.61.15,9.06,9.06,0,0,0-3.17,1.38,6.11,6.11,0,0,1-.79.44A.91.91,0,0,1,39,4.71a.54.54,0,0,0-.05.22A.81.81,0,0,0,39,5.43Z"/></g></g></g></svg>