<svg xmlns="http://www.w3.org/2000/svg" viewBox="0 0 155.66 23.79"><defs><style>.cls-1{fill:#515151;fill-rule:evenodd;}</style></defs><g id="Layer_2" data-name="Layer 2"><g id="Capa_1" data-name="Capa 1"><path class="cls-1" d="M31.23.16h4.26a5.74,5.74,0,0,1,1.65.2,2.18,2.18,0,0,1,1.64,2.15,4.57,4.57,0,0,1-.07,1A2.26,2.26,0,0,1,37,5.27l-.15,0a.05.05,0,0,0,0,0s0,0,0,0a3.27,3.27,0,0,1,1,1.56c.34.94.71,1.87,1.06,2.81l.06.18c-.24,0-.46,0-.68,0-.05,0-.12-.08-.14-.14-.3-.78-.58-1.57-.89-2.35a6.78,6.78,0,0,0-.51-1,1.7,1.7,0,0,0-1.57-.85c-1,0-2,0-3.07,0h-.23V9.89h-.7Zm.7,4.64h.14c1.15,0,2.3,0,3.45,0a5.67,5.67,0,0,0,1.08-.12A1.58,1.58,0,0,0,38,3.38,4.29,4.29,0,0,0,38,2.5a1.47,1.47,0,0,0-1-1.39A3.82,3.82,0,0,0,35.69.88H31.93Z"/><path class="cls-1" d="M124.87,5.34l.19.17a2.66,2.66,0,0,1,.73,1c.41,1.08.82,2.17,1.24,3.25,0,0,0,0,0,.1-.24,0-.47,0-.7,0,0,0-.11-.09-.14-.15-.29-.78-.57-1.56-.88-2.33a6.31,6.31,0,0,0-.52-1.08,1.69,1.69,0,0,0-1.55-.83c-1,0-2,0-3.06,0H120V9.9h-.71V.16h4.29a5.16,5.16,0,0,1,1.74.24,2.19,2.19,0,0,1,1.54,2.08,3.44,3.44,0,0,1-.17,1.35,2.3,2.3,0,0,1-1.59,1.44l-.15,0ZM120,4.79h.09c1.2,0,2.4,0,3.6,0a5.22,5.22,0,0,0,1.12-.16A1.53,1.53,0,0,0,126,3.25a3.12,3.12,0,0,0,0-.75,1.41,1.41,0,0,0-1-1.38,4.87,4.87,0,0,0-1.31-.23c-1.22,0-2.43,0-3.64,0H120Z"/><path class="cls-1" d="M29.18,5a6,6,0,0,1-.69,2.8,4.4,4.4,0,0,1-4.38,2.25,4.47,4.47,0,0,1-4.07-4,6.11,6.11,0,0,1,.32-3.25A4.4,4.4,0,0,1,25,0a4.44,4.44,0,0,1,4.08,4C29.13,4.33,29.14,4.67,29.18,5Zm-.76,0c0-.25,0-.51-.06-.77a4.09,4.09,0,0,0-1.07-2.43A3.63,3.63,0,0,0,24.4.72,3.58,3.58,0,0,0,21,3.23a5.87,5.87,0,0,0-.2,2.7,4.24,4.24,0,0,0,.55,1.65,3.5,3.5,0,0,0,3.46,1.76A3.47,3.47,0,0,0,28.08,7,5.54,5.54,0,0,0,28.42,5Z"/><path class="cls-1" d="M40.73,5a5.92,5.92,0,0,1,.56-2.49,4.59,4.59,0,0,1,7.5-1,4.87,4.87,0,0,1,1.11,2.6,6.15,6.15,0,0,1-.43,3.31A4.53,4.53,0,0,1,40.89,6.3C40.8,5.87,40.78,5.44,40.73,5Zm8.49,0c0-.26,0-.51-.06-.77a4.12,4.12,0,0,0-1-2.42A3.7,3.7,0,0,0,45.18.72a3.58,3.58,0,0,0-3.4,2.51,5.88,5.88,0,0,0-.2,2.7,4.23,4.23,0,0,0,.55,1.66,3.52,3.52,0,0,0,3.46,1.75A3.47,3.47,0,0,0,48.88,7,5.54,5.54,0,0,0,49.22,5Z"/><path class="cls-1" d="M146.43,5A5.92,5.92,0,0,1,147,2.51,4.27,4.27,0,0,1,150.82,0a4.32,4.32,0,0,1,3.67,1.51,4.79,4.79,0,0,1,1.11,2.6,6.06,6.06,0,0,1-.43,3.31,4.53,4.53,0,0,1-8.58-1.13C146.51,5.87,146.48,5.44,146.43,5Zm.76,0c0,.35.05.7.11,1a3.79,3.79,0,0,0,7.29.89,5.79,5.79,0,0,0,.25-2.86,4.05,4.05,0,0,0-.94-2.17,3.68,3.68,0,0,0-3-1.19,3.58,3.58,0,0,0-3.38,2.44A5.85,5.85,0,0,0,147.19,5Z"/><path class="cls-1" d="M76.77,9.19V9.9h-7V.18h6.77V.87H70.46v3.6h5.68v.72H70.46v4Z"/><path class="cls-1" d="M51.55,7.11h.69a1.6,1.6,0,0,1,0,.21,2.27,2.27,0,0,0,1.54,1.77,4.86,4.86,0,0,0,3.13,0,1.81,1.81,0,0,0,1.32-1.26,1.61,1.61,0,0,0-.86-2,11.85,11.85,0,0,0-2.15-.66c-.6-.15-1.2-.33-1.79-.51A3.23,3.23,0,0,1,53,4.43,2.2,2.2,0,0,1,52.61.88,3.44,3.44,0,0,1,54.42.07a4.87,4.87,0,0,1,2.7.29,2.71,2.71,0,0,1,1.7,2.17h-.65a7.77,7.77,0,0,0-.4-.76A2.16,2.16,0,0,0,56.5.89a4.5,4.5,0,0,0-2.62,0,1.62,1.62,0,0,0-1.19,2,1.21,1.21,0,0,0,.74.92A14.48,14.48,0,0,0,55,4.36c.7.19,1.41.34,2.11.52a4.24,4.24,0,0,1,.59.23,2.37,2.37,0,0,1,.9,3.66,3.16,3.16,0,0,1-2,1.19,5.52,5.52,0,0,1-3.4-.34A2.75,2.75,0,0,1,51.55,7.11Z"/><path class="cls-1" d="M17.18.17h.71V9.9h-.71V5.08h-6V9.9h-.71V.17h.69V4.33h6Z"/><path class="cls-1" d="M96.16.16l-4,3.9,4.32,5.85c-.32,0-.61,0-.89,0-.06,0-.13-.08-.17-.14l-3.62-5a2.12,2.12,0,0,0-.15-.21l-.13.12c-.58.56-1.16,1.11-1.74,1.68a.44.44,0,0,0-.11.29c0,1,0,2,0,3V9.9H89V.18h.7V5.51l.23-.22L95,.36a.57.57,0,0,1,.5-.2C95.68.17,95.9.16,96.16.16Z"/><path class="cls-1" d="M110.73,5.79V9.9H110V.18l.15,0h3.62a4.89,4.89,0,0,1,1.86.32,2.26,2.26,0,0,1,1.52,2.19,3.92,3.92,0,0,1-.1,1.08,2.45,2.45,0,0,1-2,1.86,6.34,6.34,0,0,1-1.31.16c-.93,0-1.86,0-2.79,0Zm0-.72h.11c1,0,2.06,0,3.09,0a4.73,4.73,0,0,0,1.29-.23,1.6,1.6,0,0,0,1.15-1.32,3.77,3.77,0,0,0,.05-.82,1.61,1.61,0,0,0-1.2-1.61,5.73,5.73,0,0,0-1.37-.19c-1,0-2,0-3,0h-.15Z"/><path class="cls-1" d="M128.2,9.91c.26-.68.51-1.34.77-2L131.88.35c.06-.14.12-.2.27-.19s.44,0,.65,0a.2.2,0,0,1,.23.16l3.84,9.41.06.18c-.26,0-.51,0-.75,0-.06,0-.13-.09-.15-.16-.36-.92-.71-1.84-1.06-2.77-.05-.15-.12-.19-.28-.19h-4.58l-.84,2.29c-.09.24-.17.48-.26.71a.29.29,0,0,1-.18.13Zm2.09-3.7h4.39L132.43.81C131.71,2.64,131,4.42,130.29,6.21Z"/><path class="cls-1" d="M8.29,7.14A3.25,3.25,0,0,1,7,9.33a4.31,4.31,0,0,1-3,.72A4.19,4.19,0,0,1,.12,6.28,6.47,6.47,0,0,1,.44,2.64,4,4,0,0,1,4.25,0,4.05,4.05,0,0,1,7.5,1.27a2.91,2.91,0,0,1,.77,1.51H7.64a.17.17,0,0,1-.11-.09A2.79,2.79,0,0,0,5.15.78a3.85,3.85,0,0,0-2.34.28A3.06,3.06,0,0,0,1.08,3a6.14,6.14,0,0,0,0,4.08A3.29,3.29,0,0,0,4.24,9.35a4.34,4.34,0,0,0,1.64-.22A2.42,2.42,0,0,0,7.51,7.29c0-.12.07-.16.2-.16A5.41,5.41,0,0,0,8.29,7.14Z"/><path class="cls-1" d="M86.76,2.77h-.09a.64.64,0,0,1-.83-.48A2.27,2.27,0,0,0,84.51,1a3.92,3.92,0,0,0-3.28.05A3.09,3.09,0,0,0,79.56,3a6.14,6.14,0,0,0,0,4.08,3.3,3.3,0,0,0,3.15,2.26,4.21,4.21,0,0,0,1.65-.23A2.46,2.46,0,0,0,86,7.3c0-.13.07-.17.2-.17a6,6,0,0,0,.62,0c-.13.36-.22.7-.36,1A3,3,0,0,1,84.81,9.7a4.74,4.74,0,0,1-3.73,0A3.82,3.82,0,0,1,79,7.56a6.47,6.47,0,0,1-.07-4.91A4.34,4.34,0,0,1,86,1.27,3,3,0,0,1,86.76,2.77Z"/><path class="cls-1" d="M145.16.18V.87h-3.39v9h-.72v-9h-3.37V.18Z"/><path class="cls-1" d="M67.94.88h-3.4v9h-.71v-9H60.47V.18h7.47Z"/><path class="cls-1" d="M37,22.76l.92.73-.23.3-.88-.68a.19.19,0,0,0-.27,0,2.75,2.75,0,0,1-4.16-1.77,3.66,3.66,0,0,1,.26-2.58,2.7,2.7,0,0,1,2.72-1.42,2.75,2.75,0,0,1,2.5,2.61,3.61,3.61,0,0,1-.41,2.21A6.87,6.87,0,0,1,37,22.76Zm-.31-.24c.17-.25.34-.47.47-.71A3.4,3.4,0,0,0,37.41,20a2.3,2.3,0,0,0-2.49-2.29A2.13,2.13,0,0,0,33,18.92a3.27,3.27,0,0,0-.27,2,2.27,2.27,0,0,0,2.51,2.13,2.05,2.05,0,0,0,1.08-.34l-.65-.52.25-.3Z"/><path class="cls-1" d="M19.91,20.58a2.15,2.15,0,0,1,.76,1.16l.54,1.42a1.71,1.71,0,0,1,.07.21,2,2,0,0,1-.35,0,.24.24,0,0,1-.13-.13c-.19-.48-.36-.95-.55-1.42a3.36,3.36,0,0,0-.35-.68,1,1,0,0,0-.89-.46H16.92v2.68h-.38V17.42h.16c.86,0,1.71,0,2.56,0a3.58,3.58,0,0,1,1,.16,1.25,1.25,0,0,1,.91,1.27,2.78,2.78,0,0,1-.06.64,1.3,1.3,0,0,1-.9,1Zm-3-.32H18c.55,0,1.11,0,1.66-.05a1,1,0,0,0,1-1,1,1,0,0,0-.87-1.32,3.07,3.07,0,0,0-.53-.06H17.12c-.16,0-.21.05-.21.2,0,.69,0,1.37,0,2.06C16.92,20.13,16.93,20.18,16.93,20.26Z"/><path class="cls-1" d="M92.33,23.36V17.43h4.12v.39H92.74v2.24h3.47v.41H92.74V23H96.6v.41Z"/><path class="cls-1" d="M138.64,20.38a3.2,3.2,0,0,1,.75-2.18,2.63,2.63,0,0,1,2.34-.89,2.75,2.75,0,0,1,2.52,2.63,3.87,3.87,0,0,1-.33,2,2.77,2.77,0,0,1-5.21-.93C138.68,20.82,138.66,20.6,138.64,20.38Zm.43,0c0,.22,0,.45.06.67a3.38,3.38,0,0,0,.08.34,2.33,2.33,0,0,0,4.46.12,3.9,3.9,0,0,0,.16-1.48,2.3,2.3,0,0,0-2.51-2.31,2.16,2.16,0,0,0-1.91,1.17A3.1,3.1,0,0,0,139.07,20.37Z"/><path class="cls-1" d="M150.21,21.69a1,1,0,0,1,.25,0c.06,0,.14.06.15.11a1.5,1.5,0,0,0,1.28,1.2A3,3,0,0,0,153.5,23a1.17,1.17,0,0,0,.83-1.47.89.89,0,0,0-.56-.6c-.48-.17-1-.29-1.45-.44a11.69,11.69,0,0,1-1.18-.4,1.35,1.35,0,0,1-.17-2.32,2.52,2.52,0,0,1,1.71-.41,2.32,2.32,0,0,1,1.09.3,1.65,1.65,0,0,1,.85,1.22c-.35.06-.35.05-.47-.23a1.51,1.51,0,0,0-1.26-.87,2.57,2.57,0,0,0-1.4.14,1,1,0,0,0-.64,1.21.83.83,0,0,0,.54.62c.39.14.8.25,1.21.36s.85.21,1.26.37A1.48,1.48,0,0,1,154.2,23a2.61,2.61,0,0,1-1.81.48,3,3,0,0,1-1.26-.31,1.66,1.66,0,0,1-.92-1.28.31.31,0,0,1,0-.1S150.21,21.74,150.21,21.69Z"/><path class="cls-1" d="M99.18,9.9h-.69V.17h.69Z"/><path class="cls-1" d="M.38,23.35a1.87,1.87,0,0,1,.07-.22c.71-1.84,1.43-3.68,2.14-5.53a.24.24,0,0,1,.28-.19c.39,0,.39,0,.53.35q1.11,2.68,2.2,5.37c0,.07.05.14.09.24a2.57,2.57,0,0,1-.4,0,.23.23,0,0,1-.13-.14q-.33-.81-.63-1.62a.23.23,0,0,0-.25-.18H1.68a.23.23,0,0,0-.24.17q-.25.73-.54,1.47C.78,23.4.78,23.4.38,23.35ZM3,17.82H2.91l-1.3,3.27H4.34C3.88,20,3.42,18.9,3,17.82Z"/><path class="cls-1" d="M53.14,17.42h.4c0,.06,0,.12,0,.19,0,1.17,0,2.35,0,3.52a4.61,4.61,0,0,1-.12,1A1.68,1.68,0,0,1,52,23.42a3.68,3.68,0,0,1-1.55,0,1.74,1.74,0,0,1-1.4-1.7c0-1,0-2.05,0-3.07,0-.39,0-.79,0-1.2h.4c0,.07,0,.15,0,.22,0,1.2,0,2.39,0,3.59a2.82,2.82,0,0,0,.1.7,1.35,1.35,0,0,0,1.37,1.12A5.26,5.26,0,0,0,52,23a1.08,1.08,0,0,0,.91-.76,3.35,3.35,0,0,0,.2-1c0-1.19,0-2.38,0-3.57Z"/><path class="cls-1" d="M112.61,21.75a2,2,0,0,1-1.35,1.57,2.85,2.85,0,0,1-1.87,0,2.38,2.38,0,0,1-1.54-1.43,4.06,4.06,0,0,1,0-3,2.52,2.52,0,0,1,2.77-1.63,2.27,2.27,0,0,1,1.66.88,5.07,5.07,0,0,1,.4.72l0,0c-.1,0-.2,0-.3,0a.18.18,0,0,1-.12-.1,1.78,1.78,0,0,0-1.63-1.15,2.81,2.81,0,0,0-1,.09,2,2,0,0,0-1.43,1.56,3.82,3.82,0,0,0,.14,2.43,2,2,0,0,0,1.93,1.27,3.75,3.75,0,0,0,1-.16,1.38,1.38,0,0,0,.9-.89C112.23,21.71,112.23,21.71,112.61,21.75Z"/><path class="cls-1" d="M81.34,17.42v.4H79.27v5.53h-.41V17.83H76.8v-.41Z"/><path class="cls-1" d="M125.86,23.36h-.42V17.83h-2v-.41h4.54v.4h-2.07Z"/><path class="cls-1" d="M65.23,17.42h.36v5.93h-.36Z"/></g></g></svg>