<svg xmlns="http://www.w3.org/2000/svg" viewBox="0 0 62.22 49.66"><defs><style>.cls-1{isolation:isolate;}.cls-2{fill:#303030;}.cls-3{fill:#5e5e5e;}.cls-4{mix-blend-mode:screen;}.cls-5{fill:#d5d5d5;}.cls-6{fill:#242424;}.cls-7{fill:#c4c4c4;mix-blend-mode:multiply;}.cls-8{fill:#7f7f7f;}.cls-9{fill:#cbcbcb;}</style></defs><g class="cls-1"><g id="Layer_2" data-name="Layer 2"><g id="Capa_1" data-name="Capa 1"><path class="cls-2" d="M20.23,12.69v-.34a15.42,15.42,0,0,0-8,0v.34Z"/><path class="cls-3" d="M24.51,17.8a5.82,5.82,0,0,0-1-3.17.83.83,0,0,1-.67-.14l-1.94-1.43a.85.85,0,0,1-.36-.61l-.28-.1h-8l-.29.1a.85.85,0,0,1-.36.61L9.66,14.49a.81.81,0,0,1-.67.14A5.82,5.82,0,0,0,8,17.8c-.5,4.34.35,11.16.33,12.84-.11,9-.19,14.42.41,16.31a1.68,1.68,0,0,0,.78.9.68.68,0,0,1,.31-.06c.69,0,1,.45,1.8.32.5-.09.68.33.73.63.46.07.92.12,1.35.16a.37.37,0,0,1,.31-.16h4.5a.39.39,0,0,1,.32.16c.32,0,.66-.06,1-.11.05-.3.21-.77.74-.68.77.13,1.11-.32,1.8-.32a.63.63,0,0,1,.47.17,1.93,1.93,0,0,0,1-1c.59-1.89.52-7.34.41-16.31C24.16,29,25,22.14,24.51,17.8Z"/><path class="cls-4" d="M20.81,38.75a4.54,4.54,0,0,1-4.54,4.54h0a4.54,4.54,0,0,1-4.53-4.54V30.1a4.53,4.53,0,0,1,4.53-4.53h0a4.53,4.53,0,0,1,4.54,4.53Z"/><path d="M23,22.3c-.05-.11-.21-.2-.48-.32a14.81,14.81,0,0,0-2.86-.91,17.29,17.29,0,0,0-6.8,0A14.33,14.33,0,0,0,10,22c-.28.12-.43.21-.49.32a1.42,1.42,0,0,0,0,.54v0l.86,4.93.11.6a9.39,9.39,0,0,1,2.7-.78,29.32,29.32,0,0,1,6.07,0,9.54,9.54,0,0,1,2.71.78l.1-.6.86-4.93v0A1.46,1.46,0,0,0,23,22.3Z"/><path d="M21.65,41.34c0-.22-.1-.43-.15-.65l-.23.1a13.74,13.74,0,0,1-5,.76,15.35,15.35,0,0,1-5-.77L11,40.69c-.06.21-.11.42-.15.62a14.67,14.67,0,0,0-.22,4,13.65,13.65,0,0,0,2.78.81,23.55,23.55,0,0,0,5.69,0,13.39,13.39,0,0,0,2.78-.81A14.22,14.22,0,0,0,21.65,41.34Z"/><path d="M9.2,33.45l1.13.38-.19-5.1-1.09-6s-.09,1.55,0,3.77c.06,1.41.23,3.34.23,4.59S9.23,33,9.2,33.45Z"/><path d="M23.28,33.45l-1.14.38.2-5.1,1.08-6s.09,1.55,0,3.77c-.06,1.41-.23,3.34-.22,4.59A23.83,23.83,0,0,0,23.28,33.45Z"/><path d="M9.16,33.92l1.18.49.13,4.27a5.92,5.92,0,0,1-.54,1.4,5.9,5.9,0,0,1-.77,1.28S9,35.52,9.16,33.92Z"/><path d="M23.31,33.92l-1.18.49L22,38.68a5.92,5.92,0,0,0,.54,1.4,5.9,5.9,0,0,0,.77,1.28S23.44,35.52,23.31,33.92Z"/><path class="cls-5" d="M9.66,14.49l1.94-1.43a.85.85,0,0,0,.36-.61,4.7,4.7,0,0,0-1.38.72A10.68,10.68,0,0,0,9,14.63.81.81,0,0,0,9.66,14.49Z"/><path class="cls-5" d="M20.87,13.06l1.94,1.43a.83.83,0,0,0,.67.14,10.2,10.2,0,0,0-1.59-1.46,4.58,4.58,0,0,0-1.38-.72A.85.85,0,0,0,20.87,13.06Z"/><path class="cls-6" d="M11.59,48.11c-.77.13-1.11-.32-1.8-.32a.68.68,0,0,0-.31.06,8.12,8.12,0,0,0,2.84.89C12.27,48.44,12.09,48,11.59,48.11Z"/><path class="cls-6" d="M20.54,48.11c-.53-.09-.69.38-.74.68a9.44,9.44,0,0,0,3-.83.63.63,0,0,0-.47-.17C21.65,47.79,21.31,48.24,20.54,48.11Z"/><path class="cls-7" d="M17,47.77C21,47.65,22.8,46.5,22.8,46.5l-.8-1a11.38,11.38,0,0,1-5.76,1.12h0a11.39,11.39,0,0,1-5.77-1.12l-.8,1s1.79,1.15,5.84,1.27l.73,0h0Z"/><path class="cls-2" d="M25.64,24.29a6.45,6.45,0,0,0-1.46-.6.27.27,0,0,0-.15,0c-.07-.5-.66-.61-.66-.61a12.31,12.31,0,0,0,0,1.65c0,.52.36.07.55-.42l1.72.42s0,0,0-.12A.35.35,0,0,0,25.64,24.29Z"/><path class="cls-2" d="M9.09,23s-.62.11-.7.6l-.11,0a6.9,6.9,0,0,0-1.45.6.38.38,0,0,0,0,.34l0,.1,1.68-.42c.2.49.57.93.58.42A9.68,9.68,0,0,0,9.09,23Z"/><path class="cls-2" d="M18.48,48.74H14a.37.37,0,0,0-.31.16c1.41.13,2.57.11,2.57.11s1.15,0,2.56-.11A.39.39,0,0,0,18.48,48.74Z"/><path class="cls-2" d="M49.87,12.5v-.33a15.21,15.21,0,0,0-8,0v.33Z"/><path class="cls-8" d="M54.15,17.61a5.85,5.85,0,0,0-1-3.17.83.83,0,0,1-.67-.14l-1.94-1.42a.89.89,0,0,1-.36-.62l-.28-.09h-8l-.29.09a.91.91,0,0,1-.35.62l-2,1.42a.81.81,0,0,1-.67.14,5.85,5.85,0,0,0-1,3.17c-.5,4.34.35,11.17.33,12.85-.11,9-.19,14.41.41,16.3a1.68,1.68,0,0,0,.78.9.68.68,0,0,1,.31-.06c.69,0,1,.45,1.8.32.5-.09.68.33.73.63.46.07.92.12,1.35.16a.37.37,0,0,1,.31-.16h4.5a.39.39,0,0,1,.32.16c.32,0,.66-.06,1-.11.05-.29.21-.77.74-.68.77.13,1.11-.32,1.8-.32a.63.63,0,0,1,.47.17,1.86,1.86,0,0,0,1-1c.59-1.89.52-7.34.41-16.3C53.8,28.78,54.66,22,54.15,17.61Z"/><path class="cls-8" d="M54.15,17.61a5.85,5.85,0,0,0-1-3.17.83.83,0,0,1-.67-.14l-1.94-1.42a.89.89,0,0,1-.36-.62l-.28-.09h-8l-.29.09a.91.91,0,0,1-.35.62l-2,1.42a.81.81,0,0,1-.67.14,5.85,5.85,0,0,0-1,3.17c-.5,4.34.35,11.17.33,12.85-.11,9-.19,14.41.41,16.3a1.68,1.68,0,0,0,.78.9.68.68,0,0,1,.31-.06c.69,0,1,.45,1.8.32.5-.09.68.33.73.63.46.07.92.12,1.35.16a.37.37,0,0,1,.31-.16h4.5a.39.39,0,0,1,.32.16c.32,0,.66-.06,1-.11.05-.29.21-.77.74-.68.77.13,1.11-.32,1.8-.32a.63.63,0,0,1,.47.17,1.86,1.86,0,0,0,1-1c.59-1.89.52-7.34.41-16.3C53.8,28.78,54.66,22,54.15,17.61Z"/><path class="cls-4" d="M50.51,38.22A4.54,4.54,0,0,1,46,42.76h0a4.54,4.54,0,0,1-4.54-4.54V29.57A4.53,4.53,0,0,1,46,25h0a4.53,4.53,0,0,1,4.54,4.53Z"/><path d="M52.62,22.11c0-.1-.21-.2-.48-.32a15.57,15.57,0,0,0-2.86-.91,17.29,17.29,0,0,0-6.8,0,15,15,0,0,0-2.86.91,1.06,1.06,0,0,0-.49.32,1.42,1.42,0,0,0,0,.54v0L40,27.61l.11.59a9.39,9.39,0,0,1,2.7-.78,29.32,29.32,0,0,1,6.07,0,9.54,9.54,0,0,1,2.71.78l.1-.59.86-4.94v0A1.46,1.46,0,0,0,52.62,22.11Z"/><path d="M51.29,41.15c0-.22-.1-.43-.15-.65l-.23.1a13.74,13.74,0,0,1-5,.76,15.35,15.35,0,0,1-5-.77l-.23-.09c-.06.21-.11.42-.15.62a14.67,14.67,0,0,0-.22,4A13.65,13.65,0,0,0,43,45.9a22.57,22.57,0,0,0,5.69,0,13.39,13.39,0,0,0,2.78-.81A14.22,14.22,0,0,0,51.29,41.15Z"/><path d="M38.84,33.26l1.13.39-.19-5.11-1.09-6s-.09,1.55,0,3.77c.06,1.41.23,3.34.23,4.59S38.87,32.85,38.84,33.26Z"/><path d="M52.92,33.26l-1.14.39.2-5.11,1.08-6s.09,1.55,0,3.77c-.06,1.41-.23,3.34-.22,4.59A23.83,23.83,0,0,0,52.92,33.26Z"/><path d="M38.8,33.73l1.18.49.13,4.27a5.92,5.92,0,0,1-.54,1.4,5.9,5.9,0,0,1-.77,1.28S38.67,35.33,38.8,33.73Z"/><path d="M53,33.73l-1.18.49-.13,4.27a5.92,5.92,0,0,0,.54,1.4A5.9,5.9,0,0,0,53,41.17S53.08,35.33,53,33.73Z"/><path class="cls-5" d="M39.3,14.3l2-1.42a.91.91,0,0,0,.35-.62,5,5,0,0,0-1.38.72,10.68,10.68,0,0,0-1.59,1.46A.81.81,0,0,0,39.3,14.3Z"/><path class="cls-5" d="M50.51,12.88l1.94,1.42a.83.83,0,0,0,.67.14A10.2,10.2,0,0,0,51.53,13a4.81,4.81,0,0,0-1.38-.72A.89.89,0,0,0,50.51,12.88Z"/><path class="cls-6" d="M41.23,47.92c-.77.13-1.11-.32-1.8-.32a.68.68,0,0,0-.31.06,8.12,8.12,0,0,0,2.84.89C41.91,48.25,41.73,47.83,41.23,47.92Z"/><path class="cls-6" d="M50.18,47.92c-.53-.09-.69.39-.74.68a9.19,9.19,0,0,0,3-.83A.63.63,0,0,0,52,47.6C51.29,47.6,51,48.05,50.18,47.92Z"/><path class="cls-7" d="M46.6,47.59c4-.13,5.84-1.28,5.84-1.28l-.8-1a11.38,11.38,0,0,1-5.76,1.12h0a11.39,11.39,0,0,1-5.77-1.12l-.8,1s1.79,1.15,5.84,1.28H46.6Z"/><path class="cls-2" d="M55.28,24.1a7,7,0,0,0-1.46-.6.27.27,0,0,0-.15,0c-.07-.49-.66-.61-.66-.61a12.44,12.44,0,0,0,0,1.66c0,.51.36.07.55-.43l1.72.43,0-.13A.35.35,0,0,0,55.28,24.1Z"/><path class="cls-2" d="M38.73,22.84s-.62.12-.7.6l-.11,0a6.9,6.9,0,0,0-1.45.6.39.39,0,0,0,0,.34l0,.1,1.68-.42c.2.49.57.93.58.42A9.68,9.68,0,0,0,38.73,22.84Z"/><path class="cls-2" d="M48.12,48.55h-4.5a.37.37,0,0,0-.31.16c1.41.13,2.57.11,2.57.11s1.15,0,2.56-.11A.39.39,0,0,0,48.12,48.55Z"/><polygon class="cls-9" points="62.22 49.66 59.49 49.66 59.49 8.54 2.99 8.54 2.99 49.66 0.26 49.66 0.26 5.82 62.22 5.82 62.22 49.66"/><rect class="cls-9" x="29.42" y="6.97" width="2.72" height="42.62"/><rect class="cls-9" width="62.16" height="2.72"/></g></g></g></svg>