<svg width="23" height="24" viewBox="0 0 23 24" fill="none" xmlns="http://www.w3.org/2000/svg">
<path style="mix-blend-mode:multiply" d="M19.16 6.57H22.61V5.2H19.4C19.5341 4.66446 19.7252 4.14483 19.97 3.65C20.1243 3.54811 20.2532 3.41221 20.3469 3.25272C20.4405 3.09324 20.4963 2.91442 20.51 2.73V2.73C20.47 1 15.21 0 10.25 0C5.29 0 0.04 1 0 2.71C0.0137215 2.89442 0.0695289 3.07324 0.163139 3.23272C0.25675 3.39221 0.385673 3.52811 0.540001 3.63C0.970015 4.49745 1.23775 5.43622 1.33 6.4C1.5 8.2 2.91 10.99 6.66 12.1L5.93999 11.9L3.36 20.9L3.18 20.85L2.63 22.85C2.61486 22.9058 2.61087 22.9641 2.61826 23.0214C2.62564 23.0788 2.64427 23.1341 2.67306 23.1843C2.70185 23.2344 2.74025 23.2784 2.78605 23.3137C2.83185 23.349 2.88416 23.3749 2.93999 23.39L3.22 23.47C3.27647 23.4867 3.3357 23.4918 3.3942 23.4852C3.45269 23.4785 3.50925 23.4602 3.56054 23.4313C3.61183 23.4024 3.65679 23.3635 3.69277 23.3169C3.72875 23.2703 3.75501 23.2169 3.77 23.16L4.32 21.21H4.22L5.1 18H9.81V21.51H9.67V23.51C9.66727 23.6277 9.71075 23.7417 9.79114 23.8277C9.87152 23.9137 9.9824 23.9648 10.1 23.97H10.4C10.4578 23.9713 10.5153 23.9613 10.5692 23.9404C10.6231 23.9195 10.6723 23.8882 10.7141 23.8482C10.7559 23.8083 10.7894 23.7605 10.8127 23.7076C10.836 23.6548 10.8487 23.5978 10.85 23.54V21.54H10.67V18H15.36L16.24 21.08H16.1L16.67 23.11C16.6835 23.1675 16.7093 23.2213 16.7455 23.2679C16.7817 23.3145 16.8276 23.3528 16.88 23.38C16.9322 23.4023 16.9883 23.4138 17.045 23.4138C17.1017 23.4138 17.1578 23.4023 17.21 23.38L17.5 23.3C17.5557 23.2851 17.6077 23.2591 17.6531 23.2236C17.6986 23.1881 17.7364 23.1439 17.7644 23.0935C17.7924 23.0432 17.8099 22.9877 17.816 22.9304C17.8222 22.8731 17.8167 22.8151 17.8 22.76L17.26 20.76H17.11L14.54 11.76L14.17 11.86C15.4102 11.5271 16.5335 10.8562 17.4146 9.92212C18.2958 8.98803 18.9 7.8275 19.16 6.57V6.57ZM0.439995 2.73C0.439995 2.28 1.14999 1.82 2.43999 1.43L1.22 3.54C0.670001 3.28 0.439995 3 0.439995 2.73ZM19.33 3.54L18.11 1.43C19.36 1.82 20.11 2.28 20.11 2.73C20.07 3 19.81 3.28 19.33 3.54V3.54ZM12.26 4.93L11.97 0.52L12.97 0.57L13.67 4.83L12.26 4.93ZM14.09 4.79L13.44 0.61C13.78 0.61 14.12 0.67 14.44 0.7L15.44 4.61C15.05 4.68 14.58 4.74 14.09 4.79V4.79ZM15.93 4.54L14.93 0.76C15.27 0.81 15.61 0.85 15.93 0.91L17.33 4.26C16.88 4.36 16.43 4.46 15.93 4.54V4.54ZM17.73 4.14L16.42 1C16.8133 1.07333 17.1733 1.15333 17.5 1.24L18.93 3.72C18.5418 3.89161 18.1405 4.03206 17.73 4.14V4.14ZM11.53 0.5L11.82 5H10.48V0.5H11.53ZM3.00999 1.25C3.34333 1.16333 3.70333 1.08333 4.09 1.01L2.78 4.14C2.36926 4.03705 1.96786 3.8999 1.58 3.73L3.00999 1.25ZM4.61 0.91C4.92 0.85 5.26 0.81 5.61 0.76L4.61 4.54C4.11 4.46 3.61 4.36 3.24 4.26L4.61 0.91ZM6.07 0.7C6.39 0.7 6.72 0.63 7.07 0.61L6.42 4.79C5.92 4.79 5.42 4.68 5.02 4.61L6.07 0.7ZM7.52 0.57L8.52 0.52L8.23 4.93L6.84 4.83L7.52 0.57ZM8.98 0.5H9.98V5H8.67L8.98 0.5ZM5.33 10.75C5.01628 10.5698 4.7125 10.3729 4.42 10.16C4.13905 9.92568 3.87194 9.67526 3.62 9.41L3.28 9C3.17 8.86 3.09 8.71 2.99 8.57C2.81548 8.2917 2.66173 8.00092 2.53 7.7C2.43 7.4 2.31 7.13 2.25 6.86C2.18484 6.62341 2.13474 6.38293 2.1 6.14C2.1 5.92 2.1 5.73 2.1 5.58C2.08255 5.41713 2.08255 5.25287 2.1 5.09C2.11381 5.25124 2.13719 5.41153 2.17 5.57C2.25097 5.98607 2.36808 6.39428 2.52 6.79C2.61664 7.05219 2.72679 7.3092 2.85 7.56C3.01 7.81 3.15 8.1 3.34 8.35C3.53 8.6 3.52 8.62 3.63 8.75L3.97 9.12C4.20542 9.36537 4.4559 9.59581 4.72 9.81C5.01 10 5.27 10.22 5.57 10.38C5.87 10.54 6.16 10.72 6.46 10.84L7.34 11.19L8.15 11.42L8.52 11.52L8.85 11.59L9.4 11.7L9.88 11.8H9.39H8.83H8.48C8.35186 11.7855 8.2249 11.7621 8.1 11.73L7.24 11.57L6.31 11.27C5.97295 11.117 5.64566 10.9433 5.33 10.75V10.75ZM15.26 17.6H10.67V12.6H9.78V17.6H5.23L6.79 12.16C7.91541 12.478 9.08061 12.6329 10.25 12.62C11.4053 12.6281 12.5561 12.4767 13.67 12.17L15.26 17.6Z" fill="url(#paint0_linear_601_18)"/>
<defs>
<linearGradient id="paint0_linear_601_18" x1="1816.26" y1="528.062" x2="2327.47" y2="528.062" gradientUnits="userSpaceOnUse">
<stop stop-color="#CCCCCC"/>
<stop offset="1" stop-color="#B6B7B7"/>
</linearGradient>
</defs>
</svg>
