<svg xmlns="http://www.w3.org/2000/svg" xmlns:xlink="http://www.w3.org/1999/xlink" viewBox="0 0 102.94 34.14"><defs><style>.cls-1{isolation:isolate;}.cls-2,.cls-5,.cls-6{mix-blend-mode:multiply;}.cls-2{fill:url(#Áåçûìÿííûé_ãðàäèåíò_12);}.cls-3,.cls-4{fill:#fff;}.cls-3,.cls-6{fill-rule:evenodd;}.cls-5{fill:url(#Áåçûìÿííûé_ãðàäèåíò_12-2);}.cls-6{fill:url(#Áåçûìÿííûé_ãðàäèåíò_12-3);}</style><linearGradient id="Áåçûìÿííûé_ãðàäèåíò_12" y1="20" x2="70.24" y2="20" gradientUnits="userSpaceOnUse"><stop offset="0" stop-color="#ccc"/><stop offset="1" stop-color="#b6b7b7"/></linearGradient><linearGradient id="Áåçûìÿííûé_ãðàäèåíò_12-2" x1="80.33" y1="22.03" x2="102.94" y2="22.03" xlink:href="#Áåçûìÿííûé_ãðàäèåíò_12"/><linearGradient id="Áåçûìÿííûé_ãðàäèåíò_12-3" y1="1.87" x2="70.24" y2="1.87" xlink:href="#Áåçûìÿííûé_ãðàäèåíò_12"/></defs><g class="cls-1"><g id="Layer_2" data-name="Layer 2"><g id="Capa_1" data-name="Capa 1"><rect class="cls-2" y="5.86" width="70.24" height="28.28"/><path class="cls-3" d="M54.2,16.06h0a7.52,7.52,0,0,1,7.5,7.5V32h-15v-8.4a7.52,7.52,0,0,1,7.48-7.5Z"/><path class="cls-3" d="M5.59,19.08h8.62V9.9a9.56,9.56,0,0,0-8.62,9.18Z"/><path class="cls-3" d="M16,19.08h8.64A9.57,9.57,0,0,0,16,9.9Z"/><rect class="cls-4" x="16.03" y="20.88" width="8.64" height="9.23"/><rect class="cls-4" x="5.57" y="20.88" width="8.64" height="9.23"/><path class="cls-5" d="M99.49,16.57h3.45V15.2H99.73a7.73,7.73,0,0,1,.57-1.55,1.21,1.21,0,0,0,.54-.92h0C100.8,11,95.54,10,90.58,10S80.37,11,80.33,12.71h0a1.21,1.21,0,0,0,.54.92,7.94,7.94,0,0,1,.79,2.77c.17,1.8,1.58,4.59,5.33,5.7l-.72-.2-2.58,9-.18-.05-.55,2a.44.44,0,0,0,.31.54l.28.08a.44.44,0,0,0,.55-.31l.55-1.95-.1,0L85.43,28h4.71v3.51H90l0,2a.45.45,0,0,0,.43.46h.3a.44.44,0,0,0,.45-.43l0-2H91V28h4.69l.88,3.08-.14,0L97,33.11a.41.41,0,0,0,.21.27.42.42,0,0,0,.33,0l.29-.08a.43.43,0,0,0,.3-.54l-.54-2-.15,0-2.57-9-.37.1A6.93,6.93,0,0,0,99.49,16.57ZM80.77,12.73c0-.45.71-.91,2-1.3l-1.22,2.11C81,13.28,80.77,13,80.77,12.73Zm18.89.81-1.22-2.11c1.25.39,2,.85,2,1.3C100.4,13,100.14,13.28,99.66,13.54Zm-7.07,1.39-.29-4.41,1,.05L94,14.83Zm1.83-.14-.65-4.18c.34,0,.68.06,1,.09l1,3.91C95.38,14.68,94.91,14.74,94.42,14.79Zm1.84-.25-1-3.78c.34.05.68.09,1,.15l1.4,3.35C97.21,14.36,96.76,14.46,96.26,14.54Zm1.8-.4L96.75,11q.59.11,1.08.24l1.43,2.48A8,8,0,0,1,98.06,14.14Zm-6.2-3.64L92.15,15l-1.34,0v-4.5Zm-8.52.75q.5-.13,1.08-.24l-1.31,3.13a7.59,7.59,0,0,1-1.2-.41Zm1.6-.34c.31-.06.65-.1,1-.15l-1,3.78c-.5-.08-1-.18-1.37-.28Zm1.46-.21c.32,0,.65-.07,1-.09l-.65,4.18c-.5,0-1-.11-1.4-.18Zm1.45-.13,1-.05-.29,4.41-1.39-.1Zm1.46-.07,1,0V15L89,15ZM85.66,20.75a10.06,10.06,0,0,1-.91-.59,9.46,9.46,0,0,1-.8-.75L83.61,19c-.11-.14-.19-.29-.29-.43a6.68,6.68,0,0,1-.46-.87c-.1-.3-.22-.57-.28-.84a5.81,5.81,0,0,1-.15-.72c0-.22,0-.41,0-.56a2.3,2.3,0,0,1,0-.49,4.09,4.09,0,0,0,.07.48,7.29,7.29,0,0,0,.35,1.22,8.1,8.1,0,0,0,.33.77c.16.25.3.54.49.79s.18.27.29.4l.34.37a8.18,8.18,0,0,0,.75.69c.29.19.55.41.85.57s.59.34.89.46l.88.35.81.23.37.1.33.07.55.11.48.1h-.49l-.56,0-.35,0a2.79,2.79,0,0,1-.38-.07l-.86-.16-.93-.3A9,9,0,0,1,85.66,20.75Zm9.93,6.85H91v-5h-.89v5H85.56l1.56-5.44a12.23,12.23,0,0,0,3.46.46A12.55,12.55,0,0,0,94,22.17Z"/><polygon class="cls-6" points="0 3.74 4.32 0 66.87 0 70.24 3.74 0 3.74"/></g></g></g></svg>