<svg xmlns="http://www.w3.org/2000/svg" viewBox="0 0 132.72 53.92"><defs><style>.cls-1{fill:#515151;}</style></defs><g id="Layer_2" data-name="Layer 2"><g id="Capa_1" data-name="Capa 1"><path class="cls-1" d="M13.8,50.25V35.46c0-2.73-.94-3.67-2.05-4.1a3.54,3.54,0,0,0,2.05-3.54v-14a4.59,4.59,0,0,0-4.6-4.6H0V53.55H4.6V33.66H9.2V50.25a7.69,7.69,0,0,0,1,3.3h4.73A6.49,6.49,0,0,1,13.8,50.25ZM9.2,29.06H4.6V13.77H9.2Z"/><rect class="cls-1" x="18.39" y="9.17" width="4.6" height="44.37"/><path class="cls-1" d="M34,8.8a6.93,6.93,0,0,0-6.9,6.9V47a6.9,6.9,0,1,0,13.79,0V15.7A6.92,6.92,0,0,0,34,8.8ZM36.27,49h-4.6V13.77h4.6Z"/><path class="cls-1" d="M54.61,8.8a6.93,6.93,0,0,0-6.9,6.9V53.55h4.6V33.66h4.6V53.55h4.6V15.7A6.93,6.93,0,0,0,54.61,8.8Zm2.3,20.26h-4.6V13.77h4.6Z"/><path class="cls-1" d="M97.58,20.73v-5a6.9,6.9,0,1,0-13.8,0V47a6.9,6.9,0,1,0,13.8,0V42H93v7h-4.6V13.77H93v7Z"/><polygon class="cls-1" points="110.25 9.17 110.25 29.06 105.66 29.06 105.66 9.17 101.06 9.17 101.06 53.55 105.66 53.55 105.66 33.66 110.25 33.66 110.25 53.55 114.85 53.55 114.85 9.17 110.25 9.17"/><path class="cls-1" d="M125.82,8.8a6.92,6.92,0,0,0-6.89,6.9V47a6.9,6.9,0,1,0,13.79,0V15.7A6.92,6.92,0,0,0,125.82,8.8ZM128.13,49h-4.6V13.77h4.6Z"/><path class="cls-1" d="M75,9.17V26.7c0,1.74.11,3.48.24,5.19h-.4c-1.28-7.56-3.26-15.1-4.56-22.72H65.85V53.55h4.59V35.46c0-1.73-.1-3.46-.23-5.16h.43C72,38,73.82,45.75,75.17,53.55h4.47V9.17Z"/><polygon class="cls-1" points="18.39 5.62 22.99 3.86 22.99 0 18.39 1.76 18.39 5.62"/></g></g></svg>