<svg xmlns="http://www.w3.org/2000/svg" viewBox="0 0 149.95 44.93"><defs><style>.cls-1{fill:#515151;}</style></defs><g id="Layer_2" data-name="Layer 2"><g id="Capa_1" data-name="Capa 1"><path class="cls-1" d="M18.56,27.9,13.78,21H8.49V27.9H2.75V3.08H13.49a13.85,13.85,0,0,1,5.73,1.1A8.57,8.57,0,0,1,23,7.3a8.66,8.66,0,0,1,1.31,4.79,8.42,8.42,0,0,1-1.33,4.77,8.43,8.43,0,0,1-3.77,3.07l5.56,8Zm-1.45-19a6.07,6.07,0,0,0-3.94-1.12H8.49v8.66h4.68a6,6,0,0,0,3.94-1.14,3.94,3.94,0,0,0,1.35-3.19A3.94,3.94,0,0,0,17.11,8.88Z"/><path class="cls-1" d="M28.7,5.28a2.86,2.86,0,0,1-.95-2.2A2.85,2.85,0,0,1,28.7.89,3.52,3.52,0,0,1,31.18,0a3.6,3.6,0,0,1,2.49.85A2.76,2.76,0,0,1,34.62,3a3,3,0,0,1-.95,2.28,3.46,3.46,0,0,1-2.49.91A3.52,3.52,0,0,1,28.7,5.28Zm-.28,3.55H34V27.9H28.42Z"/><path class="cls-1" d="M54.8,23.65V27.9h-17V24.57l9.71-11.49H38V8.83H54.48v3.33L44.76,23.65Z"/><path class="cls-1" d="M74.05,23.65V27.9H57V24.57l9.72-11.49H57.28V8.83H73.73v3.33L64,23.65Z"/><path class="cls-1" d="M81,26.93a9.34,9.34,0,0,1-3.74-3.49,9.61,9.61,0,0,1-1.35-5.07,9.56,9.56,0,0,1,1.35-5.07A9.29,9.29,0,0,1,81,9.8a12.18,12.18,0,0,1,10.79,0,9.39,9.39,0,0,1,3.73,3.5,9.65,9.65,0,0,1,1.34,5.07,9.7,9.7,0,0,1-1.34,5.07,9.44,9.44,0,0,1-3.73,3.49,12.18,12.18,0,0,1-10.79,0Zm8.9-4.72a5.35,5.35,0,0,0,1.36-3.84,5.36,5.36,0,0,0-1.36-3.85,4.61,4.61,0,0,0-3.5-1.44,4.68,4.68,0,0,0-3.51,1.44,5.33,5.33,0,0,0-1.38,3.85,5.32,5.32,0,0,0,1.38,3.84,4.68,4.68,0,0,0,3.51,1.44A4.61,4.61,0,0,0,89.92,22.21Z"/><path class="cls-1" d="M112.87,27a5.67,5.67,0,0,1-2,.9,9.73,9.73,0,0,1-2.5.31,7.45,7.45,0,0,1-5.27-1.74,6.66,6.66,0,0,1-1.86-5.11V13.51H98.3V9.25h2.94V4.61h5.53V9.25h4.76v4.26h-4.76v7.76a2.59,2.59,0,0,0,.62,1.86,2.31,2.31,0,0,0,1.76.66,3.56,3.56,0,0,0,2.23-.71Z"/><path class="cls-1" d="M127.87,27a5.67,5.67,0,0,1-2,.9,9.79,9.79,0,0,1-2.5.31,7.43,7.43,0,0,1-5.27-1.74,6.66,6.66,0,0,1-1.86-5.11V13.51H113.3V9.25h2.94V4.61h5.53V9.25h4.75v4.26h-4.75v7.76a2.59,2.59,0,0,0,.62,1.86,2.31,2.31,0,0,0,1.76.66,3.56,3.56,0,0,0,2.23-.71Z"/><path class="cls-1" d="M134.06,26.93a9.34,9.34,0,0,1-3.74-3.49A9.61,9.61,0,0,1,129,18.37a9.56,9.56,0,0,1,1.35-5.07,9.29,9.29,0,0,1,3.74-3.5,12.18,12.18,0,0,1,10.79,0,9.39,9.39,0,0,1,3.73,3.5,9.65,9.65,0,0,1,1.34,5.07,9.7,9.7,0,0,1-1.34,5.07,9.44,9.44,0,0,1-3.73,3.49,12.18,12.18,0,0,1-10.79,0Zm8.9-4.72a5.35,5.35,0,0,0,1.36-3.84A5.36,5.36,0,0,0,143,14.52a4.61,4.61,0,0,0-3.5-1.44A4.68,4.68,0,0,0,136,14.52a5.33,5.33,0,0,0-1.38,3.85A5.32,5.32,0,0,0,136,22.21a4.68,4.68,0,0,0,3.51,1.44A4.61,4.61,0,0,0,143,22.21Z"/><path class="cls-1" d="M3.64,43.77a2.64,2.64,0,0,0,1.06-.2,3.8,3.8,0,0,0,.92-.66l.76.78a3.5,3.5,0,0,1-2.7,1.23,3.6,3.6,0,0,1-2.63-1,3.44,3.44,0,0,1-1-2.58,3.48,3.48,0,0,1,1.07-2.6,3.66,3.66,0,0,1,2.69-1,3.54,3.54,0,0,1,2.72,1.2l-.75.82a3.21,3.21,0,0,0-1-.67,2.59,2.59,0,0,0-1.05-.19A2.52,2.52,0,0,0,2,39.52a2.31,2.31,0,0,0-.72,1.75A2.42,2.42,0,0,0,2,43.06,2.32,2.32,0,0,0,3.64,43.77Z"/><path class="cls-1" d="M13.53,43.88a3.63,3.63,0,0,1-2.63,1,3.61,3.61,0,0,1-2.62-1,3.68,3.68,0,0,1,0-5.17,3.61,3.61,0,0,1,2.62-1,3.63,3.63,0,0,1,2.63,1,3.68,3.68,0,0,1,0,5.17Zm-.87-4.38a2.33,2.33,0,0,0-1.76-.74,2.31,2.31,0,0,0-1.75.74,2.6,2.6,0,0,0,0,3.59,2.31,2.31,0,0,0,1.75.74,2.33,2.33,0,0,0,1.76-.74,2.6,2.6,0,0,0,0-3.59Z"/><path class="cls-1" d="M21.33,37.85h1.18v7H21.23l-4-5.1v5.1H16.08v-7h1.18l4.07,5.22Z"/><path class="cls-1" d="M26.57,38.77a1.55,1.55,0,0,0-.85.21.7.7,0,0,0-.33.63.73.73,0,0,0,.33.65,4.85,4.85,0,0,0,1.41.49,3.82,3.82,0,0,1,1.62.73,1.75,1.75,0,0,1,.55,1.39,1.81,1.81,0,0,1-.7,1.48,2.74,2.74,0,0,1-1.81.57,4.23,4.23,0,0,1-2.91-1.13l.74-.89a3.31,3.31,0,0,0,2.2.92,1.53,1.53,0,0,0,.91-.24.78.78,0,0,0,.33-.65.73.73,0,0,0-.31-.63,3.22,3.22,0,0,0-1.09-.41c-.51-.13-.9-.24-1.17-.34a2.75,2.75,0,0,1-.71-.41,1.69,1.69,0,0,1-.62-1.44,1.75,1.75,0,0,1,.7-1.5,2.88,2.88,0,0,1,1.75-.52,4.08,4.08,0,0,1,1.33.22,3.35,3.35,0,0,1,1.15.62l-.64.89a2.22,2.22,0,0,0-.84-.46A3.21,3.21,0,0,0,26.57,38.77Z"/><path class="cls-1" d="M33.4,38.93v5.91H32.22V38.93H30.1V37.85h5.42v1.08Z"/><path class="cls-1" d="M42.39,40.12a2,2,0,0,1-1.51,2.18l1.83,2.54h-1.5l-1.67-2.35H38v2.35H36.8v-7h2.61a3.76,3.76,0,0,1,2.29.54A2.05,2.05,0,0,1,42.39,40.12Zm-1.57,1a1.26,1.26,0,0,0,.36-1,1.06,1.06,0,0,0-.37-.94,2.49,2.49,0,0,0-1.32-.25H38v2.5h1.47A2.13,2.13,0,0,0,40.82,41.11Z"/><path class="cls-1" d="M45.67,43.24a1.79,1.79,0,0,0,2.6,0,2.25,2.25,0,0,0,.48-1.52V37.85h1.18v3.92a3.14,3.14,0,0,1-.83,2.33,3.22,3.22,0,0,1-4.27,0A3.14,3.14,0,0,1,44,41.77V37.85h1.19v3.87A2.25,2.25,0,0,0,45.67,43.24Z"/><path class="cls-1" d="M54.54,44.84h-1.2V42.08l-2.61-4.23H52L53.94,41l1.91-3.18h1.29l-2.6,4.23Z"/><path class="cls-1" d="M63,37.85V39H59.21v1.85h3.36v1H59.21v1.87h3.86v1.11H58v-7Z"/><path class="cls-1" d="M69.83,37.85H71v7H69.73l-4-5.1v5.1H64.58v-7h1.18l4.07,5.22Z"/><path class="cls-1" d="M78.25,38.76a3.28,3.28,0,0,1,1,2.55,3.43,3.43,0,0,1-1,2.58,4.17,4.17,0,0,1-3,1H73v-7h2.4A4.18,4.18,0,0,1,78.25,38.76Zm-.18,2.58q0-2.4-2.76-2.4H74.13v4.79h1.31a2.84,2.84,0,0,0,2-.6A2.29,2.29,0,0,0,78.07,41.34Z"/><path class="cls-1" d="M86.64,43.88a3.86,3.86,0,0,1-5.25,0,3.68,3.68,0,0,1,0-5.17,3.86,3.86,0,0,1,5.25,0,3.68,3.68,0,0,1,0,5.17Zm-.87-4.38a2.45,2.45,0,0,0-3.51,0,2.6,2.6,0,0,0,0,3.59,2.45,2.45,0,0,0,3.51,0,2.6,2.6,0,0,0,0-3.59Z"/><path class="cls-1" d="M97.23,38.76a3.28,3.28,0,0,1,1,2.55,3.43,3.43,0,0,1-1,2.58,4.16,4.16,0,0,1-3,1H91.93v-7h2.41A4.17,4.17,0,0,1,97.23,38.76Zm-.18,2.58c0-1.6-.92-2.4-2.75-2.4H93.11v4.79h1.32a2.83,2.83,0,0,0,1.94-.6A2.29,2.29,0,0,0,97.05,41.34Z"/><path class="cls-1" d="M104.68,37.85V39h-3.74v1.85h3.36v1h-3.36v1.87h3.86v1.11h-5v-7Z"/><path class="cls-1" d="M108.43,38.77a1.55,1.55,0,0,0-.85.21.7.7,0,0,0-.33.63.73.73,0,0,0,.33.65,4.85,4.85,0,0,0,1.41.49,3.82,3.82,0,0,1,1.62.73,1.75,1.75,0,0,1,.55,1.39,1.81,1.81,0,0,1-.7,1.48,2.74,2.74,0,0,1-1.81.57,4.23,4.23,0,0,1-2.91-1.13l.74-.89a3.31,3.31,0,0,0,2.2.92,1.53,1.53,0,0,0,.91-.24.78.78,0,0,0,.33-.65.73.73,0,0,0-.31-.63,3.22,3.22,0,0,0-1.09-.41c-.51-.13-.9-.24-1.17-.34a2.75,2.75,0,0,1-.71-.41A1.69,1.69,0,0,1,106,39.7a1.75,1.75,0,0,1,.7-1.5,2.88,2.88,0,0,1,1.75-.52,4.08,4.08,0,0,1,1.33.22,3.35,3.35,0,0,1,1.15.62l-.64.89a2.22,2.22,0,0,0-.84-.46A3.21,3.21,0,0,0,108.43,38.77Z"/><path class="cls-1" d="M117.91,38.76a3.24,3.24,0,0,1,1,2.55,3.39,3.39,0,0,1-1,2.58,4.12,4.12,0,0,1-3,1h-2.32v-7H115A4.14,4.14,0,0,1,117.91,38.76Zm-.18,2.58c0-1.6-.91-2.4-2.75-2.4H113.8v4.79h1.31a2.84,2.84,0,0,0,2-.6A2.29,2.29,0,0,0,117.73,41.34Z"/><path class="cls-1" d="M125.36,37.85V39h-3.73v1.85H125v1h-3.35v1.87h3.85v1.11h-5v-7Z"/><path class="cls-1" d="M129.06,37.85h2.54v7h-1.12V38.9h-1.42Z"/><path class="cls-1" d="M135.25,43.86a1.56,1.56,0,0,0,1.37-.63,3,3,0,0,0,.45-1.7,2.69,2.69,0,0,1-.72.53,2.27,2.27,0,0,1-1,.24,2.18,2.18,0,0,1-1.58-.62,2.23,2.23,0,0,1-.64-1.67,2.14,2.14,0,0,1,.69-1.66,2.46,2.46,0,0,1,1.73-.63,2.32,2.32,0,0,1,2.32,1.5,5,5,0,0,1,.36,1.94A6.11,6.11,0,0,1,138,43a3.09,3.09,0,0,1-.63,1.14,2.53,2.53,0,0,1-1.92.82,3.26,3.26,0,0,1-2.06-.71l.59-.87a2,2,0,0,0,.62.36A1.79,1.79,0,0,0,135.25,43.86Zm.21-2.6a1.51,1.51,0,0,0,1-.34,1.07,1.07,0,0,0,.41-.87,1.26,1.26,0,0,0-.39-.92,1.37,1.37,0,0,0-1-.38,1.4,1.4,0,0,0-1,.34,1.16,1.16,0,0,0-.38.89,1.29,1.29,0,0,0,.35.91A1.23,1.23,0,0,0,135.46,41.26Z"/><path class="cls-1" d="M139.55,38.9v-1h4.1v.92L142,40.66a2.1,2.1,0,0,1,1.51.6,2,2,0,0,1,.54,1.38,2.07,2.07,0,0,1-.73,1.68,2.79,2.79,0,0,1-1.87.61,4,4,0,0,1-2.23-.73l.5-1a3.11,3.11,0,0,0,1.8.6,1.68,1.68,0,0,0,1-.28,1,1,0,0,0,.39-.82,1,1,0,0,0-.44-.86,2.06,2.06,0,0,0-1.22-.32,2.67,2.67,0,0,0-.75.11v-.9l1.62-1.88Z"/><path class="cls-1" d="M145,39.86v-2H150v1l-3,5.94h-1.3l2.89-5.92H146.1v.94Z"/></g></g></svg>