<svg xmlns="http://www.w3.org/2000/svg" xmlns:xlink="http://www.w3.org/1999/xlink" viewBox="0 0 54.57 45.97"><defs><style>.cls-1{isolation:isolate;}.cls-2,.cls-8{mix-blend-mode:multiply;}.cls-2{fill:url(#Áåçûìÿííûé_ãðàäèåíò_12);}.cls-3{fill:#d9d9d9;}.cls-4{fill:#9d9898;}.cls-5{fill:url(#Áåçûìÿííûé_ãðàäèåíò_717);}.cls-6{fill:url(#Áåçûìÿííûé_ãðàäèåíò_1029);}.cls-7{fill:#e0dfdf;}.cls-8{fill:#bdbbbf;}.cls-9{fill:url(#Áåçûìÿííûé_ãðàäèåíò_717-2);}.cls-10{fill:url(#Áåçûìÿííûé_ãðàäèåíò_1019);}.cls-11{fill:#f8f8f8;}.cls-12{fill:#f0f0ef;}.cls-13{fill:#d7d7d7;}.cls-14{fill:url(#Áåçûìÿííûé_ãðàäèåíò_1018);}.cls-15{fill:#fafafa;}.cls-16{fill:#b5b4b4;}.cls-17{fill:#070308;}.cls-18{fill:url(#Áåçûìÿííûé_ãðàäèåíò_1029-2);}.cls-19{fill:url(#Áåçûìÿííûé_ãðàäèåíò_717-3);}</style><linearGradient id="Áåçûìÿííûé_ãðàäèåíò_12" x1="15.72" y1="42.71" x2="35.49" y2="22.94" gradientUnits="userSpaceOnUse"><stop offset="0" stop-color="#ccc"/><stop offset="1" stop-color="#b6b7b7"/></linearGradient><linearGradient id="Áåçûìÿííûé_ãðàäèåíò_717" x1="-2551.67" y1="34.4" x2="-2554.54" y2="39.37" gradientTransform="translate(2603.49)" gradientUnits="userSpaceOnUse"><stop offset="0" stop-color="#999696"/><stop offset="0.15" stop-color="#9e9a9a"/><stop offset="0.26" stop-color="#a5a0a0"/><stop offset="0.26" stop-color="#bbb6b6"/><stop offset="0.26" stop-color="#c1bdbc"/><stop offset="0.62" stop-color="#c9c5c4"/><stop offset="0.63" stop-color="#dbd6d6"/><stop offset="0.64" stop-color="#dedada"/><stop offset="0.69" stop-color="#e5e3e3"/><stop offset="0.76" stop-color="#e7e5e5"/><stop offset="0.76" stop-color="#edecec"/><stop offset="0.76" stop-color="#efeeee"/><stop offset="0.77" stop-color="#efeeee"/><stop offset="0.82" stop-color="#efeeee"/><stop offset="0.99" stop-color="#f0efee"/><stop offset="0.99" stop-color="#f2eceb"/></linearGradient><linearGradient id="Áåçûìÿííûé_ãðàäèåíò_1029" x1="-6459.01" y1="13.95" x2="-6464.13" y2="22.82" gradientTransform="matrix(-1, 0, 0, 1, -6431.24, 0)" gradientUnits="userSpaceOnUse"><stop offset="0.01" stop-color="#fcfbfb"/><stop offset="0.01" stop-color="#fff"/><stop offset="0.09" stop-color="#fff"/><stop offset="0.54" stop-color="#fff"/><stop offset="0.56" stop-color="#fff"/><stop offset="0.57" stop-color="#fff"/><stop offset="0.59" stop-color="#fefdfd"/><stop offset="0.61" stop-color="#fbf6f7"/><stop offset="0.62" stop-color="#c9c5c4"/><stop offset="0.74" stop-color="#c1bdbc"/><stop offset="0.74" stop-color="#bbb6b6"/><stop offset="0.74" stop-color="#a5a0a0"/><stop offset="0.85" stop-color="#9e9a9a"/><stop offset="1" stop-color="#999696"/></linearGradient><linearGradient id="Áåçûìÿííûé_ãðàäèåíò_717-2" x1="-6457.59" y1="15.21" x2="-6459.96" y2="19.31" gradientTransform="matrix(-1, 0, 0, 1, -6431.24, 0)" xlink:href="#Áåçûìÿííûé_ãðàäèåíò_717"/><linearGradient id="Áåçûìÿííûé_ãðàäèåíò_1019" x1="-6447.05" y1="15.33" x2="-6441.79" y2="0.57" gradientTransform="matrix(-1, 0, 0, 1, -6431.24, 0)" gradientUnits="userSpaceOnUse"><stop offset="0.01" stop-color="#d8d7d7"/><stop offset="0.01" stop-color="#dad9d9"/><stop offset="0.54" stop-color="#dadada"/><stop offset="0.56" stop-color="#dadada"/><stop offset="0.57" stop-color="#dadada"/><stop offset="0.6" stop-color="#dbd8d8"/><stop offset="0.61" stop-color="#dbd6d6"/><stop offset="0.62" stop-color="#c9c5c4"/><stop offset="0.74" stop-color="#c1bdbc"/><stop offset="0.74" stop-color="#bbb6b6"/><stop offset="0.74" stop-color="#a5a0a0"/><stop offset="0.85" stop-color="#9e9a9a"/><stop offset="1" stop-color="#999696"/></linearGradient><linearGradient id="Áåçûìÿííûé_ãðàäèåíò_1018" x1="-6480.01" y1="28.58" x2="-6456.05" y2="28.58" gradientTransform="matrix(-1, 0, 0, 1, -6431.24, 0)" gradientUnits="userSpaceOnUse"><stop offset="0" stop-color="#999696"/><stop offset="0.15" stop-color="#9e9a9a"/><stop offset="0.26" stop-color="#a5a0a0"/><stop offset="0.26" stop-color="#bbb6b6"/><stop offset="0.26" stop-color="#c1bdbc"/><stop offset="0.38" stop-color="#c9c5c4"/><stop offset="0.39" stop-color="#dbd6d6"/><stop offset="0.4" stop-color="#dbd8d8"/><stop offset="0.43" stop-color="#dadada"/><stop offset="0.44" stop-color="#dadada"/><stop offset="0.46" stop-color="#dadada"/><stop offset="0.99" stop-color="#dad9d9"/><stop offset="0.99" stop-color="#d8d7d7"/></linearGradient><linearGradient id="Áåçûìÿííûé_ãðàäèåíò_1029-2" x1="-6442.13" y1="22.09" x2="-6447.23" y2="30.92" xlink:href="#Áåçûìÿííûé_ãðàäèåíò_1029"/><linearGradient id="Áåçûìÿííûé_ãðàäèåíò_717-3" x1="-6440.69" y1="23.31" x2="-6443.06" y2="27.4" gradientTransform="matrix(-1, 0, 0, 1, -6431.24, 0)" xlink:href="#Áåçûìÿííûé_ãðàäèåíò_717"/></defs><g class="cls-1"><g id="Layer_2" data-name="Layer 2"><g id="Capa_1" data-name="Capa 1"><path class="cls-2" d="M0,26.54a1,1,0,0,0,.27.72,11.61,11.61,0,0,0,2.14,1.51c1,.69,2.09,1.35,3.17,2,.74.42,1.72,1.38,2.57,1.24A35.64,35.64,0,0,0,12,30.87l.12,0,3.24,1.9,21,12.31.05,0a5.09,5.09,0,0,0,5.06.38l9-5.21c.93-.54.61-2.09-.59-2.79L28,24.63,32,23s-2.47-5.66-3.28-6A43.52,43.52,0,0,1,25,14.83l-1.07.26c-.35-.45-.72-.89-1.09-1.33a1,1,0,0,0-1.15-.46,4.12,4.12,0,0,0-1.25.51c-.68.37-1.34.78-2,1.2-.89.58-1.77,1.19-2.63,1.82a17.46,17.46,0,0,1-2.09,1.59l-7.9,4.13C4.89,23,.12,24.86,0,26.54ZM44.09,37.3c-.15.34-.79.66-1.22.92L37.8,41.15a4.64,4.64,0,0,1-1.58.71c-.7.11-1.06-.19-.42-.56l7.33-4.25C43.77,36.68,44.28,36.9,44.09,37.3ZM32.92,39.61l7.34-4.25c.51-.29.94-.21,1,0a.45.45,0,0,1,0,.22c-.15.33-.79.66-1.23.91l-5.06,2.94a4.82,4.82,0,0,1-1.58.7C32.65,40.28,32.29,40,32.92,39.61Zm-2.87-1.68,7.34-4.25c.5-.3.93-.22,1,0a.34.34,0,0,1,0,.21c-.15.33-.78.66-1.22.91l-5.07,2.94a5,5,0,0,1-1.57.71C29.78,38.59,29.42,38.3,30.05,37.93Zm-2.87-1.69L34.51,32l.23-.11.17-.05.1,0h.18a.33.33,0,0,1,.15,0h0l0,0h0a.25.25,0,0,1,.08.14.27.27,0,0,1,0,.21.59.59,0,0,1-.13.19l-.06.06-.19.15-.12.09,0,0-.09.06-.14.08-.44.26-5.07,2.93a4.64,4.64,0,0,1-1.58.71C26.9,36.91,26.54,36.61,27.18,36.24ZM24.3,34.56l7.34-4.25c.51-.3.94-.22,1,0a.44.44,0,0,1,0,.22c-.15.33-.79.66-1.23.91l-5.06,2.94a5.05,5.05,0,0,1-1.58.71C24,35.22,23.67,34.92,24.3,34.56Zm-2.87-1.69,7.34-4.25c.51-.3.93-.22,1,0a.34.34,0,0,1,0,.21c-.15.33-.78.66-1.22.92l-5.07,2.93a4.9,4.9,0,0,1-1.57.71C21.16,33.53,20.8,33.24,21.43,32.87Zm-2.87-1.69,7.33-4.25c.51-.29.94-.21,1,0a.3.3,0,0,1,0,.22c-.15.33-.79.66-1.22.91L20.56,31a4.64,4.64,0,0,1-1.58.71C18.28,31.85,17.92,31.55,18.56,31.18ZM15.37,29.8l.47-.16,4.58-1.88-2.73,1.59a5.05,5.05,0,0,1-1.58.71,1.52,1.52,0,0,1-.53,0,.34.34,0,0,1-.2-.12S15.36,29.85,15.37,29.8Z"/><path class="cls-3" d="M53.1,34.82c-.44-1,.33-2.52-.29-3.17s-1.33-.61-2.26-.06c-3.22,1.9-8.87,4.78-9.6,5.8-.54.76.1,5.68.52,6.5.16.33,1.21.62,1.7.83h0a1,1,0,0,0,.9,0l8.19-4.92C53.05,39.35,53.51,35.71,53.1,34.82Zm-.18,3.63-.05.07-7.82,4.64c-.65.38-1.26.32-1.57-.16h0c-.08-.12.14,0,.08-.07a.89.89,0,0,1-.93-.39h0a7.07,7.07,0,0,1-.18-3.07c.14-.11-.56-1.1-.17-1.36.59-.38,4.07-2.44,5.08-3,.5-.29,2.36-1.23,3-1.59.06,0,.41-.06.93.44a2.68,2.68,0,0,1,.28.3,1.26,1.26,0,0,1,.87.46C52.9,35.14,53.1,37.76,52.92,38.45Z"/><path class="cls-4" d="M52.81,31.65a1.7,1.7,0,0,0-1.36.21c-3.22,1.91-8.49,4.7-9.36,5.59s-.06,4-.06,5.1a2.34,2.34,0,0,0,1.14,2.17h0a1.74,1.74,0,0,0,1.74-.1l7.32-4.23a3.31,3.31,0,0,0,1.83-2C54.31,37.47,53.93,32,52.81,31.65Zm-.46,2.63a12.37,12.37,0,0,1,.57,4.17l-.05.07-7.82,4.64c-.65.38-1.26.32-1.57-.16h0c-.08-.12-.45-3.89-.06-4.14.59-.38,4.06-2.44,5.08-3,.5-.29,2.36-1.23,3-1.59h.06C51.66,34.2,52.11,33.74,52.35,34.28Z"/><path class="cls-5" d="M52.92,38.45l-.05.07-7.82,4.64c-.65.38-1.26.32-1.57-.16h0c-.08-.12.14,0,.08-.07a1.78,1.78,0,0,0,.64-.23L52,38.05a.13.13,0,0,0,.06-.07,8,8,0,0,0-.53-3.77c.13,0,.59-.47.82.07A12.14,12.14,0,0,1,52.92,38.45Z"/><path class="cls-6" d="M24.62,16.77c.26,1-.22,2.14.57,2.59l8.19,4.92a1,1,0,0,0,.9,0h0a5.43,5.43,0,0,0,1-.54,3.18,3.18,0,0,0,1.3-2.38,7.62,7.62,0,0,0-.38-1.75c-.13-.43-.29-.89-.46-1.36h0a12.61,12.61,0,0,0-1.66-3.38c-.87-.89-2.39-1.68-5.61-3.59-.8-.47-2.08,0-2.89.58a4.06,4.06,0,0,0-.37.32l-.09.11c-.41.48-.38,1-.57,1.59a4.55,4.55,0,0,1-.19.5C23.94,15.27,24.37,15.81,24.62,16.77Zm.53.13A9.42,9.42,0,0,1,26,15.27a3.67,3.67,0,0,1,.37-.43,1.61,1.61,0,0,1,.68-.43.52.52,0,0,1,.19,0,2.6,2.6,0,0,1,.28-.29c.52-.5.87-.48.93-.45l1.67,1c1,.59,1.82,1.06,2.41,1.44.39.26.62.43.76.54s.14.27.24.48c.16.36.38.87.61,1.49.11.3.2.56.28.8a12.85,12.85,0,0,1,.35,1.25,3.58,3.58,0,0,1-.5,1.08h0a.9.9,0,0,1-.93.4c-.06.11.16-.06.08.06h0c-.31.48-.92.54-1.57.16l-6.6-3.81s0,0,0-.06A2.39,2.39,0,0,1,25.15,16.9Z"/><path class="cls-7" d="M23.47,17.52A4.16,4.16,0,0,0,25.22,20l7.32,4.23a1.74,1.74,0,0,0,1.74.1h0a2.34,2.34,0,0,0,1.14-2.17,10.88,10.88,0,0,0-.67-2.63c-.25-.73-.55-1.48-.84-2.14h0a6.53,6.53,0,0,0-1-1.71c-.87-.89-2.39-1.69-5.61-3.59A1.69,1.69,0,0,0,26,11.83l-.17.05a2.47,2.47,0,0,0-.67.41,4,4,0,0,0-.83,1,13.94,13.94,0,0,0-.79,1.55A3.72,3.72,0,0,0,23.47,17.52Zm3.76-3.14.06,0,.77.45.9.52c1,.6,1.82,1.07,2.41,1.45a7.09,7.09,0,0,1,.76.54,13.27,13.27,0,0,1,.62,1.37c.07.18.15.38.23.6a13.83,13.83,0,0,1,.63,2.05,3.1,3.1,0,0,1-.29.73c-.06.11.16-.06.08.06h0c-.31.48-.92.54-1.57.16l-6.6-3.81s0,0,0-.06a2.39,2.39,0,0,1,0-1.57A9.42,9.42,0,0,1,26,15.27a3.67,3.67,0,0,1,.37-.43,1.61,1.61,0,0,1,.68-.43A.52.52,0,0,1,27.23,14.38Z"/><path class="cls-8" d="M24.28,13.3a3.79,3.79,0,0,0,.26.58,7,7,0,0,0,.56.88l.89.51a3.67,3.67,0,0,1,.37-.43,1.61,1.61,0,0,1,.68-.43l-1.26-2.53-.21,0a4.06,4.06,0,0,0-.37.32l-.09.11A4,4,0,0,0,24.28,13.3Z"/><path class="cls-8" d="M28.06,14.85l.9.52c1,.6,1.82,1.07,2.41,1.45a7.09,7.09,0,0,1,.76.54,13.27,13.27,0,0,1,.62,1.37c.6.26,1.16.48,1.66.64l.34.11a2.4,2.4,0,0,0,1.44.13c-.13-.43-.29-.89-.46-1.36h0c-.18-.33-1.8-.9-1.82-.91h0a4,4,0,0,0-.38-.26,40.42,40.42,0,0,0-3.74-2.23,1.81,1.81,0,0,0-1.72,0Z"/><path class="cls-9" d="M25.17,18.47s0,.05,0,.06l6.6,3.81c.65.38,1.26.32,1.57-.16h0c.08-.12-.14,0-.08-.06a1.81,1.81,0,0,1-.64-.24l-6.6-3.81A.15.15,0,0,1,26,18a2.42,2.42,0,0,1,0-1.56,8.93,8.93,0,0,1,1.22-2.06,1.28,1.28,0,0,0-.87.46,6,6,0,0,0-1.21,2.06A2.39,2.39,0,0,0,25.17,18.47Z"/><path class="cls-10" d="M4.58,10.9l1.06,1.15L8.92,19.2l.2,1.58.74,1.63a1.58,1.58,0,0,0,2.23.7l.25-.15,12-6.9a1.62,1.62,0,0,0,.82-1.31A1.57,1.57,0,0,0,25,14L19.55,2.15a3.37,3.37,0,0,0-.49-.77,3.11,3.11,0,0,0-2.39-1,2.9,2.9,0,0,0-1.51.42l-9,5.19A3.86,3.86,0,0,0,4.58,10.9Zm4-2.43,9.6-5.54.15-.08.13-.06a1.08,1.08,0,0,1-.22.37,6.94,6.94,0,0,1-1.77,1.22L9.86,8.21l-1,.54A3.74,3.74,0,0,1,8,9.1.13.13,0,0,1,8,9a.37.37,0,0,1,.07-.14.27.27,0,0,1,.07-.08l.08-.09.12-.09.08-.06Zm11-3.1a1.08,1.08,0,0,1-.22.37A7.31,7.31,0,0,1,17.62,7L11,10.78c-.29.17-.62.37-1,.54a3.07,3.07,0,0,1-.91.35c0-.15.19-.38.6-.62l9.6-5.54A1.82,1.82,0,0,1,19.6,5.37Zm1.13,2.57a1.08,1.08,0,0,1-.22.37,7.31,7.31,0,0,1-1.76,1.21l-6.63,3.84a7.74,7.74,0,0,1-1.87.89c0-.16.19-.39.6-.63l9.6-5.54Zm1.13,2.58a1,1,0,0,1-.22.36,7.06,7.06,0,0,1-1.76,1.22l-6.63,3.83c-.29.17-.63.37-1,.54a3.37,3.37,0,0,1-.91.35c0-.16.19-.39.6-.62l9.6-5.55C21.69,10.6,21.77,10.55,21.86,10.52ZM23,13.09a1.08,1.08,0,0,1-.22.37A7.31,7.31,0,0,1,21,14.67L14.38,18.5c-.29.17-.63.37-1,.54a3.43,3.43,0,0,1-.91.36c0-.16.19-.39.6-.63l9.61-5.54A2.34,2.34,0,0,1,23,13.09Z"/><path class="cls-11" d="M5.92,10.57l5.29,11.51a1.61,1.61,0,0,0,2.23.71l12.22-7.06a1.64,1.64,0,0,0,.67-2.1L20.9,1.82A3.13,3.13,0,0,0,16.67.33a.7.7,0,0,0-.17.09l-9,5.19A3.88,3.88,0,0,0,5.92,10.57ZM8,9a.37.37,0,0,1,.07-.14.27.27,0,0,1,.07-.08l.08-.09.12-.09.08-.06.17-.11,9.6-5.54.15-.08.13-.06a1.08,1.08,0,0,1-.22.37,6.94,6.94,0,0,1-1.77,1.22L9.86,8.21l-1,.54A3.74,3.74,0,0,1,8,9.1.13.13,0,0,1,8,9ZM19.32,5.51a1.82,1.82,0,0,1,.28-.14,1.08,1.08,0,0,1-.22.37A7.31,7.31,0,0,1,17.62,7L11,10.78c-.29.17-.62.37-1,.54a3.07,3.07,0,0,1-.91.35c0-.15.19-.38.6-.62ZM11.38,16.82c0-.16.19-.39.6-.62l9.6-5.55c.11-.05.19-.1.28-.13a1,1,0,0,1-.22.36,7.06,7.06,0,0,1-1.76,1.22l-6.63,3.83c-.29.17-.63.37-1,.54A3.37,3.37,0,0,1,11.38,16.82Zm-1.13-2.57c0-.16.19-.39.6-.63l9.6-5.54.28-.14a1.08,1.08,0,0,1-.22.37,7.31,7.31,0,0,1-1.76,1.21l-6.63,3.84A7.74,7.74,0,0,1,10.25,14.25Zm2.26,5.15c0-.16.19-.39.6-.63l9.61-5.54a2.34,2.34,0,0,1,.27-.14,1.08,1.08,0,0,1-.22.37A7.31,7.31,0,0,1,21,14.67L14.38,18.5c-.29.17-.63.37-1,.54A3.43,3.43,0,0,1,12.51,19.4Z"/><path class="cls-12" d="M6.94,10.1l5.28,11.51a.47.47,0,0,0,.43.27.46.46,0,0,0,.23-.06L25.1,14.76h0a.52.52,0,0,0,.18-.65L19.89,2.28a2.06,2.06,0,0,0-.83-.9,2,2,0,0,0-1-.26,2.07,2.07,0,0,0-1,.26l-9,5.2A2.75,2.75,0,0,0,6.94,10.1Zm5.57,9.3c0-.16.19-.39.6-.63l9.61-5.54a2.34,2.34,0,0,1,.27-.14,1.08,1.08,0,0,1-.22.37A7.31,7.31,0,0,1,21,14.67L14.38,18.5c-.29.17-.63.37-1,.54A3.43,3.43,0,0,1,12.51,19.4Zm-1.13-2.58c0-.16.19-.39.6-.62l9.6-5.55c.11-.05.19-.1.28-.13a1,1,0,0,1-.22.36,7.06,7.06,0,0,1-1.76,1.22l-6.63,3.83c-.29.17-.63.37-1,.54A3.37,3.37,0,0,1,11.38,16.82Zm-1.13-2.57c0-.16.19-.39.6-.63l9.6-5.54.28-.14a1.08,1.08,0,0,1-.22.37,7.31,7.31,0,0,1-1.76,1.21l-6.63,3.84A7.74,7.74,0,0,1,10.25,14.25ZM9.12,11.67c0-.15.19-.38.6-.62l9.6-5.54a1.82,1.82,0,0,1,.28-.14,1.08,1.08,0,0,1-.22.37A7.31,7.31,0,0,1,17.62,7L11,10.78c-.29.17-.62.37-1,.54A3.07,3.07,0,0,1,9.12,11.67ZM8,9.1A.13.13,0,0,1,8,9a.37.37,0,0,1,.07-.14.27.27,0,0,1,.07-.08l.08-.09.12-.09.08-.06.17-.11,9.6-5.54.15-.08.13-.06a1.08,1.08,0,0,1-.22.37,6.94,6.94,0,0,1-1.77,1.22L9.86,8.21l-1,.54A3.74,3.74,0,0,1,8,9.1Z"/><path class="cls-13" d="M12.64,21.82l12.22-7.06a.51.51,0,0,0,.21-.66L19.64,2.28a2,2,0,0,0-1.7-1.16h.12a2,2,0,0,1,1.82,1.17L25.31,14.1a.5.5,0,0,1-.21.66L12.88,21.82a.46.46,0,0,1-.23.06h-.12Z"/><path class="cls-14" d="M15,26.05l6.11,3.53,1.55-.26L35.87,37l2.76,2.75a5,5,0,0,0,5,0l10.15-5.86a1.54,1.54,0,0,0,.79-1.36V30.25L30.14,17.47a5,5,0,0,0-5,0L15,23.33A1.57,1.57,0,0,0,15,26.05Zm26.36,9.43,8.27-4.77c.71-.41,1.18-.24.9.18h0a5.12,5.12,0,0,1-1.42,1l-5.71,3.3a6.88,6.88,0,0,1-1.73.82h0C40.92,36.17,40.62,35.9,41.34,35.48ZM38.81,34l8.27-4.77c.71-.41,1.18-.24.91.18a5.19,5.19,0,0,1-1.43,1l-5.71,3.3a6.88,6.88,0,0,1-1.73.82h0C38.39,34.71,38.09,34.44,38.81,34Zm-2.53-1.45,8.27-4.78c.71-.41,1.18-.24.91.18h0A5,5,0,0,1,44,29l-5.71,3.3a6.88,6.88,0,0,1-1.73.82h0C35.86,33.25,35.57,33,36.28,32.57Zm-2.53-1.46L42,26.33c.72-.41,1.18-.24.91.18h0a4.92,4.92,0,0,1-1.42,1l-5.72,3.3a6.88,6.88,0,0,1-1.73.82h0C33.34,31.79,33,31.52,33.75,31.11Zm-2.53-1.46,8.27-4.78.26-.13.17-.06.11,0,.18,0,.15,0,0,0,0,0h0c.08.07.08.19,0,.35h0a1,1,0,0,1-.17.19.27.27,0,0,1-.08.07,1.92,1.92,0,0,1-.21.16l-.15.1,0,0-.1.07-.16.09-.5.29-5.71,3.3a7,7,0,0,1-1.74.82h0C30.81,30.33,30.51,30.06,31.22,29.65Zm-2.53-1.46L37,23.41c.71-.41,1.18-.24.9.18h0a4.92,4.92,0,0,1-1.42,1l-5.71,3.3a7,7,0,0,1-1.74.82h0C28.28,28.87,28,28.6,28.69,28.19Zm-2.52-1.46L34.44,22c.71-.41,1.18-.24.91.18h0a5.13,5.13,0,0,1-1.43,1l-5.71,3.3a6.88,6.88,0,0,1-1.73.82h0C25.75,27.41,25.45,27.14,26.17,26.73Zm-2.53-1.46,8.27-4.78c.71-.41,1.18-.24.91.18h0a5,5,0,0,1-1.43,1L25.68,25a6.88,6.88,0,0,1-1.73.82h0C23.22,26,22.92,25.68,23.64,25.27Zm-2.53-1.46L29.38,19c.71-.41,1.18-.24.91.18h0a4.85,4.85,0,0,1-1.43,1l-5.71,3.3a6.88,6.88,0,0,1-1.73.82h0C20.69,24.49,20.4,24.22,21.11,23.81Zm-2.53-1.46,8.27-4.78c.72-.41,1.18-.24.91.18h0a4.92,4.92,0,0,1-1.42,1l-5.72,3.3a6.88,6.88,0,0,1-1.73.82h0C18.17,23,17.87,22.76,18.58,22.35Z"/><path class="cls-15" d="M15,24.08l5.15,3,18.5,10.69a5,5,0,0,0,5,0l10.15-5.87a1.57,1.57,0,0,0,0-2.72L30.14,15.5a5,5,0,0,0-5,0L15,21.36a1.33,1.33,0,0,0-.3.23A1.57,1.57,0,0,0,15,24.08Zm12.86-6.55a.42.42,0,0,1-.08.22,4.92,4.92,0,0,1-1.42,1l-5.72,3.3a6.88,6.88,0,0,1-1.73.82c-.72.16-1-.11-.31-.52l8.27-4.78C27.43,17.24,27.84,17.29,27.84,17.53Zm13.5,17.95,8.27-4.77c.57-.33,1-.29,1,0a.37.37,0,0,1-.08.22,5.12,5.12,0,0,1-1.42,1l-5.71,3.3a6.88,6.88,0,0,1-1.73.82C40.92,36.17,40.62,35.9,41.34,35.48ZM38.81,34l8.27-4.77c.71-.41,1.18-.24.91.18a5.19,5.19,0,0,1-1.43,1l-5.71,3.3a6.88,6.88,0,0,1-1.73.82C38.39,34.71,38.09,34.44,38.81,34Zm-2.53-1.46,8.27-4.77c.57-.33,1-.29,1,0a.46.46,0,0,1-.08.22A5,5,0,0,1,44,29l-5.71,3.3a6.88,6.88,0,0,1-1.73.82C35.86,33.25,35.57,33,36.28,32.56Zm-2.53-1.45L42,26.33c.58-.33,1-.29,1,0a.46.46,0,0,1-.08.22,4.92,4.92,0,0,1-1.42,1l-5.72,3.3a6.88,6.88,0,0,1-1.73.82C33.34,31.79,33,31.52,33.75,31.11Zm-2.53-1.46,8.27-4.78.26-.13.17-.06.11,0,.18,0,.15,0,0,0,0,0h0a.16.16,0,0,1,.06.13.37.37,0,0,1-.08.22,1,1,0,0,1-.17.19.27.27,0,0,1-.08.07,1.92,1.92,0,0,1-.21.16l-.15.1,0,0-.1.07-.16.09-.5.29-5.71,3.3a7.12,7.12,0,0,1-1.74.82C30.81,30.33,30.51,30.06,31.22,29.65Zm-2.53-1.46L37,23.41c.57-.33,1-.28,1,0a.37.37,0,0,1-.08.22,4.92,4.92,0,0,1-1.42,1l-5.71,3.3a7,7,0,0,1-1.74.82C28.28,28.87,28,28.6,28.69,28.19Zm-2.52-1.46L34.44,22c.57-.33,1-.28,1,0a.43.43,0,0,1-.07.22,5.13,5.13,0,0,1-1.43,1l-5.71,3.3a6.88,6.88,0,0,1-1.73.82C25.75,27.41,25.45,27.14,26.17,26.73Zm-2.53-1.46,8.27-4.78c.57-.33,1-.28,1,0a.46.46,0,0,1-.08.22,5,5,0,0,1-1.43,1L25.68,25a6.88,6.88,0,0,1-1.73.82C23.22,26,22.92,25.68,23.64,25.27Zm-.49-1.76a6.88,6.88,0,0,1-1.73.82,1.25,1.25,0,0,1-.53,0,.21.21,0,0,1-.18-.1c-.05-.1.07-.26.4-.45L29.38,19c.57-.33,1-.28,1,0a.46.46,0,0,1-.08.22,4.85,4.85,0,0,1-1.43,1Z"/><path class="cls-12" d="M15.31,22.72a.45.45,0,0,0,.23.4L39.19,36.77a3.88,3.88,0,0,0,3.88,0l10.16-5.86a.47.47,0,0,0,0-.8L29.58,16.46a3.9,3.9,0,0,0-3.89,0L15.54,22.32A.45.45,0,0,0,15.31,22.72Zm26,12.76,8.27-4.77c.71-.41,1.18-.24.9.18h0a5.12,5.12,0,0,1-1.42,1l-5.71,3.3a6.88,6.88,0,0,1-1.73.82h0C40.92,36.17,40.62,35.9,41.34,35.48ZM38.81,34l8.27-4.77c.71-.41,1.18-.24.91.18a5.19,5.19,0,0,1-1.43,1l-5.71,3.3a6.88,6.88,0,0,1-1.73.82h0C38.39,34.71,38.09,34.44,38.81,34Zm-2.53-1.45,8.27-4.78c.71-.41,1.18-.24.91.18h0A5,5,0,0,1,44,29l-5.71,3.3a6.88,6.88,0,0,1-1.73.82h0C35.86,33.25,35.57,33,36.28,32.57Zm-2.53-1.46L42,26.33c.72-.41,1.18-.24.91.18h0a4.92,4.92,0,0,1-1.42,1l-5.72,3.3a6.88,6.88,0,0,1-1.73.82h0C33.34,31.79,33,31.52,33.75,31.11Zm-2.53-1.46,8.27-4.78.26-.13.17-.06.11,0,.18,0,.15,0,0,0,0,0h0c.08.07.08.19,0,.35h0a1,1,0,0,1-.17.19.27.27,0,0,1-.08.07,1.92,1.92,0,0,1-.21.16l-.15.1,0,0-.1.07-.16.09-.5.29-5.71,3.3a7,7,0,0,1-1.74.82h0C30.81,30.33,30.51,30.06,31.22,29.65Zm-2.53-1.46L37,23.41c.71-.41,1.18-.24.9.18h0a4.92,4.92,0,0,1-1.42,1l-5.71,3.3a7,7,0,0,1-1.74.82h0C28.28,28.87,28,28.6,28.69,28.19Zm-2.52-1.46L34.44,22c.71-.41,1.18-.24.91.18h0a5.13,5.13,0,0,1-1.43,1l-5.71,3.3a6.88,6.88,0,0,1-1.73.82h0C25.75,27.41,25.45,27.14,26.17,26.73Zm-2.53-1.46,8.27-4.78c.71-.41,1.18-.24.91.18h0a5,5,0,0,1-1.43,1L25.68,25a6.88,6.88,0,0,1-1.73.82h0C23.22,26,22.92,25.68,23.64,25.27Zm-2.53-1.46L29.38,19c.71-.41,1.18-.24.91.18h0a4.85,4.85,0,0,1-1.43,1l-5.71,3.3a6.88,6.88,0,0,1-1.73.82h0C20.69,24.49,20.4,24.22,21.11,23.81Zm-2.53-1.46,8.27-4.78c.72-.41,1.18-.24.91.18h0a4.92,4.92,0,0,1-1.42,1l-5.72,3.3a6.88,6.88,0,0,1-1.73.82h0C18.17,23,17.87,22.76,18.58,22.35Z"/><path class="cls-13" d="M53.23,30.42,29.58,16.76a3.9,3.9,0,0,0-3.89,0L15.54,22.62a.41.41,0,0,0-.2.25.49.49,0,0,1,0-.15.45.45,0,0,1,.23-.4l10.15-5.86a3.9,3.9,0,0,1,3.89,0L53.23,30.11a.46.46,0,0,1,.22.4.44.44,0,0,1,0,.15A.45.45,0,0,0,53.23,30.42Z"/><path class="cls-16" d="M32.82,20.67v0Z"/><path class="cls-16" d="M35.42,21.89c0-.23-.43-.26-1,.06l-8.27,4.78a1.18,1.18,0,0,0-.34.25.68.68,0,0,1,.34-.92l8.27-4.78A.64.64,0,0,1,35.42,21.89Z"/><path class="cls-16" d="M35.36,22.11v0Z"/><path class="cls-16" d="M30.3,19.19v0h0Z"/><path class="cls-16" d="M38,23.35c0-.23-.43-.26-1,.06l-8.28,4.78a1.26,1.26,0,0,0-.33.25.69.69,0,0,1,.33-.92L37,22.74A.64.64,0,0,1,38,23.35Z"/><path class="cls-16" d="M27.84,17.51c0-.23-.43-.26-1,.06l-8.27,4.78a1.57,1.57,0,0,0-.34.25.69.69,0,0,1,.34-.92l8.27-4.78A.64.64,0,0,1,27.84,17.51Z"/><path class="cls-16" d="M38.81,33.36l8.27-4.78a.64.64,0,0,1,1,.61c0-.23-.43-.26-1,.06L38.81,34a1.38,1.38,0,0,0-.34.26A.69.69,0,0,1,38.81,33.36Z"/><path class="cls-16" d="M32.89,20.43c0-.23-.43-.26-1,.06l-8.27,4.78a1.18,1.18,0,0,0-.34.25.69.69,0,0,1,.34-.92l8.27-4.78A.64.64,0,0,1,32.89,20.43Z"/><path class="cls-16" d="M48,29.41v0Z"/><path class="cls-16" d="M27.76,17.75v0Z"/><path class="cls-16" d="M49.61,30.71l-8.27,4.77a1.38,1.38,0,0,0-.34.26.68.68,0,0,1,.34-.92L49.61,30a.64.64,0,0,1,1,.61C50.57,30.42,50.16,30.39,49.61,30.71Z"/><path class="cls-16" d="M45.46,28v0Z"/><path class="cls-16" d="M30.37,19c0-.23-.44-.26-1,.06l-8.27,4.78a1.57,1.57,0,0,0-.34.25.69.69,0,0,1,.34-.92l8.27-4.78A.64.64,0,0,1,30.37,19Z"/><path class="cls-16" d="M37.89,23.57l0,0Z"/><path class="cls-16" d="M50.51,30.89l0,0Z"/><path class="cls-16" d="M45.54,27.73c0-.23-.44-.26-1,.06l-8.27,4.78a1.57,1.57,0,0,0-.34.25.69.69,0,0,1,.34-.92l8.27-4.78A.64.64,0,0,1,45.54,27.73Z"/><path class="cls-16" d="M43,26.27c0-.23-.43-.26-1,.06l-8.27,4.78a1.57,1.57,0,0,0-.34.25.69.69,0,0,1,.34-.92L42,25.66A.64.64,0,0,1,43,26.27Z"/><path class="cls-16" d="M40.48,24.81a.2.2,0,0,0-.06-.11h0l0,0,0,0-.15,0-.18,0-.11,0-.17.06-.26.13-8.27,4.78a1.57,1.57,0,0,0-.34.25.7.7,0,0,1,.34-.92l8.27-4.78A.64.64,0,0,1,40.48,24.81Z"/><path class="cls-16" d="M42.94,26.49v0Z"/><path class="cls-17" d="M8,9.1a.15.15,0,0,0,0,.09l0,0h0l.07,0a.85.85,0,0,0,.4,0,3.22,3.22,0,0,0,.94-.35,2,2,0,0,0,.25-.14l.48-.28a1.71,1.71,0,0,0,.23-.13l6.63-3.82a7.34,7.34,0,0,0,1.76-1.22.83.83,0,0,0,.24-.47c0-.11-.08-.18-.22-.18l-.12,0-.14,0-.1,0a1.08,1.08,0,0,1-.22.37,6.94,6.94,0,0,1-1.77,1.22L9.86,8.21l-1,.54A3.74,3.74,0,0,1,8,9.1Z"/><path class="cls-16" d="M8,9.1a.15.15,0,0,0,0,.09l0,0h0l.07,0a.85.85,0,0,0,.4,0,3.22,3.22,0,0,0,.94-.35,2,2,0,0,0,.25-.14l.48-.28a1.71,1.71,0,0,0,.23-.13l6.63-3.82a7.34,7.34,0,0,0,1.76-1.22.83.83,0,0,0,.24-.47c0-.11-.08-.18-.22-.18l-.12,0-.14,0-.1,0a1.08,1.08,0,0,1-.22.37,6.94,6.94,0,0,1-1.77,1.22L9.86,8.21l-1,.54A3.74,3.74,0,0,1,8,9.1Z"/><path class="cls-16" d="M9.12,11.67c0,.16.18.25.53.2a3.27,3.27,0,0,0,.94-.36c.34-.17.68-.38,1-.54l6.63-3.83a7.31,7.31,0,0,0,1.76-1.21.83.83,0,0,0,.24-.47c0-.19-.2-.25-.58-.09a1.08,1.08,0,0,1-.22.37A7.31,7.31,0,0,1,17.62,7L11,10.78c-.29.17-.62.37-1,.54A3.07,3.07,0,0,1,9.12,11.67Z"/><path class="cls-16" d="M10.25,14.25c0,.16.18.25.53.19a3.22,3.22,0,0,0,.94-.35l1-.55,6.63-3.82A7.34,7.34,0,0,0,21.07,8.5.83.83,0,0,0,21.31,8c0-.18-.21-.25-.58-.09a1.08,1.08,0,0,1-.22.37,7.31,7.31,0,0,1-1.76,1.21l-6.63,3.84A7.74,7.74,0,0,1,10.25,14.25Z"/><path class="cls-16" d="M11.38,16.82c0,.16.19.25.53.2a3.59,3.59,0,0,0,.94-.36c.34-.17.67-.38,1-.54l6.63-3.83a7.31,7.31,0,0,0,1.76-1.21.86.86,0,0,0,.24-.47c0-.19-.21-.25-.58-.09a1,1,0,0,1-.22.36,7.06,7.06,0,0,1-1.76,1.22l-6.63,3.83c-.29.17-.63.37-1,.54A3.37,3.37,0,0,1,11.38,16.82Z"/><path class="cls-16" d="M12.51,19.4c0,.16.19.25.53.19a3.38,3.38,0,0,0,.94-.36c.34-.17.67-.37,1-.54l6.63-3.82a7.42,7.42,0,0,0,1.76-1.22.83.83,0,0,0,.24-.47c0-.19-.21-.25-.58-.09a1.08,1.08,0,0,1-.22.37A7.31,7.31,0,0,1,21,14.67L14.38,18.5c-.29.17-.63.37-1,.54A3.43,3.43,0,0,1,12.51,19.4Z"/><path class="cls-8" d="M10,22.6a1.5,1.5,0,0,0,1.61.7,2.83,2.83,0,0,1,2.09.65l.53.74a1.31,1.31,0,0,0,.49,1.15c.57.37,5.78,3.38,5.78,3.38l-.34-2.17h0l-5.15-3a1.57,1.57,0,0,1-.3-2.49,4.11,4.11,0,0,0-1.4,0A18.52,18.52,0,0,0,10,22.6Z"/><path class="cls-18" d="M7.72,24.86c.26,1-.22,2.15.57,2.6l8.2,4.92a1,1,0,0,0,.89,0h0a4.88,4.88,0,0,0,1-.54,3.17,3.17,0,0,0,1.3-2.38c0-1.13-1.63-5.59-2.5-6.48s-2.38-1.69-5.6-3.59a1.92,1.92,0,0,0-2.52.55,9.26,9.26,0,0,0-1.6,2.55C7,23.36,7.47,23.9,7.72,24.86Zm.53.14a5.89,5.89,0,0,1,1.21-2.06,1.28,1.28,0,0,1,.87-.46l.28-.3c.52-.5.87-.47.93-.44l1.67,1c1,.6,1.82,1.07,2.41,1.45a7.09,7.09,0,0,1,.76.54,16.06,16.06,0,0,1,.85,2,14.21,14.21,0,0,1,.63,2,3.69,3.69,0,0,1-.5,1.08h0a.92.92,0,0,1-.94.39c-.06.11.16-.05.08.07h0c-.31.48-.92.54-1.57.16l-6.6-3.81a.13.13,0,0,1-.05-.07A2.35,2.35,0,0,1,8.25,25Z"/><path class="cls-7" d="M6.57,25.62a4.19,4.19,0,0,0,1.75,2.43l7.33,4.22a1.7,1.7,0,0,0,1.73.11h0a2.33,2.33,0,0,0,1.14-2.16c0-1.13-1.62-5.59-2.5-6.48s-2.38-1.69-5.6-3.59a1.64,1.64,0,0,0-1.37-.21c-1.12.31-1.77,1.5-2.46,3A3.72,3.72,0,0,0,6.57,25.62Zm3.76-3.14h.06l1.67,1c1,.59,1.82,1.06,2.41,1.44.39.26.62.43.76.54a14.91,14.91,0,0,1,.85,2,13.85,13.85,0,0,1,.63,2,2.8,2.8,0,0,1-.29.73c-.06.11.16-.05.08.07h0c-.31.48-.92.54-1.57.16l-6.6-3.81a.13.13,0,0,1-.05-.07,2.35,2.35,0,0,1,0-1.56,5.89,5.89,0,0,1,1.21-2.06A1.28,1.28,0,0,1,10.33,22.48Z"/><path class="cls-19" d="M8.27,26.56a.13.13,0,0,0,.05.07l6.6,3.81c.65.38,1.26.32,1.57-.16h0c.08-.12-.14,0-.08-.07a1.78,1.78,0,0,1-.64-.23L9.19,26.16a.11.11,0,0,1-.06-.07,2.49,2.49,0,0,1,0-1.56,9.6,9.6,0,0,1,1.22-2.05,1.28,1.28,0,0,0-.87.46A5.89,5.89,0,0,0,8.25,25,2.35,2.35,0,0,0,8.27,26.56Z"/></g></g></g></svg>