<svg xmlns="http://www.w3.org/2000/svg" viewBox="0 0 90.19 203.22"><defs><style>.cls-1,.cls-2,.cls-4{fill:none;stroke-linecap:round;stroke-linejoin:round;}.cls-1{stroke:#354591;}.cls-1,.cls-2{stroke-width:0.24px;}.cls-2{stroke:#354691;}.cls-3{fill:#1b2380;}.cls-4{stroke:#17226a;stroke-width:0.72px;}</style></defs><g id="Layer_2" data-name="Layer 2"><g id="Capa_1" data-name="Capa 1"><line class="cls-1" x1="0.36" y1="1.09" x2="1.27" y2="0.36"/><line class="cls-1" x1="0.36" y1="2.73" x2="2.73" y2="0.36"/><line class="cls-1" x1="0.36" y1="4.19" x2="4.38" y2="0.36"/><line class="cls-1" x1="0.36" y1="5.66" x2="5.84" y2="0.36"/><line class="cls-1" x1="0.36" y1="7.3" x2="7.3" y2="0.36"/><line class="cls-1" x1="0.36" y1="8.76" x2="8.94" y2="0.36"/><line class="cls-1" x1="0.36" y1="10.22" x2="10.4" y2="0.36"/><line class="cls-1" x1="0.36" y1="11.86" x2="11.86" y2="0.36"/><line class="cls-1" x1="0.36" y1="13.32" x2="13.51" y2="0.36"/><line class="cls-1" x1="0.36" y1="14.97" x2="14.97" y2="0.36"/><line class="cls-1" x1="0.36" y1="16.43" x2="16.61" y2="0.36"/><line class="cls-1" x1="0.36" y1="17.89" x2="18.07" y2="0.36"/><line class="cls-1" x1="0.36" y1="19.53" x2="19.53" y2="0.36"/><line class="cls-1" x1="0.36" y1="20.99" x2="21.18" y2="0.36"/><line class="cls-1" x1="0.36" y1="22.45" x2="22.64" y2="0.36"/><line class="cls-1" x1="0.36" y1="24.1" x2="24.1" y2="0.36"/><line class="cls-1" x1="0.36" y1="25.56" x2="25.74" y2="0.36"/><line class="cls-1" x1="0.36" y1="27.02" x2="27.2" y2="0.36"/><line class="cls-1" x1="0.36" y1="28.66" x2="28.66" y2="0.36"/><line class="cls-1" x1="0.36" y1="30.12" x2="30.31" y2="0.36"/><line class="cls-1" x1="0.36" y1="31.58" x2="31.77" y2="0.36"/><line class="cls-1" x1="0.36" y1="33.23" x2="33.41" y2="0.36"/><line class="cls-1" x1="0.36" y1="34.69" x2="34.87" y2="0.36"/><line class="cls-1" x1="0.36" y1="36.33" x2="36.33" y2="0.36"/><line class="cls-1" x1="0.36" y1="37.79" x2="37.97" y2="0.36"/><line class="cls-1" x1="0.36" y1="39.25" x2="39.44" y2="0.36"/><line class="cls-1" x1="0.36" y1="40.9" x2="40.9" y2="0.36"/><line class="cls-1" x1="0.36" y1="42.36" x2="42.54" y2="0.36"/><line class="cls-1" x1="0.36" y1="43.82" x2="42.91" y2="1.46"/><line class="cls-1" x1="0.36" y1="45.46" x2="42.91" y2="3.1"/><line class="cls-1" x1="0.36" y1="46.92" x2="42.91" y2="4.56"/><line class="cls-1" x1="0.36" y1="48.38" x2="42.91" y2="6.02"/><line class="cls-1" x1="0.36" y1="50.03" x2="42.91" y2="7.66"/><line class="cls-1" x1="0.36" y1="51.49" x2="42.91" y2="9.12"/><line class="cls-1" x1="0.36" y1="52.95" x2="42.91" y2="10.59"/><line class="cls-1" x1="0.36" y1="54.59" x2="42.91" y2="12.23"/><line class="cls-1" x1="0.36" y1="56.05" x2="42.91" y2="13.69"/><line class="cls-1" x1="0.36" y1="57.51" x2="42.91" y2="15.15"/><line class="cls-1" x1="0.36" y1="59.16" x2="42.91" y2="16.79"/><line class="cls-1" x1="0.36" y1="60.62" x2="42.91" y2="18.25"/><line class="cls-1" x1="0.36" y1="62.26" x2="42.91" y2="19.9"/><line class="cls-1" x1="0.36" y1="63.72" x2="42.91" y2="21.36"/><line class="cls-1" x1="0.36" y1="65.18" x2="42.91" y2="22.82"/><line class="cls-1" x1="0.36" y1="66.83" x2="42.91" y2="24.46"/><line class="cls-1" x1="0.36" y1="68.29" x2="42.91" y2="25.92"/><line class="cls-1" x1="0.36" y1="69.75" x2="42.91" y2="27.38"/><line class="cls-1" x1="0.36" y1="71.39" x2="42.91" y2="29.03"/><line class="cls-1" x1="0.36" y1="72.85" x2="42.91" y2="30.49"/><line class="cls-1" x1="0.36" y1="74.31" x2="42.91" y2="31.95"/><line class="cls-1" x1="0.36" y1="75.96" x2="42.91" y2="33.59"/><line class="cls-1" x1="0.36" y1="77.42" x2="42.91" y2="35.05"/><line class="cls-1" x1="0.36" y1="78.88" x2="42.91" y2="36.51"/><line class="cls-1" x1="0.36" y1="80.52" x2="42.91" y2="38.16"/><polyline class="cls-1" points="0.36 81.98 31.95 50.57 32.86 49.48 42.91 39.62"/><polyline class="cls-1" points="0.36 83.62 31.95 52.03 34.51 49.48 42.91 41.08"/><polyline class="cls-1" points="0.36 85.08 31.95 53.5 35.97 49.48 42.91 42.72"/><polyline class="cls-1" points="0.54 86.36 31.95 55.14 37.61 49.48 42.91 44.18"/><polyline class="cls-1" points="2 86.36 31.95 56.6 39.07 49.48 42.91 45.83"/><polyline class="cls-1" points="3.65 86.36 31.95 58.06 40.53 49.48 42.91 47.29"/><polyline class="cls-1" points="5.11 86.36 31.95 59.7 42.17 49.48 42.91 48.75"/><polyline class="cls-1" points="6.75 86.36 31.95 61.16 43.63 49.48"/><polyline class="cls-1" points="8.21 86.36 31.95 62.81 45.1 49.48"/><polyline class="cls-1" points="9.67 86.36 31.95 64.27 46.74 49.48"/><polyline class="cls-1" points="11.32 86.36 31.95 65.73 48.2 49.48"/><polyline class="cls-1" points="12.78 86.36 31.95 67.37 49.66 49.48"/><polyline class="cls-1" points="14.24 86.36 31.95 68.83 51.3 49.48"/><polyline class="cls-1" points="15.88 86.36 31.95 70.3 52.77 49.48"/><polyline class="cls-1" points="17.34 86.36 31.95 71.94 54.41 49.48"/><polyline class="cls-1" points="18.8 86.36 31.95 73.4 55.87 49.48"/><polyline class="cls-1" points="20.45 86.36 31.95 74.86 57.33 49.48"/><polyline class="cls-1" points="21.91 86.36 31.95 76.5 58.97 49.48"/><polyline class="cls-1" points="23.55 86.36 31.95 77.96 60.43 49.48"/><polyline class="cls-1" points="25.01 86.36 31.95 79.42 61.9 49.48"/><polyline class="cls-1" points="26.47 86.36 31.95 81.07 63.54 49.48"/><polyline class="cls-1" points="28.11 86.36 31.95 82.53 65 49.48"/><polyline class="cls-1" points="29.58 86.36 31.95 83.99 65.36 50.57"/><polyline class="cls-1" points="31.04 86.36 31.95 85.63 65.36 52.22"/><line class="cls-1" x1="31.95" y1="87.09" x2="65.36" y2="53.68"/><line class="cls-1" x1="31.95" y1="88.74" x2="65.36" y2="55.32"/><line class="cls-1" x1="31.95" y1="90.2" x2="65.36" y2="56.78"/><line class="cls-1" x1="31.95" y1="91.66" x2="65.36" y2="58.24"/><line class="cls-1" x1="31.95" y1="93.3" x2="65.36" y2="59.89"/><line class="cls-1" x1="31.95" y1="94.76" x2="65.36" y2="61.35"/><line class="cls-1" x1="0.36" y1="127.81" x2="1.82" y2="126.35"/><line class="cls-1" x1="31.95" y1="96.22" x2="65.36" y2="62.81"/><line class="cls-1" x1="0.36" y1="129.27" x2="3.28" y2="126.35"/><line class="cls-1" x1="31.95" y1="97.87" x2="65.36" y2="64.45"/><line class="cls-1" x1="0.36" y1="130.92" x2="4.92" y2="126.35"/><line class="cls-1" x1="31.95" y1="99.33" x2="65.36" y2="65.91"/><line class="cls-1" x1="0.36" y1="132.38" x2="6.39" y2="126.35"/><line class="cls-1" x1="31.95" y1="100.79" x2="65.36" y2="67.37"/><line class="cls-1" x1="0.36" y1="133.84" x2="8.03" y2="126.35"/><line class="cls-1" x1="31.95" y1="102.43" x2="65.36" y2="69.02"/><line class="cls-1" x1="0.36" y1="135.48" x2="9.49" y2="126.35"/><line class="cls-1" x1="31.95" y1="103.89" x2="65.36" y2="70.48"/><line class="cls-1" x1="0.36" y1="136.94" x2="10.95" y2="126.35"/><line class="cls-1" x1="31.95" y1="105.35" x2="65.36" y2="71.94"/><line class="cls-1" x1="0.36" y1="138.4" x2="12.59" y2="126.35"/><line class="cls-1" x1="31.95" y1="107" x2="65.36" y2="73.58"/><line class="cls-1" x1="0.36" y1="140.05" x2="14.05" y2="126.35"/><line class="cls-1" x1="31.95" y1="108.46" x2="65.36" y2="75.04"/><line class="cls-1" x1="0.36" y1="141.51" x2="15.52" y2="126.35"/><line class="cls-1" x1="31.95" y1="110.1" x2="65.36" y2="76.69"/><line class="cls-1" x1="0.36" y1="142.97" x2="17.16" y2="126.35"/><line class="cls-1" x1="31.95" y1="111.56" x2="65.36" y2="78.15"/><line class="cls-1" x1="0.36" y1="144.61" x2="18.62" y2="126.35"/><line class="cls-1" x1="31.95" y1="113.02" x2="65.36" y2="79.61"/><line class="cls-1" x1="0.36" y1="146.07" x2="20.08" y2="126.35"/><line class="cls-1" x1="32.5" y1="114.12" x2="65.36" y2="81.25"/><line class="cls-1" x1="0.36" y1="147.53" x2="21.72" y2="126.35"/><line class="cls-1" x1="33.96" y1="114.12" x2="65.36" y2="82.71"/><line class="cls-1" x1="0.36" y1="149.18" x2="23.18" y2="126.35"/><line class="cls-1" x1="35.6" y1="114.12" x2="65.36" y2="84.17"/><line class="cls-1" x1="0.36" y1="150.64" x2="24.83" y2="126.35"/><line class="cls-1" x1="37.06" y1="114.12" x2="65.36" y2="85.82"/><line class="cls-1" x1="0.36" y1="152.28" x2="26.29" y2="126.35"/><line class="cls-1" x1="38.52" y1="114.12" x2="65.36" y2="87.28"/><line class="cls-1" x1="0.36" y1="153.74" x2="27.75" y2="126.35"/><line class="cls-1" x1="40.17" y1="114.12" x2="65.36" y2="88.74"/><line class="cls-1" x1="0.36" y1="155.2" x2="29.39" y2="126.35"/><line class="cls-1" x1="41.63" y1="114.12" x2="65.36" y2="90.38"/><line class="cls-1" x1="0.36" y1="156.85" x2="30.85" y2="126.35"/><line class="cls-1" x1="43.09" y1="114.12" x2="65.36" y2="91.84"/><line class="cls-1" x1="0.36" y1="158.31" x2="32.31" y2="126.35"/><line class="cls-1" x1="44.73" y1="114.12" x2="65.36" y2="93.3"/><line class="cls-1" x1="0.36" y1="159.77" x2="33.96" y2="126.35"/><line class="cls-1" x1="46.19" y1="114.12" x2="65.36" y2="94.95"/><line class="cls-1" x1="0.36" y1="161.41" x2="35.42" y2="126.35"/><line class="cls-1" x1="47.65" y1="114.12" x2="65.36" y2="96.41"/><line class="cls-1" x1="0.36" y1="162.87" x2="36.88" y2="126.35"/><line class="cls-1" x1="49.3" y1="114.12" x2="65.36" y2="98.05"/><line class="cls-1" x1="0.36" y1="164.33" x2="38.52" y2="126.35"/><line class="cls-1" x1="50.76" y1="114.12" x2="65.55" y2="99.33"/><line class="cls-1" x1="0.36" y1="165.98" x2="39.98" y2="126.35"/><line class="cls-1" x1="52.4" y1="114.12" x2="67.01" y2="99.33"/><line class="cls-1" x1="0.36" y1="167.44" x2="40.53" y2="127.45"/><line class="cls-1" x1="53.86" y1="114.12" x2="68.47" y2="99.33"/><line class="cls-1" x1="0.36" y1="168.9" x2="40.53" y2="128.91"/><line class="cls-1" x1="55.32" y1="114.12" x2="70.11" y2="99.33"/><line class="cls-1" x1="0.36" y1="170.54" x2="40.53" y2="130.37"/><line class="cls-1" x1="56.97" y1="114.12" x2="71.57" y2="99.33"/><line class="cls-1" x1="0.36" y1="172" x2="40.53" y2="132.01"/><line class="cls-1" x1="58.43" y1="114.12" x2="73.03" y2="99.33"/><line class="cls-1" x1="0.36" y1="173.46" x2="40.53" y2="133.47"/><line class="cls-1" x1="59.89" y1="114.12" x2="74.68" y2="99.33"/><line class="cls-1" x1="0.36" y1="175.11" x2="40.53" y2="135.12"/><line class="cls-1" x1="61.53" y1="114.12" x2="76.14" y2="99.33"/><line class="cls-1" x1="0.36" y1="176.57" x2="40.53" y2="136.58"/><line class="cls-1" x1="62.99" y1="114.12" x2="77.78" y2="99.33"/><line class="cls-1" x1="0.36" y1="178.21" x2="40.9" y2="137.67"/><line class="cls-1" x1="64.45" y1="114.12" x2="79.24" y2="99.33"/><line class="cls-1" x1="0.36" y1="179.67" x2="42.36" y2="137.67"/><line class="cls-1" x1="66.09" y1="114.12" x2="80.7" y2="99.33"/><line class="cls-1" x1="0.36" y1="181.13" x2="43.82" y2="137.67"/><line class="cls-1" x1="67.56" y1="114.12" x2="81.25" y2="100.42"/><line class="cls-1" x1="0.36" y1="182.77" x2="45.46" y2="137.67"/><line class="cls-1" x1="69.2" y1="114.12" x2="81.25" y2="101.88"/><line class="cls-1" x1="0.36" y1="184.24" x2="46.92" y2="137.67"/><line class="cls-1" x1="70.66" y1="114.12" x2="81.25" y2="103.53"/><line class="cls-1" x1="0.36" y1="185.7" x2="48.38" y2="137.67"/><line class="cls-1" x1="72.12" y1="114.12" x2="81.25" y2="104.99"/><line class="cls-1" x1="0.36" y1="187.34" x2="50.03" y2="137.67"/><line class="cls-1" x1="73.76" y1="114.12" x2="81.25" y2="106.45"/><line class="cls-1" x1="0.36" y1="188.8" x2="51.49" y2="137.67"/><line class="cls-1" x1="75.22" y1="114.12" x2="81.25" y2="108.09"/><line class="cls-1" x1="0.36" y1="190.26" x2="53.13" y2="137.67"/><line class="cls-1" x1="76.69" y1="114.12" x2="81.25" y2="109.55"/><line class="cls-1" x1="0.36" y1="191.9" x2="54.59" y2="137.67"/><line class="cls-1" x1="78.33" y1="114.12" x2="81.25" y2="111.01"/><line class="cls-1" x1="0.36" y1="193.36" x2="56.05" y2="137.67"/><line class="cls-1" x1="79.79" y1="114.12" x2="81.25" y2="112.66"/><line class="cls-1" x1="0.36" y1="194.83" x2="57.7" y2="137.67"/><line class="cls-1" x1="0.36" y1="196.47" x2="57.88" y2="138.95"/><line class="cls-1" x1="0.36" y1="197.93" x2="57.88" y2="140.41"/><line class="cls-1" x1="0.36" y1="199.57" x2="57.88" y2="142.06"/><line class="cls-1" x1="0.36" y1="201.03" x2="57.88" y2="143.52"/><line class="cls-1" x1="0.36" y1="202.49" x2="57.88" y2="144.98"/><line class="cls-1" x1="1.46" y1="202.86" x2="57.88" y2="146.62"/><line class="cls-1" x1="3.1" y1="202.86" x2="57.88" y2="148.08"/><line class="cls-1" x1="4.56" y1="202.86" x2="57.88" y2="149.72"/><line class="cls-1" x1="6.02" y1="202.86" x2="57.88" y2="151.19"/><line class="cls-1" x1="7.66" y1="202.86" x2="57.88" y2="152.65"/><line class="cls-1" x1="9.12" y1="202.86" x2="57.88" y2="154.29"/><line class="cls-1" x1="10.77" y1="202.86" x2="57.88" y2="155.75"/><line class="cls-1" x1="12.23" y1="202.86" x2="57.88" y2="157.21"/><line class="cls-1" x1="13.69" y1="202.86" x2="57.88" y2="158.85"/><line class="cls-1" x1="15.33" y1="202.86" x2="57.88" y2="160.31"/><line class="cls-1" x1="16.79" y1="202.86" x2="57.88" y2="161.78"/><line class="cls-1" x1="18.25" y1="202.86" x2="57.88" y2="163.42"/><line class="cls-1" x1="19.9" y1="202.86" x2="57.88" y2="164.88"/><line class="cls-1" x1="21.36" y1="202.86" x2="57.88" y2="166.34"/><line class="cls-1" x1="22.82" y1="202.86" x2="57.88" y2="167.98"/><line class="cls-1" x1="24.46" y1="202.86" x2="57.88" y2="169.44"/><line class="cls-1" x1="25.92" y1="202.86" x2="57.88" y2="170.91"/><line class="cls-1" x1="27.57" y1="202.86" x2="57.88" y2="172.55"/><line class="cls-1" x1="29.03" y1="202.86" x2="57.88" y2="174.01"/><line class="cls-1" x1="30.49" y1="202.86" x2="57.88" y2="175.65"/><line class="cls-1" x1="32.13" y1="202.86" x2="57.88" y2="177.11"/><line class="cls-1" x1="33.59" y1="202.86" x2="57.88" y2="178.57"/><line class="cls-1" x1="35.05" y1="202.86" x2="57.88" y2="180.22"/><line class="cls-1" x1="36.7" y1="202.86" x2="57.88" y2="181.68"/><line class="cls-1" x1="38.16" y1="202.86" x2="57.88" y2="183.14"/><line class="cls-1" x1="39.62" y1="202.86" x2="57.88" y2="184.78"/><line class="cls-1" x1="41.26" y1="202.86" x2="57.88" y2="186.24"/><line class="cls-1" x1="42.72" y1="202.86" x2="57.88" y2="187.7"/><line class="cls-1" x1="44.37" y1="202.86" x2="57.88" y2="189.35"/><line class="cls-1" x1="45.83" y1="202.86" x2="57.88" y2="190.81"/><line class="cls-1" x1="47.29" y1="202.86" x2="57.88" y2="192.27"/><line class="cls-1" x1="48.93" y1="202.86" x2="57.88" y2="193.91"/><line class="cls-1" x1="50.39" y1="202.86" x2="57.88" y2="195.37"/><line class="cls-1" x1="51.85" y1="202.86" x2="57.88" y2="197.02"/><line class="cls-1" x1="53.5" y1="202.86" x2="57.88" y2="198.48"/><line class="cls-1" x1="54.96" y1="202.86" x2="57.88" y2="199.94"/><line class="cls-1" x1="56.42" y1="202.86" x2="57.88" y2="201.58"/><polyline class="cls-2" points="65.36 49.48 31.95 49.48 31.95 114.12 57.88 114.12 81.25 114.12 81.25 99.33 65.36 99.33 65.36 49.48"/><polygon class="cls-3" points="65.36 49.48 65.36 99.33 81.25 99.33 81.25 114.12 57.88 114.12 57.88 122.52 57.88 155.02 57.88 190.08 89.83 190.08 89.83 118.32 89.83 49.48 65.36 49.48"/><polyline class="cls-2" points="0.36 190.08 0.36 134.39 0.36 126.35 40.53 126.35 40.53 137.67 57.88 137.67 57.88 155.02 57.88 190.08 57.88 202.86 0.36 202.86 0.36 190.08"/><line class="cls-2" x1="42.91" y1="49.48" x2="89.83" y2="0.36"/><line class="cls-2" x1="42.91" y1="0.36" x2="89.83" y2="49.48"/><polyline class="cls-2" points="0.36 86.36 31.95 86.36 31.95 49.48 42.91 49.48 42.91 0.36 0.36 0.36 0.36 86.36"/><polyline class="cls-4" points="0.36 0.36 0.36 190.08 0.36 202.86 57.88 202.86 57.88 190.08 89.83 190.08 89.83 0.36 0.36 0.36"/></g></g></svg>