<svg xmlns="http://www.w3.org/2000/svg" viewBox="0 0 102.48 204.03"><defs><style>.cls-1{fill:#1b2380;}.cls-2,.cls-3,.cls-4,.cls-5{fill:none;}.cls-2{stroke:#1b2380;stroke-miterlimit:10;stroke-width:0;}.cls-3{stroke:#38579d;}.cls-3,.cls-4,.cls-5{stroke-linecap:round;stroke-linejoin:round;}.cls-3,.cls-4{stroke-width:0.24px;}.cls-4{stroke:#38589f;}.cls-5{stroke:#000;stroke-width:0.72px;}</style></defs><g id="Layer_2" data-name="Layer 2"><g id="Capa_1" data-name="Capa 1"><path class="cls-1" d="M43.82,49.68l33.55,50H43.82Zm33.55,0H43.82l33.55,50Z"/><path class="cls-2" d="M43.82,49.68l33.55,50H43.82Zm33.55,0H43.82l33.55,50Z"/><path class="cls-1" d="M43.82,99.72l49.5,14.85H43.82Zm49.5,0H43.82l49.5,14.85Z"/><path class="cls-2" d="M43.82,99.72l49.5,14.85H43.82Zm49.5,0H43.82l49.5,14.85Z"/><line class="cls-3" x1="0.12" y1="20.14" x2="0.95" y2="19.15"/><line class="cls-3" x1="12.29" y1="2.93" x2="14.86" y2="0.36"/><line class="cls-3" x1="12.29" y1="4.39" x2="16.32" y2="0.36"/><line class="cls-3" x1="12.29" y1="6.04" x2="17.97" y2="0.36"/><line class="cls-3" x1="12.29" y1="7.51" x2="19.44" y2="0.36"/><line class="cls-3" x1="12.29" y1="8.98" x2="20.91" y2="0.36"/><line class="cls-3" x1="12.29" y1="10.63" x2="22.56" y2="0.36"/><line class="cls-3" x1="12.29" y1="12.09" x2="24.02" y2="0.36"/><line class="cls-3" x1="12.29" y1="13.56" x2="25.49" y2="0.36"/><line class="cls-3" x1="12.29" y1="15.21" x2="27.14" y2="0.36"/><line class="cls-3" x1="12.29" y1="16.68" x2="28.61" y2="0.36"/><line class="cls-3" x1="12.29" y1="18.33" x2="30.07" y2="0.36"/><line class="cls-3" x1="12.29" y1="19.79" x2="31.72" y2="0.36"/><line class="cls-3" x1="12.29" y1="21.26" x2="33.19" y2="0.36"/><line class="cls-3" x1="12.29" y1="22.91" x2="34.84" y2="0.36"/><line class="cls-3" x1="12.29" y1="24.38" x2="36.31" y2="0.36"/><line class="cls-3" x1="12.29" y1="25.84" x2="37.77" y2="0.36"/><line class="cls-3" x1="12.29" y1="27.49" x2="39.42" y2="0.36"/><line class="cls-3" x1="12.29" y1="28.96" x2="40.89" y2="0.36"/><line class="cls-3" x1="12.29" y1="30.43" x2="42.36" y2="0.36"/><line class="cls-3" x1="12.29" y1="32.08" x2="44.01" y2="0.36"/><line class="cls-3" x1="12.29" y1="33.54" x2="45.47" y2="0.36"/><line class="cls-3" x1="12.29" y1="35.01" x2="46.94" y2="0.36"/><line class="cls-3" x1="12.29" y1="36.66" x2="48.59" y2="0.36"/><line class="cls-3" x1="12.29" y1="38.13" x2="50.06" y2="0.36"/><line class="cls-3" x1="12.29" y1="39.59" x2="51.71" y2="0.36"/><line class="cls-3" x1="12.29" y1="41.24" x2="53.17" y2="0.36"/><line class="cls-3" x1="12.29" y1="42.71" x2="54.64" y2="0.36"/><line class="cls-3" x1="12.29" y1="44.36" x2="54.82" y2="1.83"/><line class="cls-3" x1="12.29" y1="45.83" x2="54.82" y2="3.29"/><line class="cls-3" x1="12.29" y1="47.29" x2="54.82" y2="4.76"/><line class="cls-3" x1="12.29" y1="48.94" x2="54.82" y2="6.41"/><line class="cls-3" x1="12.29" y1="50.41" x2="54.82" y2="7.88"/><line class="cls-3" x1="12.29" y1="51.88" x2="54.82" y2="9.34"/><line class="cls-3" x1="12.29" y1="53.53" x2="54.82" y2="10.99"/><line class="cls-3" x1="12.29" y1="54.99" x2="54.82" y2="12.46"/><line class="cls-3" x1="12.29" y1="56.46" x2="54.82" y2="13.93"/><line class="cls-3" x1="12.29" y1="58.11" x2="54.82" y2="15.58"/><line class="cls-3" x1="12.29" y1="59.58" x2="54.82" y2="17.04"/><line class="cls-3" x1="12.29" y1="61.04" x2="54.82" y2="18.51"/><line class="cls-3" x1="12.29" y1="62.69" x2="54.82" y2="20.16"/><line class="cls-3" x1="12.29" y1="64.16" x2="54.82" y2="21.63"/><line class="cls-3" x1="12.29" y1="65.81" x2="54.82" y2="23.09"/><line class="cls-3" x1="12.29" y1="67.28" x2="54.82" y2="24.74"/><line class="cls-3" x1="12.29" y1="68.74" x2="54.82" y2="26.21"/><line class="cls-3" x1="12.29" y1="70.39" x2="54.82" y2="27.86"/><line class="cls-3" x1="12.29" y1="71.86" x2="54.82" y2="29.33"/><line class="cls-3" x1="12.29" y1="73.32" x2="54.82" y2="30.79"/><line class="cls-3" x1="12.29" y1="74.97" x2="54.82" y2="32.44"/><line class="cls-3" x1="12.29" y1="76.44" x2="54.82" y2="33.91"/><line class="cls-3" x1="12.29" y1="77.91" x2="54.82" y2="35.38"/><line class="cls-3" x1="12.29" y1="79.56" x2="54.82" y2="37.03"/><line class="cls-3" x1="12.29" y1="81.02" x2="54.82" y2="38.49"/><line class="cls-3" x1="12.29" y1="82.49" x2="43.82" y2="50.96"/><line class="cls-3" x1="45.11" y1="49.68" x2="54.82" y2="39.96"/><line class="cls-3" x1="12.29" y1="84.14" x2="43.82" y2="52.43"/><line class="cls-3" x1="46.57" y1="49.68" x2="54.82" y2="41.61"/><line class="cls-3" x1="12.29" y1="85.61" x2="43.82" y2="54.08"/><line class="cls-3" x1="48.22" y1="49.68" x2="54.82" y2="43.08"/><line class="cls-3" x1="12.66" y1="86.71" x2="43.82" y2="55.54"/><line class="cls-3" x1="49.69" y1="49.68" x2="54.82" y2="44.54"/><line class="cls-3" x1="14.12" y1="86.71" x2="43.82" y2="57.01"/><line class="cls-3" x1="51.16" y1="49.68" x2="54.82" y2="46.19"/><line class="cls-3" x1="15.59" y1="86.71" x2="43.82" y2="58.66"/><line class="cls-3" x1="52.81" y1="49.68" x2="54.82" y2="47.66"/><line class="cls-3" x1="17.24" y1="86.71" x2="43.82" y2="60.13"/><line class="cls-3" x1="54.27" y1="49.68" x2="54.82" y2="49.31"/><line class="cls-3" x1="18.71" y1="86.71" x2="43.82" y2="61.59"/><line class="cls-3" x1="20.17" y1="86.71" x2="43.82" y2="63.24"/><line class="cls-3" x1="21.82" y1="86.71" x2="43.82" y2="64.71"/><line class="cls-3" x1="23.29" y1="86.71" x2="43.82" y2="66.18"/><line class="cls-3" x1="24.94" y1="86.71" x2="43.82" y2="67.83"/><line class="cls-3" x1="26.41" y1="86.71" x2="43.82" y2="69.29"/><line class="cls-3" x1="27.87" y1="86.71" x2="43.82" y2="70.94"/><line class="cls-3" x1="29.52" y1="86.71" x2="43.82" y2="72.41"/><line class="cls-3" x1="30.99" y1="86.71" x2="43.82" y2="73.87"/><line class="cls-3" x1="32.46" y1="86.71" x2="43.82" y2="75.52"/><line class="cls-3" x1="34.11" y1="86.71" x2="43.82" y2="76.99"/><line class="cls-3" x1="35.57" y1="86.71" x2="43.82" y2="78.46"/><line class="cls-3" x1="37.04" y1="86.71" x2="43.82" y2="80.11"/><line class="cls-3" x1="38.69" y1="86.71" x2="43.82" y2="81.57"/><line class="cls-3" x1="40.16" y1="86.71" x2="43.82" y2="83.04"/><line class="cls-3" x1="41.81" y1="86.71" x2="43.82" y2="84.69"/><line class="cls-3" x1="77.37" y1="51.14" x2="78.84" y2="49.68"/><line class="cls-3" x1="43.27" y1="86.71" x2="43.82" y2="86.16"/><line class="cls-3" x1="77.37" y1="52.61" x2="80.31" y2="49.68"/><line class="cls-3" x1="77.37" y1="54.08" x2="81.96" y2="49.68"/><line class="cls-3" x1="77.37" y1="55.73" x2="83.42" y2="49.68"/><line class="cls-3" x1="77.37" y1="57.19" x2="84.89" y2="49.68"/><line class="cls-3" x1="77.37" y1="58.84" x2="86.54" y2="49.68"/><line class="cls-3" x1="77.37" y1="60.31" x2="88.01" y2="49.68"/><line class="cls-3" x1="0.12" y1="133.87" x2="0.12" y2="133.7"/><line class="cls-3" x1="77.37" y1="61.78" x2="89.66" y2="49.68"/><line class="cls-3" x1="0.12" y1="135.2" x2="1.61" y2="133.7"/><line class="cls-3" x1="77.37" y1="63.43" x2="91.12" y2="49.68"/><line class="cls-3" x1="12.29" y1="129.97" x2="15.41" y2="126.86"/><line class="cls-3" x1="77.37" y1="64.89" x2="92.59" y2="49.68"/><line class="cls-3" x1="12.29" y1="131.62" x2="16.87" y2="126.86"/><line class="cls-3" x1="77.37" y1="66.36" x2="94.24" y2="49.68"/><line class="cls-3" x1="12.29" y1="133.09" x2="18.52" y2="126.86"/><line class="cls-3" x1="77.37" y1="68.01" x2="95.71" y2="49.68"/><line class="cls-3" x1="12.29" y1="134.74" x2="19.99" y2="126.86"/><line class="cls-3" x1="77.37" y1="69.48" x2="97.17" y2="49.68"/><line class="cls-3" x1="12.29" y1="136.21" x2="21.46" y2="126.86"/><line class="cls-3" x1="77.37" y1="70.94" x2="98.82" y2="49.68"/><line class="cls-3" x1="12.29" y1="137.67" x2="23.11" y2="126.86"/><line class="cls-3" x1="77.37" y1="72.59" x2="100.29" y2="49.68"/><line class="cls-3" x1="12.29" y1="139.32" x2="24.57" y2="126.86"/><line class="cls-3" x1="77.37" y1="74.06" x2="101.76" y2="49.68"/><line class="cls-3" x1="12.29" y1="140.79" x2="26.22" y2="126.86"/><line class="cls-3" x1="77.37" y1="75.52" x2="102.12" y2="50.96"/><line class="cls-3" x1="12.29" y1="142.26" x2="27.69" y2="126.86"/><line class="cls-3" x1="77.37" y1="77.17" x2="102.12" y2="52.61"/><line class="cls-3" x1="12.29" y1="143.91" x2="29.16" y2="126.86"/><line class="cls-3" x1="77.37" y1="78.64" x2="102.12" y2="54.08"/><line class="cls-3" x1="12.29" y1="145.37" x2="30.81" y2="126.86"/><line class="cls-3" x1="77.37" y1="80.11" x2="102.12" y2="55.54"/><line class="cls-3" x1="12.29" y1="146.84" x2="32.27" y2="126.86"/><line class="cls-3" x1="77.37" y1="81.76" x2="102.12" y2="57.19"/><line class="cls-3" x1="12.29" y1="148.49" x2="33.74" y2="126.86"/><line class="cls-3" x1="77.37" y1="83.22" x2="102.12" y2="58.66"/><line class="cls-3" x1="12.29" y1="149.96" x2="35.39" y2="126.86"/><line class="cls-3" x1="77.37" y1="84.87" x2="102.12" y2="60.13"/><line class="cls-3" x1="12.29" y1="151.42" x2="36.86" y2="126.86"/><line class="cls-3" x1="77.37" y1="86.34" x2="102.12" y2="61.78"/><line class="cls-3" x1="12.29" y1="153.07" x2="38.32" y2="126.86"/><line class="cls-3" x1="77.37" y1="87.81" x2="102.12" y2="63.24"/><line class="cls-3" x1="12.29" y1="154.54" x2="39.97" y2="126.86"/><line class="cls-3" x1="77.37" y1="89.46" x2="102.12" y2="64.71"/><line class="cls-3" x1="12.29" y1="156.01" x2="41.44" y2="126.86"/><line class="cls-3" x1="77.37" y1="90.92" x2="102.12" y2="66.36"/><line class="cls-3" x1="12.29" y1="157.66" x2="43.09" y2="126.86"/><line class="cls-3" x1="77.37" y1="92.39" x2="102.12" y2="67.83"/><line class="cls-3" x1="12.29" y1="159.12" x2="44.56" y2="126.86"/><line class="cls-3" x1="77.37" y1="94.04" x2="102.12" y2="69.48"/><line class="cls-3" x1="12.29" y1="160.77" x2="46.02" y2="126.86"/><line class="cls-3" x1="77.37" y1="95.51" x2="102.12" y2="70.94"/><line class="cls-3" x1="12.29" y1="162.24" x2="47.67" y2="126.86"/><line class="cls-3" x1="77.37" y1="96.97" x2="102.12" y2="72.41"/><line class="cls-3" x1="12.29" y1="163.71" x2="49.14" y2="126.86"/><line class="cls-3" x1="77.37" y1="98.62" x2="102.12" y2="74.06"/><line class="cls-3" x1="12.29" y1="165.36" x2="50.61" y2="126.86"/><line class="cls-3" x1="77.74" y1="99.72" x2="102.12" y2="75.52"/><line class="cls-3" x1="12.29" y1="166.82" x2="52.26" y2="126.86"/><line class="cls-3" x1="79.39" y1="99.72" x2="102.12" y2="76.99"/><line class="cls-3" x1="12.29" y1="168.29" x2="52.44" y2="128.14"/><line class="cls-3" x1="80.86" y1="99.72" x2="102.12" y2="78.64"/><line class="cls-3" x1="12.29" y1="169.94" x2="52.44" y2="129.61"/><line class="cls-3" x1="82.32" y1="99.72" x2="102.12" y2="80.11"/><line class="cls-3" x1="12.29" y1="171.41" x2="52.44" y2="131.26"/><line class="cls-3" x1="83.97" y1="99.72" x2="102.12" y2="81.57"/><line class="cls-3" x1="12.29" y1="172.87" x2="52.44" y2="132.72"/><line class="cls-3" x1="85.44" y1="99.72" x2="102.12" y2="83.22"/><line class="cls-3" x1="70.04" y1="115.31" x2="70.77" y2="114.57"/><line class="cls-3" x1="12.29" y1="174.52" x2="52.44" y2="134.19"/><line class="cls-3" x1="86.91" y1="99.72" x2="102.12" y2="84.69"/><line class="cls-3" x1="70.04" y1="116.77" x2="72.24" y2="114.57"/><line class="cls-3" x1="12.29" y1="175.99" x2="52.44" y2="135.84"/><line class="cls-3" x1="88.56" y1="99.72" x2="102.12" y2="86.16"/><line class="cls-3" x1="70.04" y1="118.24" x2="73.71" y2="114.57"/><line class="cls-3" x1="12.29" y1="177.46" x2="52.44" y2="137.31"/><line class="cls-3" x1="90.02" y1="99.72" x2="102.12" y2="87.81"/><line class="cls-3" x1="70.04" y1="119.89" x2="75.36" y2="114.57"/><line class="cls-3" x1="12.29" y1="179.11" x2="52.99" y2="138.22"/><line class="cls-3" x1="91.49" y1="99.72" x2="102.12" y2="89.27"/><line class="cls-3" x1="70.04" y1="121.36" x2="76.82" y2="114.57"/><line class="cls-3" x1="12.29" y1="180.57" x2="54.64" y2="138.22"/><line class="cls-3" x1="93.14" y1="99.72" x2="102.12" y2="90.92"/><line class="cls-3" x1="70.04" y1="122.82" x2="78.29" y2="114.57"/><line class="cls-3" x1="12.29" y1="182.22" x2="56.11" y2="138.22"/><line class="cls-3" x1="93.32" y1="101.01" x2="102.12" y2="92.39"/><line class="cls-3" x1="70.04" y1="124.47" x2="79.94" y2="114.57"/><line class="cls-3" x1="12.29" y1="183.69" x2="57.57" y2="138.22"/><line class="cls-3" x1="93.32" y1="102.47" x2="102.12" y2="93.86"/><line class="cls-3" x1="70.04" y1="125.94" x2="81.41" y2="114.57"/><line class="cls-3" x1="12.29" y1="185.16" x2="59.22" y2="138.22"/><line class="cls-3" x1="93.32" y1="104.12" x2="102.12" y2="95.51"/><line class="cls-3" x1="70.04" y1="127.41" x2="82.87" y2="114.57"/><line class="cls-3" x1="12.29" y1="186.81" x2="60.69" y2="138.22"/><line class="cls-3" x1="93.32" y1="105.59" x2="102.12" y2="96.97"/><line class="cls-3" x1="70.04" y1="129.06" x2="84.52" y2="114.57"/><line class="cls-3" x1="12.29" y1="188.27" x2="62.16" y2="138.22"/><line class="cls-3" x1="93.32" y1="107.24" x2="102.12" y2="98.44"/><line class="cls-3" x1="70.04" y1="130.52" x2="85.99" y2="114.57"/><line class="cls-3" x1="12.29" y1="189.74" x2="63.81" y2="138.22"/><line class="cls-3" x1="93.32" y1="108.71" x2="102.12" y2="100.09"/><line class="cls-3" x1="70.04" y1="132.17" x2="87.64" y2="114.57"/><line class="cls-3" x1="12.29" y1="191.39" x2="65.27" y2="138.22"/><line class="cls-3" x1="93.32" y1="110.17" x2="102.12" y2="101.56"/><line class="cls-3" x1="70.04" y1="133.64" x2="89.11" y2="114.57"/><line class="cls-3" x1="12.29" y1="192.86" x2="66.74" y2="138.22"/><line class="cls-3" x1="93.32" y1="111.82" x2="102.12" y2="103.02"/><line class="cls-3" x1="70.04" y1="135.11" x2="90.57" y2="114.57"/><line class="cls-3" x1="12.29" y1="194.32" x2="68.39" y2="138.22"/><line class="cls-3" x1="93.32" y1="113.29" x2="102.12" y2="104.67"/><line class="cls-3" x1="70.04" y1="136.76" x2="92.22" y2="114.57"/><line class="cls-3" x1="12.29" y1="195.97" x2="69.86" y2="138.22"/><line class="cls-3" x1="70.04" y1="138.22" x2="102.12" y2="106.14"/><polyline class="cls-3" points="12.29 197.44 70.04 139.69 102.12 107.61"/><polyline class="cls-3" points="12.29 198.91 70.04 141.34 102.12 109.26"/><polyline class="cls-3" points="12.29 200.56 70.04 142.81 102.12 110.72"/><polyline class="cls-3" points="12.29 202.02 70.04 144.27 102.12 112.19"/><polyline class="cls-3" points="12.29 203.49 70.04 145.92 102.12 113.84"/><polyline class="cls-3" points="13.57 203.67 70.04 147.39 102.12 115.31"/><polyline class="cls-3" points="15.04 203.67 70.04 148.86 102.12 116.96"/><polyline class="cls-3" points="16.69 203.67 70.04 150.51 102.12 118.42"/><polyline class="cls-3" points="18.16 203.67 70.04 151.97 102.12 119.89"/><polyline class="cls-3" points="19.62 203.67 70.04 153.44 102.12 121.54"/><polyline class="cls-3" points="21.27 203.67 70.04 155.09 102.12 123.01"/><polyline class="cls-3" points="22.74 203.67 70.04 156.56 102.12 124.47"/><polyline class="cls-3" points="24.21 203.67 70.04 158.21 102.12 126.12"/><polyline class="cls-3" points="25.86 203.67 70.04 159.67 102.12 127.59"/><polyline class="cls-3" points="27.32 203.67 70.04 161.14 102.12 129.06"/><polyline class="cls-3" points="28.97 203.67 70.04 162.79 102.12 130.71"/><polyline class="cls-3" points="30.44 203.67 70.04 164.26 102.12 132.17"/><polyline class="cls-3" points="31.91 203.67 70.04 165.72 102.12 133.64"/><polyline class="cls-3" points="33.56 203.67 70.04 167.37 102.12 135.29"/><polyline class="cls-3" points="35.02 203.67 70.04 168.84 102.12 136.76"/><polyline class="cls-3" points="36.49 203.67 70.04 170.31 102.12 138.41"/><polyline class="cls-3" points="38.14 203.67 70.04 171.96 102.12 139.87"/><polyline class="cls-3" points="39.61 203.67 70.04 173.42 102.12 141.34"/><polyline class="cls-3" points="41.07 203.67 70.04 174.89 102.12 142.99"/><polyline class="cls-3" points="42.72 203.67 70.04 176.54 102.12 144.46"/><polyline class="cls-3" points="44.19 203.67 70.04 178.01 102.12 145.92"/><polyline class="cls-3" points="45.84 203.67 70.04 179.66 102.12 147.57"/><polyline class="cls-3" points="47.31 203.67 70.04 181.12 102.12 149.04"/><polyline class="cls-3" points="48.77 203.67 70.04 182.59 102.12 150.51"/><polyline class="cls-3" points="50.42 203.67 70.04 184.24 102.12 152.16"/><polyline class="cls-3" points="51.89 203.67 70.04 185.71 102.12 153.62"/><polyline class="cls-3" points="53.36 203.67 70.04 187.17 102.12 155.09"/><polyline class="cls-3" points="55.01 203.67 70.04 188.82 102.12 156.74"/><polyline class="cls-3" points="56.47 203.67 70.04 190.29 102.12 158.21"/><line class="cls-3" x1="57.94" y1="203.67" x2="70.04" y2="191.76"/><line class="cls-3" x1="70.96" y1="190.84" x2="102.12" y2="159.67"/><line class="cls-3" x1="59.59" y1="203.67" x2="70.04" y2="193.41"/><line class="cls-3" x1="72.61" y1="190.84" x2="102.12" y2="161.32"/><line class="cls-3" x1="61.06" y1="203.67" x2="70.04" y2="194.87"/><line class="cls-3" x1="74.07" y1="190.84" x2="102.12" y2="162.79"/><line class="cls-3" x1="62.71" y1="203.67" x2="70.04" y2="196.34"/><line class="cls-3" x1="75.72" y1="190.84" x2="102.12" y2="164.44"/><line class="cls-3" x1="64.17" y1="203.67" x2="70.04" y2="197.99"/><line class="cls-3" x1="77.19" y1="190.84" x2="102.12" y2="165.91"/><line class="cls-3" x1="65.64" y1="203.67" x2="70.04" y2="199.46"/><line class="cls-3" x1="78.66" y1="190.84" x2="102.12" y2="167.37"/><line class="cls-3" x1="67.29" y1="203.67" x2="70.04" y2="200.92"/><line class="cls-3" x1="80.31" y1="190.84" x2="102.12" y2="169.02"/><line class="cls-3" x1="68.76" y1="203.67" x2="70.04" y2="202.57"/><line class="cls-3" x1="81.77" y1="190.84" x2="102.12" y2="170.49"/><line class="cls-3" x1="83.24" y1="190.84" x2="102.12" y2="171.96"/><line class="cls-3" x1="84.89" y1="190.84" x2="102.12" y2="173.61"/><line class="cls-3" x1="86.36" y1="190.84" x2="102.12" y2="175.07"/><line class="cls-3" x1="87.82" y1="190.84" x2="102.12" y2="176.54"/><line class="cls-3" x1="89.47" y1="190.84" x2="102.12" y2="178.19"/><line class="cls-3" x1="90.94" y1="190.84" x2="102.12" y2="179.66"/><line class="cls-3" x1="92.41" y1="190.84" x2="102.12" y2="181.12"/><line class="cls-3" x1="94.06" y1="190.84" x2="102.12" y2="182.77"/><line class="cls-3" x1="95.52" y1="190.84" x2="102.12" y2="184.24"/><line class="cls-3" x1="97.17" y1="190.84" x2="102.12" y2="185.89"/><line class="cls-3" x1="98.64" y1="190.84" x2="102.12" y2="187.36"/><line class="cls-3" x1="100.11" y1="190.84" x2="102.12" y2="188.82"/><line class="cls-3" x1="101.76" y1="190.84" x2="102.12" y2="190.47"/><polyline class="cls-4" points="77.37 49.68 43.82 49.68 43.82 114.57 70.04 114.57 93.32 114.57 93.32 99.72 77.37 99.72 77.37 49.68"/><polyline class="cls-4" points="102.12 118.79 102.12 190.84 70.04 190.84 70.04 155.64 70.04 123.01 70.04 114.57 93.32 114.57 93.32 99.72 77.37 99.72 77.37 49.68 102.12 49.68 102.12 118.79"/><polyline class="cls-4" points="12.29 190.84 12.29 134.92 12.29 126.86 52.44 126.86 52.44 138.22 70.04 138.22 70.04 155.64 70.04 190.84 70.04 203.67 12.29 203.67 12.29 190.84"/><line class="cls-4" x1="54.82" y1="49.68" x2="102.12" y2="0.36"/><line class="cls-4" x1="54.82" y1="0.36" x2="102.12" y2="49.68"/><polyline class="cls-4" points="12.29 86.71 43.82 86.71 43.82 49.68 54.82 49.68 54.82 0.36 12.29 0.36 12.29 86.71"/><polyline class="cls-5" points="12.29 0.36 12.29 190.84 12.29 203.67 70.04 203.67 70.04 190.84 102.12 190.84 102.12 0.36 12.29 0.36"/></g></g></svg>