<svg xmlns="http://www.w3.org/2000/svg" viewBox="0 0 90.55 204.03"><defs><style>.cls-1{fill:#1b2380;}.cls-2,.cls-3,.cls-4,.cls-5{fill:none;}.cls-2{stroke:#1b2380;stroke-miterlimit:10;stroke-width:0;}.cls-3{stroke:#38579d;}.cls-3,.cls-4,.cls-5{stroke-linecap:round;stroke-linejoin:round;}.cls-3,.cls-4{stroke-width:0.24px;}.cls-4{stroke:#38589f;}.cls-5{stroke:#000;stroke-width:0.72px;}</style></defs><g id="Layer_2" data-name="Layer 2"><g id="Capa_1" data-name="Capa 1"><path class="cls-1" d="M31.89,49.68l33.55,50H31.89Zm33.55,0H31.89l33.55,50Z"/><path class="cls-2" d="M31.89,49.68l33.55,50H31.89Zm33.55,0H31.89l33.55,50Z"/><path class="cls-1" d="M31.89,99.72l49.5,14.85H31.89Zm49.5,0H31.89l49.5,14.85Z"/><path class="cls-2" d="M31.89,99.72l49.5,14.85H31.89Zm49.5,0H31.89l49.5,14.85Z"/><line class="cls-3" x1="0.36" y1="2.93" x2="2.93" y2="0.36"/><line class="cls-3" x1="0.36" y1="4.39" x2="4.39" y2="0.36"/><line class="cls-3" x1="0.36" y1="6.04" x2="6.04" y2="0.36"/><line class="cls-3" x1="0.36" y1="7.51" x2="7.51" y2="0.36"/><line class="cls-3" x1="0.36" y1="8.98" x2="8.98" y2="0.36"/><line class="cls-3" x1="0.36" y1="10.63" x2="10.63" y2="0.36"/><line class="cls-3" x1="0.36" y1="12.09" x2="12.09" y2="0.36"/><line class="cls-3" x1="0.36" y1="13.56" x2="13.56" y2="0.36"/><line class="cls-3" x1="0.36" y1="15.21" x2="15.21" y2="0.36"/><line class="cls-3" x1="0.36" y1="16.68" x2="16.68" y2="0.36"/><line class="cls-3" x1="0.36" y1="18.33" x2="18.14" y2="0.36"/><line class="cls-3" x1="0.36" y1="19.79" x2="19.79" y2="0.36"/><line class="cls-3" x1="0.36" y1="21.26" x2="21.26" y2="0.36"/><line class="cls-3" x1="0.36" y1="22.91" x2="22.91" y2="0.36"/><line class="cls-3" x1="0.36" y1="24.38" x2="24.38" y2="0.36"/><line class="cls-3" x1="0.36" y1="25.84" x2="25.84" y2="0.36"/><line class="cls-3" x1="0.36" y1="27.49" x2="27.49" y2="0.36"/><line class="cls-3" x1="0.36" y1="28.96" x2="28.96" y2="0.36"/><line class="cls-3" x1="0.36" y1="30.43" x2="30.43" y2="0.36"/><line class="cls-3" x1="0.36" y1="32.08" x2="32.08" y2="0.36"/><line class="cls-3" x1="0.36" y1="33.54" x2="33.54" y2="0.36"/><line class="cls-3" x1="0.36" y1="35.01" x2="35.01" y2="0.36"/><line class="cls-3" x1="0.36" y1="36.66" x2="36.66" y2="0.36"/><line class="cls-3" x1="0.36" y1="38.13" x2="38.13" y2="0.36"/><line class="cls-3" x1="0.36" y1="39.59" x2="39.78" y2="0.36"/><line class="cls-3" x1="0.36" y1="41.24" x2="41.24" y2="0.36"/><line class="cls-3" x1="0.36" y1="42.71" x2="42.71" y2="0.36"/><line class="cls-3" x1="0.36" y1="44.36" x2="42.89" y2="1.83"/><line class="cls-3" x1="0.36" y1="45.83" x2="42.89" y2="3.29"/><line class="cls-3" x1="0.36" y1="47.29" x2="42.89" y2="4.76"/><line class="cls-3" x1="0.36" y1="48.94" x2="42.89" y2="6.41"/><line class="cls-3" x1="0.36" y1="50.41" x2="42.89" y2="7.88"/><line class="cls-3" x1="0.36" y1="51.88" x2="42.89" y2="9.34"/><line class="cls-3" x1="0.36" y1="53.53" x2="42.89" y2="10.99"/><line class="cls-3" x1="0.36" y1="54.99" x2="42.89" y2="12.46"/><line class="cls-3" x1="0.36" y1="56.46" x2="42.89" y2="13.93"/><line class="cls-3" x1="0.36" y1="58.11" x2="42.89" y2="15.58"/><line class="cls-3" x1="0.36" y1="59.58" x2="42.89" y2="17.04"/><line class="cls-3" x1="0.36" y1="61.04" x2="42.89" y2="18.51"/><line class="cls-3" x1="0.36" y1="62.69" x2="42.89" y2="20.16"/><line class="cls-3" x1="0.36" y1="64.16" x2="42.89" y2="21.63"/><line class="cls-3" x1="0.36" y1="65.81" x2="42.89" y2="23.09"/><line class="cls-3" x1="0.36" y1="67.28" x2="42.89" y2="24.74"/><line class="cls-3" x1="0.36" y1="68.74" x2="42.89" y2="26.21"/><line class="cls-3" x1="0.36" y1="70.39" x2="42.89" y2="27.86"/><line class="cls-3" x1="0.36" y1="71.86" x2="42.89" y2="29.33"/><line class="cls-3" x1="0.36" y1="73.32" x2="42.89" y2="30.79"/><line class="cls-3" x1="0.36" y1="74.97" x2="42.89" y2="32.44"/><line class="cls-3" x1="0.36" y1="76.44" x2="42.89" y2="33.91"/><line class="cls-3" x1="0.36" y1="77.91" x2="42.89" y2="35.38"/><line class="cls-3" x1="0.36" y1="79.56" x2="42.89" y2="37.03"/><line class="cls-3" x1="0.36" y1="81.02" x2="42.89" y2="38.49"/><line class="cls-3" x1="0.36" y1="82.49" x2="31.89" y2="50.96"/><line class="cls-3" x1="33.18" y1="49.68" x2="42.89" y2="39.96"/><line class="cls-3" x1="0.36" y1="84.14" x2="31.89" y2="52.43"/><line class="cls-3" x1="34.64" y1="49.68" x2="42.89" y2="41.61"/><line class="cls-3" x1="0.36" y1="85.61" x2="31.89" y2="54.08"/><line class="cls-3" x1="36.29" y1="49.68" x2="42.89" y2="43.08"/><line class="cls-3" x1="0.73" y1="86.71" x2="31.89" y2="55.54"/><line class="cls-3" x1="37.76" y1="49.68" x2="42.89" y2="44.54"/><line class="cls-3" x1="2.19" y1="86.71" x2="31.89" y2="57.01"/><line class="cls-3" x1="39.23" y1="49.68" x2="42.89" y2="46.19"/><line class="cls-3" x1="3.66" y1="86.71" x2="31.89" y2="58.66"/><line class="cls-3" x1="40.88" y1="49.68" x2="42.89" y2="47.66"/><line class="cls-3" x1="5.31" y1="86.71" x2="31.89" y2="60.13"/><line class="cls-3" x1="42.34" y1="49.68" x2="42.89" y2="49.31"/><line class="cls-3" x1="6.78" y1="86.71" x2="31.89" y2="61.59"/><line class="cls-3" x1="8.24" y1="86.71" x2="31.89" y2="63.24"/><line class="cls-3" x1="9.89" y1="86.71" x2="31.89" y2="64.71"/><line class="cls-3" x1="11.36" y1="86.71" x2="31.89" y2="66.18"/><line class="cls-3" x1="13.01" y1="86.71" x2="31.89" y2="67.83"/><line class="cls-3" x1="14.48" y1="86.71" x2="31.89" y2="69.29"/><line class="cls-3" x1="15.94" y1="86.71" x2="31.89" y2="70.94"/><line class="cls-3" x1="17.59" y1="86.71" x2="31.89" y2="72.41"/><line class="cls-3" x1="19.06" y1="86.71" x2="31.89" y2="73.87"/><line class="cls-3" x1="20.53" y1="86.71" x2="31.89" y2="75.52"/><line class="cls-3" x1="22.18" y1="86.71" x2="31.89" y2="76.99"/><line class="cls-3" x1="23.64" y1="86.71" x2="31.89" y2="78.46"/><line class="cls-3" x1="25.11" y1="86.71" x2="31.89" y2="80.11"/><line class="cls-3" x1="26.76" y1="86.71" x2="31.89" y2="81.57"/><line class="cls-3" x1="28.23" y1="86.71" x2="31.89" y2="83.04"/><line class="cls-3" x1="29.88" y1="86.71" x2="31.89" y2="84.69"/><line class="cls-3" x1="65.44" y1="51.14" x2="66.91" y2="49.68"/><line class="cls-3" x1="31.34" y1="86.71" x2="31.89" y2="86.16"/><line class="cls-3" x1="65.44" y1="52.61" x2="68.38" y2="49.68"/><line class="cls-3" x1="65.44" y1="54.08" x2="70.03" y2="49.68"/><line class="cls-3" x1="65.44" y1="55.73" x2="71.49" y2="49.68"/><line class="cls-3" x1="65.44" y1="57.19" x2="72.96" y2="49.68"/><line class="cls-3" x1="65.44" y1="58.84" x2="74.61" y2="49.68"/><line class="cls-3" x1="65.44" y1="60.31" x2="76.07" y2="49.68"/><line class="cls-3" x1="65.44" y1="61.78" x2="77.72" y2="49.68"/><line class="cls-3" x1="65.44" y1="63.43" x2="79.19" y2="49.68"/><line class="cls-3" x1="0.36" y1="129.97" x2="3.48" y2="126.86"/><line class="cls-3" x1="65.44" y1="64.89" x2="80.66" y2="49.68"/><line class="cls-3" x1="0.36" y1="131.62" x2="4.94" y2="126.86"/><line class="cls-3" x1="65.44" y1="66.36" x2="82.31" y2="49.68"/><line class="cls-3" x1="0.36" y1="133.09" x2="6.59" y2="126.86"/><line class="cls-3" x1="65.44" y1="68.01" x2="83.77" y2="49.68"/><line class="cls-3" x1="0.36" y1="134.74" x2="8.06" y2="126.86"/><line class="cls-3" x1="65.44" y1="69.48" x2="85.24" y2="49.68"/><line class="cls-3" x1="0.36" y1="136.21" x2="9.53" y2="126.86"/><line class="cls-3" x1="65.44" y1="70.94" x2="86.89" y2="49.68"/><line class="cls-3" x1="0.36" y1="137.67" x2="11.18" y2="126.86"/><line class="cls-3" x1="65.44" y1="72.59" x2="88.36" y2="49.68"/><line class="cls-3" x1="0.36" y1="139.32" x2="12.64" y2="126.86"/><line class="cls-3" x1="65.44" y1="74.06" x2="89.82" y2="49.68"/><line class="cls-3" x1="0.36" y1="140.79" x2="14.29" y2="126.86"/><line class="cls-3" x1="65.44" y1="75.52" x2="90.19" y2="50.96"/><line class="cls-3" x1="0.36" y1="142.26" x2="15.76" y2="126.86"/><line class="cls-3" x1="65.44" y1="77.17" x2="90.19" y2="52.61"/><line class="cls-3" x1="0.36" y1="143.91" x2="17.23" y2="126.86"/><line class="cls-3" x1="65.44" y1="78.64" x2="90.19" y2="54.08"/><line class="cls-3" x1="0.36" y1="145.37" x2="18.88" y2="126.86"/><line class="cls-3" x1="65.44" y1="80.11" x2="90.19" y2="55.54"/><line class="cls-3" x1="0.36" y1="146.84" x2="20.34" y2="126.86"/><line class="cls-3" x1="65.44" y1="81.76" x2="90.19" y2="57.19"/><line class="cls-3" x1="0.36" y1="148.49" x2="21.81" y2="126.86"/><line class="cls-3" x1="65.44" y1="83.22" x2="90.19" y2="58.66"/><line class="cls-3" x1="0.36" y1="149.96" x2="23.46" y2="126.86"/><line class="cls-3" x1="65.44" y1="84.87" x2="90.19" y2="60.13"/><line class="cls-3" x1="0.36" y1="151.42" x2="24.93" y2="126.86"/><line class="cls-3" x1="65.44" y1="86.34" x2="90.19" y2="61.78"/><line class="cls-3" x1="0.36" y1="153.07" x2="26.39" y2="126.86"/><line class="cls-3" x1="65.44" y1="87.81" x2="90.19" y2="63.24"/><line class="cls-3" x1="0.36" y1="154.54" x2="28.04" y2="126.86"/><line class="cls-3" x1="65.44" y1="89.46" x2="90.19" y2="64.71"/><line class="cls-3" x1="0.36" y1="156.01" x2="29.51" y2="126.86"/><line class="cls-3" x1="65.44" y1="90.92" x2="90.19" y2="66.36"/><line class="cls-3" x1="0.36" y1="157.66" x2="31.16" y2="126.86"/><line class="cls-3" x1="65.44" y1="92.39" x2="90.19" y2="67.83"/><line class="cls-3" x1="0.36" y1="159.12" x2="32.63" y2="126.86"/><line class="cls-3" x1="65.44" y1="94.04" x2="90.19" y2="69.48"/><line class="cls-3" x1="0.36" y1="160.77" x2="34.09" y2="126.86"/><line class="cls-3" x1="65.44" y1="95.51" x2="90.19" y2="70.94"/><line class="cls-3" x1="0.36" y1="162.24" x2="35.74" y2="126.86"/><line class="cls-3" x1="65.44" y1="96.97" x2="90.19" y2="72.41"/><line class="cls-3" x1="0.36" y1="163.71" x2="37.21" y2="126.86"/><line class="cls-3" x1="65.44" y1="98.62" x2="90.19" y2="74.06"/><line class="cls-3" x1="0.36" y1="165.36" x2="38.68" y2="126.86"/><line class="cls-3" x1="65.81" y1="99.72" x2="90.19" y2="75.52"/><line class="cls-3" x1="0.36" y1="166.82" x2="40.33" y2="126.86"/><line class="cls-3" x1="67.46" y1="99.72" x2="90.19" y2="76.99"/><line class="cls-3" x1="0.36" y1="168.29" x2="40.51" y2="128.14"/><line class="cls-3" x1="68.93" y1="99.72" x2="90.19" y2="78.64"/><line class="cls-3" x1="0.36" y1="169.94" x2="40.51" y2="129.61"/><line class="cls-3" x1="70.39" y1="99.72" x2="90.19" y2="80.11"/><line class="cls-3" x1="0.36" y1="171.41" x2="40.51" y2="131.26"/><line class="cls-3" x1="72.04" y1="99.72" x2="90.19" y2="81.57"/><line class="cls-3" x1="0.36" y1="172.87" x2="40.51" y2="132.72"/><line class="cls-3" x1="73.51" y1="99.72" x2="90.19" y2="83.22"/><line class="cls-3" x1="58.11" y1="115.31" x2="58.84" y2="114.57"/><line class="cls-3" x1="0.36" y1="174.52" x2="40.51" y2="134.19"/><line class="cls-3" x1="74.97" y1="99.72" x2="90.19" y2="84.69"/><line class="cls-3" x1="58.11" y1="116.77" x2="60.31" y2="114.57"/><line class="cls-3" x1="0.36" y1="175.99" x2="40.51" y2="135.84"/><line class="cls-3" x1="76.62" y1="99.72" x2="90.19" y2="86.16"/><line class="cls-3" x1="58.11" y1="118.24" x2="61.78" y2="114.57"/><line class="cls-3" x1="0.36" y1="177.46" x2="40.51" y2="137.31"/><line class="cls-3" x1="78.09" y1="99.72" x2="90.19" y2="87.81"/><line class="cls-3" x1="58.11" y1="119.89" x2="63.43" y2="114.57"/><line class="cls-3" x1="0.36" y1="179.11" x2="41.06" y2="138.22"/><line class="cls-3" x1="79.56" y1="99.72" x2="90.19" y2="89.27"/><line class="cls-3" x1="58.11" y1="121.36" x2="64.89" y2="114.57"/><line class="cls-3" x1="0.36" y1="180.57" x2="42.71" y2="138.22"/><line class="cls-3" x1="81.21" y1="99.72" x2="90.19" y2="90.92"/><line class="cls-3" x1="58.11" y1="122.82" x2="66.36" y2="114.57"/><line class="cls-3" x1="0.36" y1="182.22" x2="44.18" y2="138.22"/><line class="cls-3" x1="81.39" y1="101.01" x2="90.19" y2="92.39"/><line class="cls-3" x1="58.11" y1="124.47" x2="68.01" y2="114.57"/><line class="cls-3" x1="0.36" y1="183.69" x2="45.64" y2="138.22"/><line class="cls-3" x1="81.39" y1="102.47" x2="90.19" y2="93.86"/><line class="cls-3" x1="58.11" y1="125.94" x2="69.48" y2="114.57"/><line class="cls-3" x1="0.36" y1="185.16" x2="47.29" y2="138.22"/><line class="cls-3" x1="81.39" y1="104.12" x2="90.19" y2="95.51"/><line class="cls-3" x1="58.11" y1="127.41" x2="70.94" y2="114.57"/><line class="cls-3" x1="0.36" y1="186.81" x2="48.76" y2="138.22"/><line class="cls-3" x1="81.39" y1="105.59" x2="90.19" y2="96.97"/><line class="cls-3" x1="58.11" y1="129.06" x2="72.59" y2="114.57"/><line class="cls-3" x1="0.36" y1="188.27" x2="50.23" y2="138.22"/><line class="cls-3" x1="81.39" y1="107.24" x2="90.19" y2="98.44"/><line class="cls-3" x1="58.11" y1="130.52" x2="74.06" y2="114.57"/><line class="cls-3" x1="0.36" y1="189.74" x2="51.88" y2="138.22"/><line class="cls-3" x1="81.39" y1="108.71" x2="90.19" y2="100.09"/><line class="cls-3" x1="58.11" y1="132.17" x2="75.71" y2="114.57"/><line class="cls-3" x1="0.36" y1="191.39" x2="53.34" y2="138.22"/><line class="cls-3" x1="81.39" y1="110.17" x2="90.19" y2="101.56"/><line class="cls-3" x1="58.11" y1="133.64" x2="77.17" y2="114.57"/><line class="cls-3" x1="0.36" y1="192.86" x2="54.81" y2="138.22"/><line class="cls-3" x1="81.39" y1="111.82" x2="90.19" y2="103.02"/><line class="cls-3" x1="58.11" y1="135.11" x2="78.64" y2="114.57"/><line class="cls-3" x1="0.36" y1="194.32" x2="56.46" y2="138.22"/><line class="cls-3" x1="81.39" y1="113.29" x2="90.19" y2="104.67"/><line class="cls-3" x1="58.11" y1="136.76" x2="80.29" y2="114.57"/><line class="cls-3" x1="0.36" y1="195.97" x2="57.93" y2="138.22"/><line class="cls-3" x1="58.11" y1="138.22" x2="90.19" y2="106.14"/><polyline class="cls-3" points="0.36 197.44 58.11 139.69 90.19 107.61"/><polyline class="cls-3" points="0.36 198.91 58.11 141.34 90.19 109.26"/><polyline class="cls-3" points="0.36 200.56 58.11 142.81 90.19 110.72"/><polyline class="cls-3" points="0.36 202.02 58.11 144.27 90.19 112.19"/><polyline class="cls-3" points="0.36 203.49 58.11 145.92 90.19 113.84"/><polyline class="cls-3" points="1.64 203.67 58.11 147.39 90.19 115.31"/><polyline class="cls-3" points="3.11 203.67 58.11 148.86 90.19 116.96"/><polyline class="cls-3" points="4.76 203.67 58.11 150.51 90.19 118.42"/><polyline class="cls-3" points="6.23 203.67 58.11 151.97 90.19 119.89"/><polyline class="cls-3" points="7.69 203.67 58.11 153.44 90.19 121.54"/><polyline class="cls-3" points="9.34 203.67 58.11 155.09 90.19 123.01"/><polyline class="cls-3" points="10.81 203.67 58.11 156.56 90.19 124.47"/><polyline class="cls-3" points="12.28 203.67 58.11 158.21 90.19 126.12"/><polyline class="cls-3" points="13.93 203.67 58.11 159.67 90.19 127.59"/><polyline class="cls-3" points="15.39 203.67 58.11 161.14 90.19 129.06"/><polyline class="cls-3" points="17.04 203.67 58.11 162.79 90.19 130.71"/><polyline class="cls-3" points="18.51 203.67 58.11 164.26 90.19 132.17"/><polyline class="cls-3" points="19.98 203.67 58.11 165.72 90.19 133.64"/><polyline class="cls-3" points="21.63 203.67 58.11 167.37 90.19 135.29"/><polyline class="cls-3" points="23.09 203.67 58.11 168.84 90.19 136.76"/><polyline class="cls-3" points="24.56 203.67 58.11 170.31 90.19 138.41"/><polyline class="cls-3" points="26.21 203.67 58.11 171.96 90.19 139.87"/><polyline class="cls-3" points="27.68 203.67 58.11 173.42 90.19 141.34"/><polyline class="cls-3" points="29.14 203.67 58.11 174.89 90.19 142.99"/><polyline class="cls-3" points="30.79 203.67 58.11 176.54 90.19 144.46"/><polyline class="cls-3" points="32.26 203.67 58.11 178.01 90.19 145.92"/><polyline class="cls-3" points="33.91 203.67 58.11 179.66 90.19 147.57"/><polyline class="cls-3" points="35.38 203.67 58.11 181.12 90.19 149.04"/><polyline class="cls-3" points="36.84 203.67 58.11 182.59 90.19 150.51"/><polyline class="cls-3" points="38.49 203.67 58.11 184.24 90.19 152.16"/><polyline class="cls-3" points="39.96 203.67 58.11 185.71 90.19 153.62"/><polyline class="cls-3" points="41.43 203.67 58.11 187.17 90.19 155.09"/><polyline class="cls-3" points="43.08 203.67 58.11 188.82 90.19 156.74"/><polyline class="cls-3" points="44.54 203.67 58.11 190.29 90.19 158.21"/><line class="cls-3" x1="46.01" y1="203.67" x2="58.11" y2="191.76"/><line class="cls-3" x1="59.03" y1="190.84" x2="90.19" y2="159.67"/><line class="cls-3" x1="47.66" y1="203.67" x2="58.11" y2="193.41"/><line class="cls-3" x1="60.68" y1="190.84" x2="90.19" y2="161.32"/><line class="cls-3" x1="49.13" y1="203.67" x2="58.11" y2="194.87"/><line class="cls-3" x1="62.14" y1="190.84" x2="90.19" y2="162.79"/><line class="cls-3" x1="50.78" y1="203.67" x2="58.11" y2="196.34"/><line class="cls-3" x1="63.79" y1="190.84" x2="90.19" y2="164.44"/><line class="cls-3" x1="52.24" y1="203.67" x2="58.11" y2="197.99"/><line class="cls-3" x1="65.26" y1="190.84" x2="90.19" y2="165.91"/><line class="cls-3" x1="53.71" y1="203.67" x2="58.11" y2="199.46"/><line class="cls-3" x1="66.73" y1="190.84" x2="90.19" y2="167.37"/><line class="cls-3" x1="55.36" y1="203.67" x2="58.11" y2="200.92"/><line class="cls-3" x1="68.38" y1="190.84" x2="90.19" y2="169.02"/><line class="cls-3" x1="56.83" y1="203.67" x2="58.11" y2="202.57"/><line class="cls-3" x1="69.84" y1="190.84" x2="90.19" y2="170.49"/><line class="cls-3" x1="71.31" y1="190.84" x2="90.19" y2="171.96"/><line class="cls-3" x1="72.96" y1="190.84" x2="90.19" y2="173.61"/><line class="cls-3" x1="74.42" y1="190.84" x2="90.19" y2="175.07"/><line class="cls-3" x1="75.89" y1="190.84" x2="90.19" y2="176.54"/><line class="cls-3" x1="77.54" y1="190.84" x2="90.19" y2="178.19"/><line class="cls-3" x1="79.01" y1="190.84" x2="90.19" y2="179.66"/><line class="cls-3" x1="80.47" y1="190.84" x2="90.19" y2="181.12"/><line class="cls-3" x1="82.12" y1="190.84" x2="90.19" y2="182.77"/><line class="cls-3" x1="83.59" y1="190.84" x2="90.19" y2="184.24"/><line class="cls-3" x1="85.24" y1="190.84" x2="90.19" y2="185.89"/><line class="cls-3" x1="86.71" y1="190.84" x2="90.19" y2="187.36"/><line class="cls-3" x1="88.17" y1="190.84" x2="90.19" y2="188.82"/><line class="cls-3" x1="89.82" y1="190.84" x2="90.19" y2="190.47"/><polyline class="cls-4" points="65.44 49.68 31.89 49.68 31.89 114.57 58.11 114.57 81.39 114.57 81.39 99.72 65.44 99.72 65.44 49.68"/><polyline class="cls-4" points="90.19 118.79 90.19 190.84 58.11 190.84 58.11 155.64 58.11 123.01 58.11 114.57 81.39 114.57 81.39 99.72 65.44 99.72 65.44 49.68 90.19 49.68 90.19 118.79"/><polyline class="cls-4" points="0.36 190.84 0.36 134.92 0.36 126.86 40.51 126.86 40.51 138.22 58.11 138.22 58.11 155.64 58.11 190.84 58.11 203.67 0.36 203.67 0.36 190.84"/><line class="cls-4" x1="42.89" y1="49.68" x2="90.19" y2="0.36"/><line class="cls-4" x1="42.89" y1="0.36" x2="90.19" y2="49.68"/><polyline class="cls-4" points="0.36 86.71 31.89 86.71 31.89 49.68 42.89 49.68 42.89 0.36 0.36 0.36 0.36 86.71"/><polyline class="cls-5" points="0.36 0.36 0.36 190.84 0.36 203.67 58.11 203.67 58.11 190.84 90.19 190.84 90.19 0.36 0.36 0.36"/></g></g></svg>