<svg xmlns="http://www.w3.org/2000/svg" viewBox="0 0 91.84 206.95"><defs><style>.cls-1,.cls-2,.cls-4{fill:none;stroke-linecap:round;stroke-linejoin:round;}.cls-1{stroke:#354b95;}.cls-1,.cls-2{stroke-width:0.24px;}.cls-2{stroke:#385099;}.cls-3{fill:#1b2380;}.cls-4{stroke:#000;stroke-width:0.72px;}</style></defs><g id="Layer_2" data-name="Layer 2"><g id="Capa_1" data-name="Capa 1"><line class="cls-1" x1="32.53" y1="51.87" x2="34.02" y2="50.38"/><line class="cls-1" x1="32.53" y1="53.36" x2="35.51" y2="50.38"/><line class="cls-1" x1="32.53" y1="55.03" x2="37.18" y2="50.38"/><line class="cls-1" x1="32.53" y1="56.52" x2="38.67" y2="50.38"/><line class="cls-1" x1="32.53" y1="58.01" x2="40.16" y2="50.38"/><line class="cls-1" x1="32.53" y1="59.68" x2="41.83" y2="50.38"/><line class="cls-1" x1="32.53" y1="61.17" x2="43.32" y2="50.38"/><line class="cls-1" x1="32.53" y1="62.66" x2="44.99" y2="50.38"/><line class="cls-1" x1="32.53" y1="64.33" x2="46.48" y2="50.38"/><line class="cls-1" x1="32.53" y1="65.82" x2="47.97" y2="50.38"/><line class="cls-1" x1="32.53" y1="67.49" x2="49.64" y2="50.38"/><line class="cls-1" x1="32.53" y1="68.98" x2="51.13" y2="50.38"/><line class="cls-1" x1="32.53" y1="70.47" x2="52.61" y2="50.38"/><line class="cls-1" x1="32.53" y1="72.14" x2="54.29" y2="50.38"/><line class="cls-1" x1="32.53" y1="73.63" x2="55.78" y2="50.38"/><line class="cls-1" x1="32.53" y1="75.12" x2="57.26" y2="50.38"/><line class="cls-1" x1="32.53" y1="76.79" x2="58.94" y2="50.38"/><line class="cls-1" x1="32.53" y1="78.28" x2="60.42" y2="50.38"/><line class="cls-1" x1="32.53" y1="79.76" x2="62.1" y2="50.38"/><line class="cls-1" x1="32.53" y1="81.44" x2="63.59" y2="50.38"/><line class="cls-1" x1="32.53" y1="82.93" x2="65.07" y2="50.38"/><polyline class="cls-1" points="32.53 84.41 66.56 50.38 66.75 50.38"/><polyline class="cls-1" points="32.53 86.09 66.56 52.06 68.23 50.38"/><polyline class="cls-1" points="32.53 87.58 66.56 53.54 69.72 50.38"/><polyline class="cls-1" points="32.53 89.06 66.56 55.03 71.4 50.38"/><polyline class="cls-1" points="32.53 90.74 66.56 56.7 72.88 50.38"/><polyline class="cls-1" points="32.53 92.22 66.56 58.19 74.37 50.38"/><polyline class="cls-1" points="32.53 93.9 66.56 59.87 76.05 50.38"/><polyline class="cls-1" points="32.53 95.39 66.56 61.35 77.53 50.38"/><line class="cls-1" x1="0.36" y1="129.04" x2="0.73" y2="128.67"/><polyline class="cls-1" points="79.21 50.38 66.56 62.84 32.53 96.87"/><line class="cls-1" x1="0.36" y1="130.53" x2="2.41" y2="128.67"/><polyline class="cls-1" points="80.69 50.38 66.56 64.52 32.53 98.55"/><line class="cls-1" x1="0.36" y1="132.02" x2="3.89" y2="128.67"/><polyline class="cls-1" points="82.18 50.38 66.56 66 32.53 100.03"/><line class="cls-1" x1="0.36" y1="133.69" x2="5.38" y2="128.67"/><polyline class="cls-1" points="83.86 50.38 66.56 67.49 32.53 101.52"/><line class="cls-1" x1="0.36" y1="135.18" x2="7.05" y2="128.67"/><polyline class="cls-1" points="85.34 50.38 66.56 69.17 32.53 103.19"/><line class="cls-1" x1="0.36" y1="136.85" x2="8.54" y2="128.67"/><polyline class="cls-1" points="86.83 50.38 66.56 70.65 32.53 104.68"/><line class="cls-1" x1="0.36" y1="138.34" x2="10.03" y2="128.67"/><polyline class="cls-1" points="88.5 50.38 66.56 72.14 32.53 106.17"/><line class="cls-1" x1="0.36" y1="139.83" x2="11.7" y2="128.67"/><polyline class="cls-1" points="89.99 50.38 66.56 73.81 32.53 107.84"/><line class="cls-1" x1="0.36" y1="141.5" x2="13.19" y2="128.67"/><polyline class="cls-1" points="91.48 50.38 66.56 75.3 32.53 109.33"/><line class="cls-1" x1="0.36" y1="142.99" x2="14.68" y2="128.67"/><polyline class="cls-1" points="91.48 51.87 66.56 76.79 32.53 110.82"/><line class="cls-1" x1="0.36" y1="144.48" x2="16.35" y2="128.67"/><polyline class="cls-1" points="91.48 53.54 66.56 78.46 32.53 112.49"/><line class="cls-1" x1="0.36" y1="146.15" x2="17.84" y2="128.67"/><polyline class="cls-1" points="91.48 55.03 66.56 79.95 32.53 113.98"/><line class="cls-1" x1="0.36" y1="147.64" x2="19.51" y2="128.67"/><polyline class="cls-1" points="91.48 56.52 66.56 81.62 32.53 115.65"/><line class="cls-1" x1="0.36" y1="149.13" x2="21" y2="128.67"/><polyline class="cls-1" points="91.48 58.19 66.56 83.11 33.46 116.03"/><line class="cls-1" x1="0.36" y1="150.8" x2="22.49" y2="128.67"/><polyline class="cls-1" points="91.48 59.68 66.56 84.6 35.13 116.03"/><line class="cls-1" x1="0.36" y1="152.29" x2="24.16" y2="128.67"/><polyline class="cls-1" points="91.48 61.17 66.56 86.27 36.62 116.03"/><line class="cls-1" x1="0.36" y1="153.78" x2="25.65" y2="128.67"/><polyline class="cls-1" points="91.48 62.84 66.56 87.76 38.11 116.03"/><line class="cls-1" x1="0.36" y1="155.45" x2="27.14" y2="128.67"/><polyline class="cls-1" points="91.48 64.33 66.56 89.25 39.78 116.03"/><line class="cls-1" x1="0.36" y1="156.94" x2="28.81" y2="128.67"/><polyline class="cls-1" points="91.48 66 66.56 90.92 41.27 116.03"/><line class="cls-1" x1="0.36" y1="158.61" x2="30.3" y2="128.67"/><polyline class="cls-1" points="91.48 67.49 66.56 92.41 42.95 116.03"/><line class="cls-1" x1="0.36" y1="160.1" x2="31.79" y2="128.67"/><polyline class="cls-1" points="91.48 68.98 66.56 93.9 44.43 116.03"/><line class="cls-1" x1="0.36" y1="161.59" x2="33.46" y2="128.67"/><polyline class="cls-1" points="91.48 70.65 66.56 95.57 45.92 116.03"/><line class="cls-1" x1="0.36" y1="163.26" x2="34.95" y2="128.67"/><polyline class="cls-1" points="91.48 72.14 66.56 97.06 47.59 116.03"/><line class="cls-1" x1="0.36" y1="164.75" x2="36.62" y2="128.67"/><polyline class="cls-1" points="91.48 73.63 66.56 98.55 49.08 116.03"/><line class="cls-1" x1="0.36" y1="166.24" x2="38.11" y2="128.67"/><polyline class="cls-1" points="91.48 75.3 66.56 100.22 50.57 116.03"/><line class="cls-1" x1="0.36" y1="167.91" x2="39.6" y2="128.67"/><polyline class="cls-1" points="91.48 76.79 67.12 101.15 52.24 116.03"/><line class="cls-1" x1="0.36" y1="169.4" x2="41.27" y2="128.67"/><polyline class="cls-1" points="91.48 78.28 68.61 101.15 53.73 116.03"/><line class="cls-1" x1="0.36" y1="170.88" x2="41.27" y2="130.16"/><polyline class="cls-1" points="91.48 79.95 70.28 101.15 55.22 116.03"/><line class="cls-1" x1="0.36" y1="172.56" x2="41.27" y2="131.65"/><polyline class="cls-1" points="91.48 81.44 71.77 101.15 56.89 116.03"/><line class="cls-1" x1="0.36" y1="174.05" x2="41.27" y2="133.32"/><polyline class="cls-1" points="91.48 82.93 73.44 101.15 58.38 116.03"/><line class="cls-1" x1="0.36" y1="175.53" x2="41.27" y2="134.81"/><polyline class="cls-1" points="58.94 117.14 60.05 116.03 74.93 101.15 91.48 84.6"/><line class="cls-1" x1="0.36" y1="177.21" x2="41.27" y2="136.3"/><polyline class="cls-1" points="58.94 118.63 61.54 116.03 76.42 101.15 91.48 86.09"/><line class="cls-1" x1="0.36" y1="178.69" x2="41.27" y2="137.97"/><polyline class="cls-1" points="58.94 120.12 63.03 116.03 78.09 101.15 91.48 87.58"/><line class="cls-1" x1="0.36" y1="180.18" x2="41.27" y2="139.46"/><polyline class="cls-1" points="58.94 121.79 64.7 116.03 79.58 101.15 91.48 89.25"/><line class="cls-1" x1="0.36" y1="181.86" x2="42.01" y2="140.2"/><polyline class="cls-1" points="58.94 123.28 66.19 116.03 81.07 101.15 91.48 90.74"/><line class="cls-1" x1="0.36" y1="183.34" x2="43.5" y2="140.2"/><polyline class="cls-1" points="58.94 124.77 67.68 116.03 82.74 101.15 91.48 92.41"/><line class="cls-1" x1="0.36" y1="185.02" x2="45.18" y2="140.2"/><polyline class="cls-1" points="58.94 126.44 69.35 116.03 82.74 102.64 91.48 93.9"/><line class="cls-1" x1="0.36" y1="186.5" x2="46.66" y2="140.2"/><polyline class="cls-1" points="58.94 127.93 70.84 116.03 82.74 104.31 91.48 95.39"/><line class="cls-1" x1="0.36" y1="187.99" x2="48.34" y2="140.2"/><polyline class="cls-1" points="58.94 129.41 72.33 116.03 82.74 105.8 91.48 97.06"/><line class="cls-1" x1="0.36" y1="189.67" x2="49.83" y2="140.2"/><polyline class="cls-1" points="58.94 131.09 74 116.03 82.74 107.29 91.48 98.55"/><line class="cls-1" x1="0.36" y1="191.15" x2="51.31" y2="140.2"/><polyline class="cls-1" points="58.94 132.58 75.49 116.03 82.74 108.96 91.48 100.03"/><line class="cls-1" x1="0.36" y1="192.64" x2="52.99" y2="140.2"/><polyline class="cls-1" points="58.94 134.25 77.16 116.03 82.74 110.45 91.48 101.71"/><line class="cls-1" x1="0.36" y1="194.31" x2="54.47" y2="140.2"/><polyline class="cls-1" points="58.94 135.74 78.65 116.03 82.74 111.94 91.48 103.19"/><line class="cls-1" x1="0.36" y1="195.8" x2="55.96" y2="140.2"/><polyline class="cls-1" points="58.94 137.22 80.14 116.03 82.74 113.61 91.48 104.68"/><line class="cls-1" x1="0.36" y1="197.29" x2="57.64" y2="140.2"/><polyline class="cls-1" points="58.94 138.9 81.81 116.03 82.74 115.1 91.48 106.36"/><polyline class="cls-1" points="0.36 198.96 58.94 140.39 91.48 107.84"/><polyline class="cls-1" points="0.36 200.45 58.94 141.87 91.48 109.33"/><polyline class="cls-1" points="0.36 201.94 58.94 143.55 91.48 111"/><polyline class="cls-1" points="0.36 203.61 58.94 145.04 91.48 112.49"/><polyline class="cls-1" points="0.36 205.1 58.94 146.52 91.48 114.17"/><polyline class="cls-1" points="0.55 206.59 58.94 148.2 91.48 115.65"/><polyline class="cls-1" points="2.03 206.59 58.94 149.69 91.48 117.14"/><polyline class="cls-1" points="3.52 206.59 58.94 151.17 91.48 118.82"/><polyline class="cls-1" points="5.2 206.59 58.94 152.85 91.48 120.3"/><polyline class="cls-1" points="6.68 206.59 58.94 154.33 91.48 121.79"/><polyline class="cls-1" points="8.17 206.59 58.94 156.01 91.48 123.47"/><polyline class="cls-1" points="9.84 206.59 58.94 157.5 91.48 124.95"/><polyline class="cls-1" points="11.33 206.59 58.94 158.98 91.48 126.44"/><polyline class="cls-1" points="12.82 206.59 58.94 160.66 91.48 128.11"/><polyline class="cls-1" points="14.49 206.59 58.94 162.14 91.48 129.6"/><polyline class="cls-1" points="15.98 206.59 58.94 163.63 91.48 131.09"/><polyline class="cls-1" points="17.65 206.59 58.94 165.31 91.48 132.76"/><polyline class="cls-1" points="19.14 206.59 58.94 166.79 91.48 134.25"/><polyline class="cls-1" points="20.63 206.59 58.94 168.28 91.48 135.74"/><polyline class="cls-1" points="22.3 206.59 58.94 169.95 91.48 137.41"/><polyline class="cls-1" points="23.79 206.59 58.94 171.44 91.48 138.9"/><polyline class="cls-1" points="25.28 206.59 58.94 172.93 91.48 140.57"/><polyline class="cls-1" points="26.95 206.59 58.94 174.6 91.48 142.06"/><polyline class="cls-1" points="28.44 206.59 58.94 176.09 91.48 143.55"/><polyline class="cls-1" points="29.93 206.59 58.94 177.58 91.48 145.22"/><polyline class="cls-1" points="31.6 206.59 58.94 179.25 91.48 146.71"/><polyline class="cls-1" points="33.09 206.59 58.94 180.74 91.48 148.2"/><polyline class="cls-1" points="34.58 206.59 58.94 182.41 91.48 149.87"/><polyline class="cls-1" points="36.25 206.59 58.94 183.9 91.48 151.36"/><polyline class="cls-1" points="37.74 206.59 58.94 185.39 91.48 152.85"/><polyline class="cls-1" points="39.41 206.59 58.94 187.06 91.48 154.52"/><polyline class="cls-1" points="40.9 206.59 58.94 188.55 91.48 156.01"/><polyline class="cls-1" points="42.39 206.59 58.94 190.04 91.48 157.5"/><polyline class="cls-1" points="44.06 206.59 58.94 191.71 91.48 159.17"/><polyline class="cls-1" points="45.55 206.59 58.94 193.2 91.48 160.66"/><line class="cls-1" x1="47.04" y1="206.59" x2="58.94" y2="194.69"/><line class="cls-1" x1="60.24" y1="193.39" x2="91.48" y2="162.33"/><line class="cls-1" x1="48.71" y1="206.59" x2="58.94" y2="196.36"/><line class="cls-1" x1="61.91" y1="193.39" x2="91.48" y2="163.82"/><line class="cls-1" x1="50.2" y1="206.59" x2="58.94" y2="197.85"/><line class="cls-1" x1="63.4" y1="193.39" x2="91.48" y2="165.31"/><line class="cls-1" x1="51.68" y1="206.59" x2="58.94" y2="199.34"/><line class="cls-1" x1="64.89" y1="193.39" x2="91.48" y2="166.98"/><line class="cls-1" x1="53.36" y1="206.59" x2="58.94" y2="201.01"/><line class="cls-1" x1="66.56" y1="193.39" x2="91.48" y2="168.47"/><line class="cls-1" x1="54.85" y1="206.59" x2="58.94" y2="202.5"/><line class="cls-1" x1="68.05" y1="193.39" x2="91.48" y2="169.95"/><line class="cls-1" x1="56.52" y1="206.59" x2="58.94" y2="204.17"/><line class="cls-1" x1="69.72" y1="193.39" x2="91.48" y2="171.63"/><line class="cls-1" x1="58.01" y1="206.59" x2="58.94" y2="205.66"/><line class="cls-1" x1="71.21" y1="193.39" x2="91.48" y2="173.12"/><line class="cls-1" x1="72.7" y1="193.39" x2="91.48" y2="174.6"/><line class="cls-1" x1="74.37" y1="193.39" x2="91.48" y2="176.28"/><line class="cls-1" x1="75.86" y1="193.39" x2="91.48" y2="177.76"/><line class="cls-1" x1="77.35" y1="193.39" x2="91.48" y2="179.25"/><line class="cls-1" x1="79.02" y1="193.39" x2="91.48" y2="180.93"/><line class="cls-1" x1="80.51" y1="193.39" x2="91.48" y2="182.41"/><line class="cls-1" x1="82" y1="193.39" x2="91.48" y2="183.9"/><line class="cls-1" x1="83.67" y1="193.39" x2="91.48" y2="185.57"/><line class="cls-1" x1="85.16" y1="193.39" x2="91.48" y2="187.06"/><line class="cls-1" x1="86.83" y1="193.39" x2="91.48" y2="188.74"/><line class="cls-1" x1="88.32" y1="193.39" x2="91.48" y2="190.22"/><line class="cls-1" x1="89.81" y1="193.39" x2="91.48" y2="191.71"/><line class="cls-1" x1="91.48" y1="193.39" x2="91.48" y2="193.39"/><polyline class="cls-2" points="66.56 50.38 32.53 50.38 32.53 116.03 58.94 116.03 82.74 116.03 82.74 101.15 66.56 101.15 66.56 50.38"/><polyline class="cls-2" points="91.48 120.49 91.48 193.38 58.94 193.38 58.94 157.87 58.94 124.77 58.94 116.03 82.74 116.03 82.74 101.15 66.56 101.15 66.56 50.38 91.48 50.38 91.48 120.49"/><polyline class="cls-2" points="0.36 193.38 0.36 136.85 0.36 128.67 41.27 128.67 41.27 140.2 58.94 140.2 58.94 157.87 58.94 193.38 58.94 206.59 0.36 206.59 0.36 193.38"/><line class="cls-2" x1="43.69" y1="50.38" x2="91.48" y2="0.36"/><line class="cls-2" x1="43.69" y1="0.36" x2="91.48" y2="50.38"/><polygon class="cls-3" points="0.36 0.36 0.36 50.38 0.36 87.95 32.53 87.95 32.53 50.38 43.69 50.38 43.69 0.36 0.36 0.36"/><polyline class="cls-4" points="0.36 0.36 0.36 193.38 0.36 206.59 58.94 206.59 58.94 193.38 91.48 193.38 91.48 0.36 0.36 0.36"/></g></g></svg>