<svg xmlns="http://www.w3.org/2000/svg" viewBox="0 0 90.22 203.46"><defs><style>.cls-1,.cls-2,.cls-4,.cls-5{fill:none;stroke-linecap:round;stroke-linejoin:round;}.cls-1{stroke:#354591;}.cls-1,.cls-2,.cls-4{stroke-width:0.24px;}.cls-2{stroke:#8aa8cf;}.cls-3{fill:#1b2380;}.cls-4{stroke:#2f3f8e;}.cls-5{stroke:#293287;stroke-width:0.72px;}</style></defs><g id="Layer_2" data-name="Layer 2"><g id="Capa_1" data-name="Capa 1"><line class="cls-1" x1="0.68" y1="1.18" x2="1.22" y2="0.63"/><line class="cls-1" x1="0.36" y1="2.55" x2="2.55" y2="0.36"/><line class="cls-1" x1="0.36" y1="4.01" x2="4.01" y2="0.36"/><line class="cls-1" x1="0.36" y1="5.47" x2="5.66" y2="0.36"/><line class="cls-1" x1="0.36" y1="7.12" x2="7.12" y2="0.36"/><line class="cls-1" x1="0.36" y1="8.58" x2="8.58" y2="0.36"/><line class="cls-1" x1="0.36" y1="10.04" x2="10.22" y2="0.36"/><line class="cls-1" x1="0.36" y1="11.68" x2="11.68" y2="0.36"/><line class="cls-1" x1="0.36" y1="13.15" x2="13.15" y2="0.36"/><line class="cls-1" x1="0.36" y1="14.61" x2="14.79" y2="0.36"/><line class="cls-1" x1="0.36" y1="16.25" x2="16.25" y2="0.36"/><line class="cls-1" x1="0.36" y1="17.71" x2="17.71" y2="0.36"/><line class="cls-1" x1="0.36" y1="19.17" x2="19.36" y2="0.36"/><line class="cls-1" x1="0.36" y1="20.82" x2="20.82" y2="0.36"/><line class="cls-1" x1="0.36" y1="22.28" x2="22.46" y2="0.36"/><line class="cls-1" x1="0.36" y1="23.92" x2="23.92" y2="0.36"/><line class="cls-1" x1="0.36" y1="25.38" x2="25.38" y2="0.36"/><line class="cls-1" x1="0.36" y1="26.84" x2="27.03" y2="0.36"/><line class="cls-1" x1="0.36" y1="28.49" x2="28.49" y2="0.36"/><line class="cls-1" x1="0.36" y1="29.95" x2="29.95" y2="0.36"/><line class="cls-1" x1="0.36" y1="31.41" x2="31.59" y2="0.36"/><line class="cls-1" x1="0.36" y1="33.05" x2="33.05" y2="0.36"/><line class="cls-1" x1="0.36" y1="34.51" x2="34.51" y2="0.36"/><line class="cls-1" x1="0.36" y1="35.98" x2="36.16" y2="0.36"/><line class="cls-1" x1="0.36" y1="37.62" x2="37.62" y2="0.36"/><line class="cls-1" x1="0.36" y1="39.08" x2="39.26" y2="0.36"/><line class="cls-1" x1="0.36" y1="40.54" x2="40.72" y2="0.36"/><line class="cls-1" x1="0.36" y1="42.19" x2="42.19" y2="0.36"/><line class="cls-1" x1="0.36" y1="43.65" x2="42.73" y2="1.27"/><line class="cls-1" x1="0.36" y1="45.29" x2="42.73" y2="2.73"/><line class="cls-1" x1="0.36" y1="46.75" x2="42.73" y2="4.38"/><line class="cls-1" x1="0.36" y1="48.21" x2="42.73" y2="5.84"/><line class="cls-1" x1="0.36" y1="49.86" x2="42.73" y2="7.48"/><line class="cls-1" x1="0.36" y1="51.32" x2="42.73" y2="8.94"/><line class="cls-1" x1="0.36" y1="52.78" x2="42.73" y2="10.41"/><line class="cls-1" x1="0.36" y1="54.42" x2="42.73" y2="12.05"/><line class="cls-1" x1="0.36" y1="55.88" x2="42.73" y2="13.51"/><line class="cls-1" x1="0.36" y1="57.35" x2="42.73" y2="14.97"/><line class="cls-1" x1="0.36" y1="58.99" x2="42.73" y2="16.62"/><line class="cls-1" x1="0.36" y1="60.45" x2="42.73" y2="18.08"/><line class="cls-1" x1="0.36" y1="61.91" x2="42.73" y2="19.54"/><line class="cls-1" x1="0.36" y1="63.56" x2="42.73" y2="21.18"/><line class="cls-1" x1="0.36" y1="65.02" x2="42.73" y2="22.64"/><line class="cls-1" x1="0.36" y1="66.48" x2="42.73" y2="24.1"/><line class="cls-1" x1="0.36" y1="68.12" x2="42.73" y2="25.75"/><line class="cls-1" x1="0.36" y1="69.58" x2="42.73" y2="27.21"/><line class="cls-1" x1="0.36" y1="71.23" x2="42.73" y2="28.67"/><line class="cls-1" x1="0.36" y1="72.69" x2="42.73" y2="30.31"/><line class="cls-1" x1="0.36" y1="74.15" x2="42.73" y2="31.78"/><line class="cls-1" x1="0.36" y1="75.79" x2="42.73" y2="33.42"/><line class="cls-1" x1="0.36" y1="77.25" x2="42.73" y2="34.88"/><line class="cls-1" x1="0.36" y1="78.71" x2="42.73" y2="36.34"/><line class="cls-1" x1="0.36" y1="80.36" x2="42.73" y2="37.99"/><polyline class="cls-1" points="0.36 81.82 31.96 50.41 32.69 49.49 42.73 39.45"/><polyline class="cls-1" points="0.36 83.28 31.96 51.87 34.15 49.49 42.73 40.91"/><polyline class="cls-1" points="0.36 84.92 31.96 53.33 35.79 49.49 42.73 42.55"/><polyline class="cls-1" points="0.36 86.39 31.96 54.97 37.25 49.49 42.73 44.01"/><polyline class="cls-1" points="1.82 86.39 31.96 56.43 38.9 49.49 42.73 45.47"/><polyline class="cls-1" points="3.28 86.39 31.96 57.89 40.36 49.49 42.73 47.12"/><polyline class="cls-1" points="4.93 86.39 31.96 59.54 41.82 49.49 42.73 48.58"/><polyline class="cls-1" points="6.39 86.39 31.96 61 43.46 49.49"/><polyline class="cls-1" points="7.85 86.39 31.96 62.46 44.93 49.49"/><polyline class="cls-1" points="9.49 86.39 31.96 64.1 46.39 49.49"/><polyline class="cls-1" points="10.95 86.39 31.96 65.56 48.03 49.49"/><polyline class="cls-1" points="12.6 86.39 31.96 67.03 49.49 49.49"/><polyline class="cls-1" points="14.06 86.39 31.96 68.67 50.95 49.49"/><polyline class="cls-1" points="15.52 86.39 31.96 70.13 52.6 49.49"/><polyline class="cls-1" points="17.16 86.39 31.96 71.59 54.06 49.49"/><polyline class="cls-1" points="18.63 86.39 31.96 73.24 55.7 49.49"/><polyline class="cls-1" points="20.09 86.39 31.96 74.7 57.16 49.49"/><polyline class="cls-1" points="21.73 86.39 31.96 76.34 58.62 49.49"/><polyline class="cls-1" points="23.19 86.39 31.96 77.8 60.27 49.49"/><polyline class="cls-1" points="24.65 86.39 31.96 79.26 61.73 49.49"/><polyline class="cls-1" points="26.3 86.39 31.96 80.91 63.19 49.49"/><polyline class="cls-1" points="27.76 86.39 31.96 82.37 64.83 49.49"/><polyline class="cls-1" points="29.4 86.39 31.96 83.83 65.38 50.41 66.3 49.49"/><polyline class="cls-1" points="30.86 86.39 31.96 85.47 65.38 52.05 67.76 49.49"/><polyline class="cls-1" points="31.96 86.93 65.38 53.51 69.4 49.49"/><polyline class="cls-1" points="31.96 88.39 65.38 54.97 70.86 49.49"/><polyline class="cls-1" points="31.96 90.04 65.38 56.62 72.32 49.49"/><polyline class="cls-1" points="31.96 91.5 65.38 58.08 73.97 49.49"/><polyline class="cls-1" points="31.96 92.96 65.38 59.54 75.43 49.49"/><polyline class="cls-1" points="31.96 94.61 65.38 61.18 77.07 49.49"/><polyline class="cls-1" points="31.96 96.07 65.38 62.64 78.53 49.49"/><polyline class="cls-1" points="31.96 97.71 65.38 64.29 79.99 49.49"/><polyline class="cls-1" points="31.96 99.17 65.38 65.75 81.64 49.49"/><polyline class="cls-1" points="31.96 100.63 65.38 67.21 83.1 49.49"/><polyline class="cls-1" points="31.96 102.28 65.38 68.85 84.56 49.49"/><polyline class="cls-1" points="31.96 103.74 65.38 70.31 86.2 49.49"/><polyline class="cls-1" points="31.96 105.2 65.38 71.77 87.67 49.49"/><polyline class="cls-1" points="31.96 106.84 65.38 73.42 89.13 49.49"/><polyline class="cls-1" points="31.96 108.3 65.38 74.88 89.86 50.41"/><polyline class="cls-1" points="31.96 109.77 65.38 76.34 89.86 51.87"/><polyline class="cls-1" points="31.96 111.41 65.38 77.98 89.86 53.51"/><polyline class="cls-1" points="31.96 112.87 65.38 79.45 89.86 54.97"/><polyline class="cls-1" points="32.14 114.15 65.38 80.91 89.86 56.43"/><polyline class="cls-1" points="33.78 114.15 65.38 82.55 89.86 58.08"/><polyline class="cls-1" points="35.24 114.15 65.38 84.01 89.86 59.54"/><polyline class="cls-1" points="36.89 114.15 65.38 85.66 89.86 61"/><polyline class="cls-1" points="38.35 114.15 65.38 87.12 89.86 62.64"/><polyline class="cls-1" points="39.81 114.15 65.38 88.58 89.86 64.1"/><polyline class="cls-1" points="41.45 114.15 65.38 90.22 89.86 65.56"/><polyline class="cls-1" points="42.92 114.15 65.38 91.68 89.86 67.21"/><polyline class="cls-1" points="44.38 114.15 65.38 93.14 89.86 68.67"/><polyline class="cls-1" points="46.02 114.15 65.38 94.79 89.86 70.13"/><polyline class="cls-1" points="47.48 114.15 65.38 96.25 89.86 71.77"/><polyline class="cls-1" points="48.94 114.15 65.38 97.71 89.86 73.24"/><polyline class="cls-1" points="50.59 114.15 65.38 99.35 89.86 74.88"/><polyline class="cls-1" points="52.05 114.15 66.84 99.35 89.86 76.34"/><polyline class="cls-1" points="53.69 114.15 68.3 99.35 89.86 77.8"/><polyline class="cls-1" points="55.15 114.15 69.77 99.35 89.86 79.45"/><polyline class="cls-1" points="56.62 114.15 71.41 99.35 89.86 80.91"/><polyline class="cls-1" points="57.89 114.33 58.26 114.15 72.87 99.35 89.86 82.37"/><polyline class="cls-1" points="57.89 115.97 59.72 114.15 74.33 99.35 89.86 84.01"/><polyline class="cls-1" points="57.89 117.44 61.18 114.15 75.97 99.35 89.86 85.47"/><polyline class="cls-1" points="57.89 118.9 62.83 114.15 77.44 99.35 89.86 86.93"/><polyline class="cls-1" points="57.89 120.54 64.29 114.15 78.9 99.35 89.86 88.58"/><polyline class="cls-1" points="57.89 122 65.75 114.15 80.54 99.35 89.86 90.04"/><polyline class="cls-1" points="57.89 123.46 67.39 114.15 81.27 100.27 89.86 91.5"/><polyline class="cls-1" points="57.89 125.11 68.85 114.15 81.27 101.73 89.86 93.14"/><polyline class="cls-1" points="57.89 126.57 70.5 114.15 81.27 103.19 89.86 94.61"/><polyline class="cls-1" points="57.89 128.03 71.96 114.15 81.27 104.83 89.86 96.25"/><polyline class="cls-1" points="57.89 129.67 73.42 114.15 81.27 106.29 89.86 97.71"/><polyline class="cls-1" points="57.89 131.13 75.06 114.15 81.27 107.76 89.86 99.17"/><polyline class="cls-1" points="57.89 132.59 76.52 114.15 81.27 109.4 89.86 100.81"/><polyline class="cls-1" points="57.89 134.24 77.98 114.15 81.27 110.86 89.86 102.28"/><polyline class="cls-1" points="57.89 135.7 79.63 114.15 81.27 112.5 89.86 103.74"/><polyline class="cls-1" points="57.89 137.34 81.09 114.15 81.27 113.97 89.86 105.38"/><line class="cls-1" x1="57.89" y1="138.81" x2="89.86" y2="106.84"/><line class="cls-1" x1="57.89" y1="140.27" x2="89.86" y2="108.3"/><line class="cls-1" x1="57.89" y1="141.91" x2="89.86" y2="109.95"/><line class="cls-1" x1="57.89" y1="143.37" x2="89.86" y2="111.41"/><line class="cls-1" x1="57.89" y1="144.83" x2="89.86" y2="112.87"/><line class="cls-1" x1="57.89" y1="146.48" x2="89.86" y2="114.51"/><line class="cls-1" x1="57.89" y1="147.94" x2="89.86" y2="115.97"/><line class="cls-1" x1="57.89" y1="149.4" x2="89.86" y2="117.44"/><line class="cls-1" x1="57.89" y1="151.04" x2="89.86" y2="119.08"/><line class="cls-1" x1="57.89" y1="152.5" x2="89.86" y2="120.54"/><line class="cls-1" x1="57.89" y1="153.96" x2="89.86" y2="122.18"/><line class="cls-1" x1="57.89" y1="155.61" x2="89.86" y2="123.65"/><line class="cls-1" x1="57.89" y1="157.07" x2="89.86" y2="125.11"/><line class="cls-1" x1="57.89" y1="158.53" x2="89.86" y2="126.75"/><line class="cls-1" x1="57.89" y1="160.17" x2="89.86" y2="128.21"/><line class="cls-1" x1="57.89" y1="161.64" x2="89.86" y2="129.67"/><line class="cls-1" x1="57.89" y1="163.28" x2="89.86" y2="131.32"/><line class="cls-1" x1="57.89" y1="164.74" x2="89.86" y2="132.78"/><line class="cls-1" x1="57.89" y1="166.2" x2="89.86" y2="134.24"/><line class="cls-1" x1="57.89" y1="167.85" x2="89.86" y2="135.88"/><line class="cls-1" x1="57.89" y1="169.31" x2="89.86" y2="137.34"/><line class="cls-1" x1="57.89" y1="170.77" x2="89.86" y2="138.81"/><line class="cls-1" x1="57.89" y1="172.41" x2="89.86" y2="140.45"/><line class="cls-1" x1="57.89" y1="173.87" x2="89.86" y2="141.91"/><line class="cls-1" x1="57.89" y1="175.33" x2="89.86" y2="143.55"/><line class="cls-1" x1="57.89" y1="176.98" x2="89.86" y2="145.02"/><line class="cls-1" x1="57.89" y1="178.44" x2="89.86" y2="146.48"/><line class="cls-1" x1="57.89" y1="179.9" x2="89.86" y2="148.12"/><line class="cls-1" x1="57.89" y1="181.54" x2="89.86" y2="149.58"/><line class="cls-1" x1="57.89" y1="183.01" x2="89.86" y2="151.04"/><line class="cls-1" x1="57.89" y1="184.65" x2="89.86" y2="152.69"/><line class="cls-1" x1="57.89" y1="186.11" x2="89.86" y2="154.15"/><line class="cls-1" x1="57.89" y1="187.57" x2="89.86" y2="155.61"/><line class="cls-1" x1="57.89" y1="189.22" x2="89.86" y2="157.25"/><line class="cls-1" x1="58.44" y1="190.13" x2="89.86" y2="158.71"/><line class="cls-1" x1="60.09" y1="190.13" x2="89.86" y2="160.17"/><line class="cls-1" x1="61.55" y1="190.13" x2="89.86" y2="161.82"/><line class="cls-1" x1="63.19" y1="190.13" x2="89.86" y2="163.28"/><line class="cls-1" x1="64.65" y1="190.13" x2="89.86" y2="164.74"/><line class="cls-1" x1="66.11" y1="190.13" x2="89.86" y2="166.38"/><line class="cls-1" x1="67.76" y1="190.13" x2="89.86" y2="167.85"/><line class="cls-1" x1="69.22" y1="190.13" x2="89.86" y2="169.49"/><line class="cls-1" x1="70.68" y1="190.13" x2="89.86" y2="170.95"/><line class="cls-1" x1="72.32" y1="190.13" x2="89.86" y2="172.41"/><line class="cls-1" x1="73.78" y1="190.13" x2="89.86" y2="174.06"/><line class="cls-1" x1="75.24" y1="190.13" x2="89.86" y2="175.52"/><line class="cls-1" x1="76.89" y1="190.13" x2="89.86" y2="176.98"/><line class="cls-1" x1="78.35" y1="190.13" x2="89.86" y2="178.62"/><line class="cls-1" x1="79.99" y1="190.13" x2="89.86" y2="180.08"/><line class="cls-1" x1="81.45" y1="190.13" x2="89.86" y2="181.54"/><line class="cls-1" x1="82.92" y1="190.13" x2="89.86" y2="183.19"/><line class="cls-1" x1="84.56" y1="190.13" x2="89.86" y2="184.65"/><line class="cls-1" x1="86.02" y1="190.13" x2="89.86" y2="186.11"/><line class="cls-1" x1="87.48" y1="190.13" x2="89.86" y2="187.75"/><line class="cls-2" x1="89.13" y1="190.13" x2="89.86" y2="189.22"/><polyline class="cls-1" points="65.38 49.49 31.96 49.49 31.96 114.15 57.89 114.15 81.27 114.15 81.27 99.35 65.38 99.35 65.38 49.49"/><polyline class="cls-1" points="89.86 118.35 89.86 190.13 57.89 190.13 57.89 155.06 57.89 122.55 57.89 114.15 81.27 114.15 81.27 99.35 65.38 99.35 65.38 49.49 89.86 49.49 89.86 118.35"/><polygon class="cls-3" points="40.54 137.71 40.54 134.42 40.54 126.39 0.36 126.39 0.36 134.42 0.36 137.71 0.36 155.06 0.36 190.13 0.36 203.1 57.89 203.1 57.89 190.13 57.89 155.06 57.89 137.71 40.54 137.71"/><line class="cls-4" x1="42.73" y1="49.49" x2="89.86" y2="0.36"/><line class="cls-4" x1="42.73" y1="0.36" x2="89.86" y2="49.49"/><polyline class="cls-1" points="0.36 86.39 31.96 86.39 31.96 49.49 42.73 49.49 42.73 0.36 0.36 0.36 0.36 86.39"/><polyline class="cls-5" points="0.36 0.36 0.36 190.13 0.36 203.1 57.89 203.1 57.89 190.13 89.86 190.13 89.86 0.36 0.36 0.36"/></g></g></svg>