<svg width="744" height="392" viewBox="0 0 744 392" fill="none" xmlns="http://www.w3.org/2000/svg">
<path d="M691.872 8.86392L372 320.672L52.128 8.86392C46.4129 3.28169 38.7409 0.156525 30.752 0.156525C22.763 0.156525 15.0911 3.28169 9.37599 8.86392C6.60877 11.5752 4.41038 14.8114 2.90958 18.383C1.40878 21.9546 0.635742 25.7898 0.635742 29.6639C0.635742 33.538 1.40878 37.3732 2.90958 40.9448C4.41038 44.5164 6.60877 47.7526 9.37599 50.4639L349.664 382.24C355.64 388.065 363.655 391.325 372 391.325C380.345 391.325 388.36 388.065 394.336 382.24L734.624 50.5279C737.411 47.8146 739.626 44.5704 741.138 40.987C742.651 37.4035 743.43 33.5534 743.43 29.6639C743.43 25.7744 742.651 21.9243 741.138 18.3408C739.626 14.7574 737.411 11.5132 734.624 8.7999C728.909 3.21766 721.237 0.0925293 713.248 0.0925293C705.259 0.0925293 697.587 3.21766 691.872 8.7999V8.86392Z" fill="white"/>
</svg>
