<svg width="392" height="744" viewBox="0 0 392 744" fill="none" xmlns="http://www.w3.org/2000/svg">
<path d="M382.617 9.31195C388.2 15.027 391.325 22.699 391.325 30.688C391.325 38.6769 388.2 46.3489 382.617 52.0639L70.7453 372L382.617 691.872C388.2 697.587 391.325 705.259 391.325 713.248C391.325 721.237 388.2 728.909 382.617 734.624C379.904 737.411 376.66 739.626 373.076 741.138C369.493 742.651 365.643 743.43 361.753 743.43C357.864 743.43 354.014 742.651 350.43 741.138C346.847 739.626 343.603 737.411 340.889 734.624L9.24133 394.336C3.41645 388.36 0.156433 380.345 0.156433 372C0.156433 363.655 3.41645 355.64 9.24133 349.664L340.889 9.37596C343.603 6.58918 346.847 4.37421 350.43 2.8618C354.014 1.34939 357.864 0.57019 361.753 0.57019C365.643 0.57019 369.493 1.34939 373.076 2.8618C376.66 4.37421 379.904 6.58918 382.617 9.37596V9.31195Z" fill="black"/>
</svg>
