<svg width="392" height="744" viewBox="0 0 392 744" fill="none" xmlns="http://www.w3.org/2000/svg">
<path d="M8.86414 9.31195C3.2819 15.027 0.156738 22.699 0.156738 30.688C0.156738 38.6769 3.2819 46.3489 8.86414 52.0639L320.736 372L8.86414 691.872C3.2819 697.587 0.156738 705.259 0.156738 713.248C0.156738 721.237 3.2819 728.909 8.86414 734.624C11.5775 737.411 14.8216 739.626 18.4051 741.138C21.9885 742.651 25.8386 743.43 29.7281 743.43C33.6176 743.43 37.4678 742.651 41.0512 741.138C44.6346 739.626 47.8788 737.411 50.5921 734.624L382.24 394.336C388.065 388.36 391.325 380.345 391.325 372C391.325 363.655 388.065 355.64 382.24 349.664L50.5921 9.37596C47.8788 6.58918 44.6346 4.37421 41.0512 2.8618C37.4678 1.34939 33.6176 0.57019 29.7281 0.57019C25.8386 0.57019 21.9885 1.34939 18.4051 2.8618C14.8216 4.37421 11.5775 6.58918 8.86414 9.37596V9.31195Z" fill="black"/>
</svg>
